<svg width="1400" height="416" viewBox="0 0 1400 416" fill="none" xmlns="http://www.w3.org/2000/svg">
<rect width="1400" height="416" rx="50" fill="url(#paint0_linear_244_8330)"/>
<mask id="mask0_244_8330" style="mask-type:alpha" maskUnits="userSpaceOnUse" x="0" y="0" width="1400" height="416">
<rect width="1400" height="416" rx="50" fill="url(#paint1_linear_244_8330)"/>
</mask>
<g mask="url(#mask0_244_8330)">
<ellipse cx="292.509" cy="297.539" rx="292.509" ry="297.539" transform="matrix(0.86744 -0.497541 0.53725 0.843423 413 -159.93)" fill="url(#paint2_linear_244_8330)" fill-opacity="0.44" style="mix-blend-mode:multiply"/>
<ellipse cx="265.977" cy="260.665" rx="265.977" ry="260.665" transform="matrix(0.255312 -0.966859 0.971175 0.238366 1017 717.324)" fill="url(#paint3_linear_244_8330)" fill-opacity="0.42" style="mix-blend-mode:multiply"/>
</g>
<path d="M89.425 147.9C84.175 147.9 79.725 146.95 76.075 145.05C72.425 143.1 69.625 140.175 67.675 136.275C65.775 132.325 64.825 127.325 64.825 121.275C64.825 112.325 67 105.65 71.35 101.25C75.7 96.85 81.75 94.65 89.5 94.65C93.9 94.65 97.8 95.375 101.2 96.825C104.6 98.225 107.25 100.375 109.15 103.275C111.1 106.125 112.075 109.725 112.075 114.075H104.875C104.875 111.075 104.225 108.6 102.925 106.65C101.675 104.7 99.9 103.25 97.6 102.3C95.3 101.3 92.6 100.8 89.5 100.8C85.9 100.8 82.8 101.5 80.2 102.9C77.6 104.3 75.625 106.475 74.275 109.425C72.925 112.325 72.25 116.075 72.25 120.675V122.25C72.25 126.8 72.925 130.525 74.275 133.425C75.625 136.275 77.575 138.375 80.125 139.725C82.725 141.075 85.85 141.75 89.5 141.75C92.7 141.75 95.45 141.275 97.75 140.325C100.1 139.375 101.9 137.925 103.15 135.975C104.45 133.975 105.1 131.475 105.1 128.475H112.075C112.075 132.925 111.075 136.575 109.075 139.425C107.125 142.275 104.45 144.4 101.05 145.8C97.65 147.2 93.775 147.9 89.425 147.9ZM120.74 147V107.55H126.065L126.665 114.075H127.19C127.59 112.825 128.14 111.65 128.84 110.55C129.54 109.4 130.49 108.475 131.69 107.775C132.89 107.025 134.365 106.65 136.115 106.65C136.865 106.65 137.54 106.725 138.14 106.875C138.79 106.975 139.265 107.1 139.565 107.25V113.325H137.09C135.39 113.325 133.915 113.625 132.665 114.225C131.465 114.775 130.465 115.575 129.665 116.625C128.865 117.675 128.265 118.925 127.865 120.375C127.515 121.825 127.34 123.375 127.34 125.025V147H120.74ZM160.66 147.9C156.76 147.9 153.46 147.175 150.76 145.725C148.11 144.225 146.085 141.95 144.685 138.9C143.335 135.85 142.66 131.975 142.66 127.275C142.66 122.525 143.335 118.65 144.685 115.65C146.085 112.6 148.135 110.35 150.835 108.9C153.535 107.4 156.91 106.65 160.96 106.65C164.66 106.65 167.76 107.375 170.26 108.825C172.76 110.225 174.635 112.35 175.885 115.2C177.185 118 177.835 121.525 177.835 125.775V128.925H149.485C149.585 132.075 150.035 134.675 150.835 136.725C151.685 138.725 152.935 140.2 154.585 141.15C156.235 142.05 158.31 142.5 160.81 142.5C162.51 142.5 163.985 142.3 165.235 141.9C166.535 141.45 167.61 140.825 168.46 140.025C169.36 139.225 170.035 138.275 170.485 137.175C170.935 136.075 171.185 134.875 171.235 133.575H177.685C177.635 135.675 177.235 137.625 176.485 139.425C175.735 141.175 174.635 142.675 173.185 143.925C171.735 145.175 169.96 146.15 167.86 146.85C165.76 147.55 163.36 147.9 160.66 147.9ZM149.635 123.975H171.01C171.01 121.775 170.76 119.925 170.26 118.425C169.76 116.925 169.035 115.7 168.085 114.75C167.185 113.8 166.11 113.125 164.86 112.725C163.66 112.275 162.285 112.05 160.735 112.05C158.435 112.05 156.485 112.475 154.885 113.325C153.285 114.175 152.06 115.475 151.21 117.225C150.36 118.975 149.835 121.225 149.635 123.975ZM195.899 147.9C194.449 147.9 192.999 147.725 191.549 147.375C190.099 147.025 188.749 146.45 187.499 145.65C186.249 144.85 185.249 143.75 184.499 142.35C183.749 140.9 183.374 139.1 183.374 136.95C183.374 134.25 184.024 132.025 185.324 130.275C186.624 128.525 188.424 127.175 190.724 126.225C193.074 125.225 195.849 124.55 199.049 124.2C202.249 123.8 205.724 123.6 209.474 123.6V119.1C209.474 117.65 209.224 116.4 208.724 115.35C208.224 114.3 207.324 113.5 206.024 112.95C204.774 112.35 202.974 112.05 200.624 112.05C198.374 112.05 196.574 112.35 195.224 112.95C193.924 113.5 192.999 114.225 192.449 115.125C191.949 116.025 191.699 117.025 191.699 118.125V119.25H185.324C185.274 119 185.249 118.75 185.249 118.5C185.249 118.25 185.249 117.95 185.249 117.6C185.249 115.2 185.899 113.2 187.199 111.6C188.549 109.95 190.424 108.725 192.824 107.925C195.224 107.075 197.974 106.65 201.074 106.65C204.374 106.65 207.124 107.125 209.324 108.075C211.574 109.025 213.249 110.375 214.349 112.125C215.499 113.875 216.074 115.975 216.074 118.425V139.8C216.074 140.75 216.299 141.425 216.749 141.825C217.199 142.175 217.749 142.35 218.399 142.35H221.324V146.7C220.624 147 219.849 147.25 218.999 147.45C218.149 147.7 217.174 147.825 216.074 147.825C214.774 147.825 213.699 147.55 212.849 147C211.999 146.5 211.349 145.8 210.899 144.9C210.449 143.95 210.149 142.9 209.999 141.75H209.474C208.574 143 207.424 144.1 206.024 145.05C204.674 145.95 203.149 146.65 201.449 147.15C199.749 147.65 197.899 147.9 195.899 147.9ZM197.549 142.35C199.149 142.35 200.649 142.1 202.049 141.6C203.499 141.1 204.774 140.4 205.874 139.5C206.974 138.55 207.849 137.425 208.499 136.125C209.149 134.825 209.474 133.4 209.474 131.85V128.55C205.424 128.55 201.974 128.775 199.124 129.225C196.274 129.675 194.074 130.475 192.524 131.625C191.024 132.775 190.274 134.4 190.274 136.5C190.274 137.85 190.574 138.95 191.174 139.8C191.774 140.65 192.624 141.3 193.724 141.75C194.824 142.15 196.099 142.35 197.549 142.35ZM236.093 147.9C234.043 147.9 232.443 147.525 231.293 146.775C230.143 145.975 229.318 144.95 228.818 143.7C228.318 142.4 228.068 141.025 228.068 139.575V113.1H222.968V107.55H228.218L229.418 96.525H234.668V107.55H242.093V113.1H234.668V138.6C234.668 139.85 234.893 140.8 235.343 141.45C235.793 142.05 236.643 142.35 237.893 142.35H242.093V146.7C241.593 146.95 240.993 147.15 240.293 147.3C239.593 147.45 238.868 147.575 238.118 147.675C237.418 147.825 236.743 147.9 236.093 147.9ZM264.884 147.9C260.984 147.9 257.684 147.175 254.984 145.725C252.334 144.225 250.309 141.95 248.909 138.9C247.559 135.85 246.884 131.975 246.884 127.275C246.884 122.525 247.559 118.65 248.909 115.65C250.309 112.6 252.359 110.35 255.059 108.9C257.759 107.4 261.134 106.65 265.184 106.65C268.884 106.65 271.984 107.375 274.484 108.825C276.984 110.225 278.859 112.35 280.109 115.2C281.409 118 282.059 121.525 282.059 125.775V128.925H253.709C253.809 132.075 254.259 134.675 255.059 136.725C255.909 138.725 257.159 140.2 258.809 141.15C260.459 142.05 262.534 142.5 265.034 142.5C266.734 142.5 268.209 142.3 269.459 141.9C270.759 141.45 271.834 140.825 272.684 140.025C273.584 139.225 274.259 138.275 274.709 137.175C275.159 136.075 275.409 134.875 275.459 133.575H281.909C281.859 135.675 281.459 137.625 280.709 139.425C279.959 141.175 278.859 142.675 277.409 143.925C275.959 145.175 274.184 146.15 272.084 146.85C269.984 147.55 267.584 147.9 264.884 147.9ZM253.859 123.975H275.234C275.234 121.775 274.984 119.925 274.484 118.425C273.984 116.925 273.259 115.7 272.309 114.75C271.409 113.8 270.334 113.125 269.084 112.725C267.884 112.275 266.509 112.05 264.959 112.05C262.659 112.05 260.709 112.475 259.109 113.325C257.509 114.175 256.284 115.475 255.434 117.225C254.584 118.975 254.059 121.225 253.859 123.975ZM309.272 160.65C308.072 160.65 307.022 160.55 306.122 160.35C305.272 160.2 304.697 160.1 304.397 160.05V155.25H307.697C308.897 155.25 310.072 155 311.222 154.5C312.372 154 313.447 153.15 314.447 151.95C315.447 150.75 316.297 149.1 316.997 147L301.697 107.55H308.597L316.472 127.875C316.822 128.825 317.222 130 317.672 131.4C318.172 132.75 318.647 134.15 319.097 135.6C319.597 137.05 319.997 138.325 320.297 139.425H320.747C320.947 138.625 321.197 137.725 321.497 136.725C321.797 135.725 322.097 134.7 322.397 133.65C322.747 132.55 323.072 131.525 323.372 130.575C323.722 129.575 323.997 128.7 324.197 127.95L330.872 107.55H337.547L324.197 145.875C323.447 148.025 322.622 150 321.722 151.8C320.822 153.65 319.822 155.225 318.722 156.525C317.622 157.825 316.297 158.825 314.747 159.525C313.197 160.275 311.372 160.65 309.272 160.65ZM359.523 147.9C355.523 147.9 352.148 147.175 349.398 145.725C346.698 144.225 344.623 141.95 343.173 138.9C341.773 135.85 341.073 131.975 341.073 127.275C341.073 122.525 341.773 118.65 343.173 115.65C344.623 112.6 346.698 110.35 349.398 108.9C352.148 107.4 355.523 106.65 359.523 106.65C363.523 106.65 366.873 107.4 369.573 108.9C372.323 110.35 374.398 112.6 375.798 115.65C377.198 118.65 377.898 122.525 377.898 127.275C377.898 131.975 377.198 135.85 375.798 138.9C374.398 141.95 372.323 144.225 369.573 145.725C366.873 147.175 363.523 147.9 359.523 147.9ZM359.523 142.35C362.073 142.35 364.198 141.85 365.898 140.85C367.598 139.85 368.873 138.3 369.723 136.2C370.623 134.05 371.073 131.35 371.073 128.1V126.45C371.073 123.15 370.623 120.45 369.723 118.35C368.873 116.25 367.598 114.7 365.898 113.7C364.198 112.7 362.073 112.2 359.523 112.2C356.973 112.2 354.823 112.7 353.073 113.7C351.373 114.7 350.098 116.25 349.248 118.35C348.398 120.45 347.973 123.15 347.973 126.45V128.1C347.973 131.35 348.398 134.05 349.248 136.2C350.098 138.3 351.373 139.85 353.073 140.85C354.823 141.85 356.973 142.35 359.523 142.35ZM398.322 147.9C394.522 147.9 391.472 146.925 389.172 144.975C386.872 143.025 385.722 139.625 385.722 134.775V107.55H392.322V133.875C392.322 135.525 392.522 136.875 392.922 137.925C393.322 138.975 393.897 139.8 394.647 140.4C395.397 141 396.272 141.425 397.272 141.675C398.322 141.925 399.447 142.05 400.647 142.05C402.547 142.05 404.297 141.6 405.897 140.7C407.497 139.8 408.797 138.5 409.797 136.8C410.847 135.05 411.372 133.025 411.372 130.725V107.55H417.972V147H412.647L412.047 141.075H411.522C410.472 142.675 409.272 143.975 407.922 144.975C406.622 145.975 405.147 146.7 403.497 147.15C401.897 147.65 400.172 147.9 398.322 147.9ZM428.211 147V107.55H433.536L434.136 114.075H434.661C435.061 112.825 435.611 111.65 436.311 110.55C437.011 109.4 437.961 108.475 439.161 107.775C440.361 107.025 441.836 106.65 443.586 106.65C444.336 106.65 445.011 106.725 445.611 106.875C446.261 106.975 446.736 107.1 447.036 107.25V113.325H444.561C442.861 113.325 441.386 113.625 440.136 114.225C438.936 114.775 437.936 115.575 437.136 116.625C436.336 117.675 435.736 118.925 435.336 120.375C434.986 121.825 434.811 123.375 434.811 125.025V147H428.211ZM477.222 147.9C475.772 147.9 474.322 147.725 472.872 147.375C471.422 147.025 470.072 146.45 468.822 145.65C467.572 144.85 466.572 143.75 465.822 142.35C465.072 140.9 464.697 139.1 464.697 136.95C464.697 134.25 465.347 132.025 466.647 130.275C467.947 128.525 469.747 127.175 472.047 126.225C474.397 125.225 477.172 124.55 480.372 124.2C483.572 123.8 487.047 123.6 490.797 123.6V119.1C490.797 117.65 490.547 116.4 490.047 115.35C489.547 114.3 488.647 113.5 487.347 112.95C486.097 112.35 484.297 112.05 481.947 112.05C479.697 112.05 477.897 112.35 476.547 112.95C475.247 113.5 474.322 114.225 473.772 115.125C473.272 116.025 473.022 117.025 473.022 118.125V119.25H466.647C466.597 119 466.572 118.75 466.572 118.5C466.572 118.25 466.572 117.95 466.572 117.6C466.572 115.2 467.222 113.2 468.522 111.6C469.872 109.95 471.747 108.725 474.147 107.925C476.547 107.075 479.297 106.65 482.397 106.65C485.697 106.65 488.447 107.125 490.647 108.075C492.897 109.025 494.572 110.375 495.672 112.125C496.822 113.875 497.397 115.975 497.397 118.425V139.8C497.397 140.75 497.622 141.425 498.072 141.825C498.522 142.175 499.072 142.35 499.722 142.35H502.647V146.7C501.947 147 501.172 147.25 500.322 147.45C499.472 147.7 498.497 147.825 497.397 147.825C496.097 147.825 495.022 147.55 494.172 147C493.322 146.5 492.672 145.8 492.222 144.9C491.772 143.95 491.472 142.9 491.322 141.75H490.797C489.897 143 488.747 144.1 487.347 145.05C485.997 145.95 484.472 146.65 482.772 147.15C481.072 147.65 479.222 147.9 477.222 147.9ZM478.872 142.35C480.472 142.35 481.972 142.1 483.372 141.6C484.822 141.1 486.097 140.4 487.197 139.5C488.297 138.55 489.172 137.425 489.822 136.125C490.472 134.825 490.797 133.4 490.797 131.85V128.55C486.747 128.55 483.297 128.775 480.447 129.225C477.597 129.675 475.397 130.475 473.847 131.625C472.347 132.775 471.597 134.4 471.597 136.5C471.597 137.85 471.897 138.95 472.497 139.8C473.097 140.65 473.947 141.3 475.047 141.75C476.147 142.15 477.422 142.35 478.872 142.35ZM523.192 147.9C519.392 147.9 516.192 147.175 513.592 145.725C511.042 144.225 509.092 141.95 507.742 138.9C506.442 135.8 505.792 131.925 505.792 127.275C505.792 122.625 506.442 118.775 507.742 115.725C509.092 112.675 511.067 110.4 513.667 108.9C516.317 107.4 519.567 106.65 523.417 106.65C526.117 106.65 528.442 107 530.392 107.7C532.392 108.4 534.042 109.425 535.342 110.775C536.642 112.125 537.592 113.75 538.192 115.65C538.842 117.55 539.167 119.725 539.167 122.175H532.492C532.492 119.875 532.167 118 531.517 116.55C530.917 115.05 529.942 113.95 528.592 113.25C527.242 112.5 525.467 112.125 523.267 112.125C521.067 112.125 519.167 112.625 517.567 113.625C515.967 114.575 514.742 116.1 513.892 118.2C513.042 120.3 512.617 123.075 512.617 126.525V128.1C512.617 131.35 513.017 134.05 513.817 136.2C514.667 138.35 515.892 139.925 517.492 140.925C519.092 141.925 521.042 142.425 523.342 142.425C525.592 142.425 527.392 142.025 528.742 141.225C530.142 140.425 531.142 139.275 531.742 137.775C532.392 136.275 532.717 134.475 532.717 132.375H539.167C539.167 134.575 538.842 136.625 538.192 138.525C537.592 140.425 536.642 142.075 535.342 143.475C534.042 144.875 532.392 145.975 530.392 146.775C528.392 147.525 525.992 147.9 523.192 147.9ZM562.083 147.9C558.283 147.9 555.083 147.175 552.483 145.725C549.933 144.225 547.983 141.95 546.633 138.9C545.333 135.8 544.683 131.925 544.683 127.275C544.683 122.625 545.333 118.775 546.633 115.725C547.983 112.675 549.958 110.4 552.558 108.9C555.208 107.4 558.458 106.65 562.308 106.65C565.008 106.65 567.333 107 569.283 107.7C571.283 108.4 572.933 109.425 574.233 110.775C575.533 112.125 576.483 113.75 577.083 115.65C577.733 117.55 578.058 119.725 578.058 122.175H571.383C571.383 119.875 571.058 118 570.408 116.55C569.808 115.05 568.833 113.95 567.483 113.25C566.133 112.5 564.358 112.125 562.158 112.125C559.958 112.125 558.058 112.625 556.458 113.625C554.858 114.575 553.633 116.1 552.783 118.2C551.933 120.3 551.508 123.075 551.508 126.525V128.1C551.508 131.35 551.908 134.05 552.708 136.2C553.558 138.35 554.783 139.925 556.383 140.925C557.983 141.925 559.933 142.425 562.233 142.425C564.483 142.425 566.283 142.025 567.633 141.225C569.033 140.425 570.033 139.275 570.633 137.775C571.283 136.275 571.608 134.475 571.608 132.375H578.058C578.058 134.575 577.733 136.625 577.083 138.525C576.483 140.425 575.533 142.075 574.233 143.475C572.933 144.875 571.283 145.975 569.283 146.775C567.283 147.525 564.883 147.9 562.083 147.9ZM602.175 147.9C598.175 147.9 594.8 147.175 592.05 145.725C589.35 144.225 587.275 141.95 585.825 138.9C584.425 135.85 583.725 131.975 583.725 127.275C583.725 122.525 584.425 118.65 585.825 115.65C587.275 112.6 589.35 110.35 592.05 108.9C594.8 107.4 598.175 106.65 602.175 106.65C606.175 106.65 609.525 107.4 612.225 108.9C614.975 110.35 617.05 112.6 618.45 115.65C619.85 118.65 620.55 122.525 620.55 127.275C620.55 131.975 619.85 135.85 618.45 138.9C617.05 141.95 614.975 144.225 612.225 145.725C609.525 147.175 606.175 147.9 602.175 147.9ZM602.175 142.35C604.725 142.35 606.85 141.85 608.55 140.85C610.25 139.85 611.525 138.3 612.375 136.2C613.275 134.05 613.725 131.35 613.725 128.1V126.45C613.725 123.15 613.275 120.45 612.375 118.35C611.525 116.25 610.25 114.7 608.55 113.7C606.85 112.7 604.725 112.2 602.175 112.2C599.625 112.2 597.475 112.7 595.725 113.7C594.025 114.7 592.75 116.25 591.9 118.35C591.05 120.45 590.625 123.15 590.625 126.45V128.1C590.625 131.35 591.05 134.05 591.9 136.2C592.75 138.3 594.025 139.85 595.725 140.85C597.475 141.85 599.625 142.35 602.175 142.35ZM640.973 147.9C637.173 147.9 634.123 146.925 631.823 144.975C629.523 143.025 628.373 139.625 628.373 134.775V107.55H634.973V133.875C634.973 135.525 635.173 136.875 635.573 137.925C635.973 138.975 636.548 139.8 637.298 140.4C638.048 141 638.923 141.425 639.923 141.675C640.973 141.925 642.098 142.05 643.298 142.05C645.198 142.05 646.948 141.6 648.548 140.7C650.148 139.8 651.448 138.5 652.448 136.8C653.498 135.05 654.023 133.025 654.023 130.725V107.55H660.623V147H655.298L654.698 141.075H654.173C653.123 142.675 651.923 143.975 650.573 144.975C649.273 145.975 647.798 146.7 646.148 147.15C644.548 147.65 642.823 147.9 640.973 147.9ZM670.863 147V107.55H676.188L676.788 113.475H677.313C678.363 111.875 679.538 110.575 680.838 109.575C682.188 108.575 683.663 107.85 685.263 107.4C686.913 106.9 688.663 106.65 690.513 106.65C693.013 106.65 695.188 107.075 697.038 107.925C698.938 108.775 700.413 110.15 701.463 112.05C702.563 113.95 703.113 116.525 703.113 119.775V147H696.513V120.675C696.513 119.025 696.288 117.675 695.838 116.625C695.438 115.575 694.863 114.75 694.113 114.15C693.413 113.55 692.538 113.125 691.488 112.875C690.488 112.625 689.363 112.5 688.113 112.5C686.263 112.5 684.513 112.95 682.863 113.85C681.213 114.75 679.888 116.05 678.888 117.75C677.938 119.45 677.463 121.475 677.463 123.825V147H670.863ZM722.348 147.9C720.298 147.9 718.698 147.525 717.548 146.775C716.398 145.975 715.573 144.95 715.073 143.7C714.573 142.4 714.323 141.025 714.323 139.575V113.1H709.223V107.55H714.473L715.673 96.525H720.923V107.55H728.348V113.1H720.923V138.6C720.923 139.85 721.148 140.8 721.598 141.45C722.048 142.05 722.898 142.35 724.148 142.35H728.348V146.7C727.848 146.95 727.248 147.15 726.548 147.3C725.848 147.45 725.123 147.575 724.373 147.675C723.673 147.825 722.998 147.9 722.348 147.9ZM75.4 230.9C73.35 230.9 71.75 230.525 70.6 229.775C69.45 228.975 68.625 227.95 68.125 226.7C67.625 225.4 67.375 224.025 67.375 222.575V196.1H62.275V190.55H67.525L68.725 179.525H73.975V190.55H81.4V196.1H73.975V221.6C73.975 222.85 74.2 223.8 74.65 224.45C75.1 225.05 75.95 225.35 77.2 225.35H81.4V229.7C80.9 229.95 80.3 230.15 79.6 230.3C78.9 230.45 78.175 230.575 77.425 230.675C76.725 230.825 76.05 230.9 75.4 230.9ZM104.641 230.9C100.641 230.9 97.2656 230.175 94.5156 228.725C91.8156 227.225 89.7406 224.95 88.2906 221.9C86.8906 218.85 86.1906 214.975 86.1906 210.275C86.1906 205.525 86.8906 201.65 88.2906 198.65C89.7406 195.6 91.8156 193.35 94.5156 191.9C97.2656 190.4 100.641 189.65 104.641 189.65C108.641 189.65 111.991 190.4 114.691 191.9C117.441 193.35 119.516 195.6 120.916 198.65C122.316 201.65 123.016 205.525 123.016 210.275C123.016 214.975 122.316 218.85 120.916 221.9C119.516 224.95 117.441 227.225 114.691 228.725C111.991 230.175 108.641 230.9 104.641 230.9ZM104.641 225.35C107.191 225.35 109.316 224.85 111.016 223.85C112.716 222.85 113.991 221.3 114.841 219.2C115.741 217.05 116.191 214.35 116.191 211.1V209.45C116.191 206.15 115.741 203.45 114.841 201.35C113.991 199.25 112.716 197.7 111.016 196.7C109.316 195.7 107.191 195.2 104.641 195.2C102.091 195.2 99.9406 195.7 98.1906 196.7C96.4906 197.7 95.2156 199.25 94.3656 201.35C93.5156 203.45 93.0906 206.15 93.0906 209.45V211.1C93.0906 214.35 93.5156 217.05 94.3656 219.2C95.2156 221.3 96.4906 222.85 98.1906 223.85C99.9406 224.85 102.091 225.35 104.641 225.35ZM144.639 230.9C141.389 230.9 138.589 230.175 136.239 228.725C133.939 227.275 132.139 225.025 130.839 221.975C129.589 218.875 128.964 214.875 128.964 209.975C128.964 205.325 129.614 201.5 130.914 198.5C132.214 195.5 134.014 193.275 136.314 191.825C138.614 190.375 141.289 189.65 144.339 189.65C146.089 189.65 147.714 189.85 149.214 190.25C150.714 190.65 152.039 191.275 153.189 192.125C154.389 192.975 155.439 194.1 156.339 195.5H156.789V175.775H163.389V230H158.064L157.464 224.375H156.939C155.589 226.575 153.839 228.225 151.689 229.325C149.539 230.375 147.189 230.9 144.639 230.9ZM146.214 225.125C148.714 225.125 150.739 224.575 152.289 223.475C153.839 222.375 154.964 220.775 155.664 218.675C156.414 216.575 156.789 213.975 156.789 210.875V209.675C156.789 206.975 156.514 204.7 155.964 202.85C155.414 201 154.664 199.525 153.714 198.425C152.764 197.325 151.664 196.55 150.414 196.1C149.164 195.65 147.839 195.425 146.439 195.425C143.989 195.425 141.989 195.925 140.439 196.925C138.889 197.875 137.739 199.4 136.989 201.5C136.239 203.55 135.864 206.225 135.864 209.525V211.1C135.864 214.5 136.264 217.25 137.064 219.35C137.864 221.4 139.014 222.875 140.514 223.775C142.064 224.675 143.964 225.125 146.214 225.125ZM183.668 230.9C182.218 230.9 180.768 230.725 179.318 230.375C177.868 230.025 176.518 229.45 175.268 228.65C174.018 227.85 173.018 226.75 172.268 225.35C171.518 223.9 171.143 222.1 171.143 219.95C171.143 217.25 171.793 215.025 173.093 213.275C174.393 211.525 176.193 210.175 178.493 209.225C180.843 208.225 183.618 207.55 186.818 207.2C190.018 206.8 193.493 206.6 197.243 206.6V202.1C197.243 200.65 196.993 199.4 196.493 198.35C195.993 197.3 195.093 196.5 193.793 195.95C192.543 195.35 190.743 195.05 188.393 195.05C186.143 195.05 184.343 195.35 182.993 195.95C181.693 196.5 180.768 197.225 180.218 198.125C179.718 199.025 179.468 200.025 179.468 201.125V202.25H173.093C173.043 202 173.018 201.75 173.018 201.5C173.018 201.25 173.018 200.95 173.018 200.6C173.018 198.2 173.668 196.2 174.968 194.6C176.318 192.95 178.193 191.725 180.593 190.925C182.993 190.075 185.743 189.65 188.843 189.65C192.143 189.65 194.893 190.125 197.093 191.075C199.343 192.025 201.018 193.375 202.118 195.125C203.268 196.875 203.843 198.975 203.843 201.425V222.8C203.843 223.75 204.068 224.425 204.518 224.825C204.968 225.175 205.518 225.35 206.168 225.35H209.093V229.7C208.393 230 207.618 230.25 206.768 230.45C205.918 230.7 204.943 230.825 203.843 230.825C202.543 230.825 201.468 230.55 200.618 230C199.768 229.5 199.118 228.8 198.668 227.9C198.218 226.95 197.918 225.9 197.768 224.75H197.243C196.343 226 195.193 227.1 193.793 228.05C192.443 228.95 190.918 229.65 189.218 230.15C187.518 230.65 185.668 230.9 183.668 230.9ZM185.318 225.35C186.918 225.35 188.418 225.1 189.818 224.6C191.268 224.1 192.543 223.4 193.643 222.5C194.743 221.55 195.618 220.425 196.268 219.125C196.918 217.825 197.243 216.4 197.243 214.85V211.55C193.193 211.55 189.743 211.775 186.893 212.225C184.043 212.675 181.843 213.475 180.293 214.625C178.793 215.775 178.043 217.4 178.043 219.5C178.043 220.85 178.343 221.95 178.943 222.8C179.543 223.65 180.393 224.3 181.493 224.75C182.593 225.15 183.868 225.35 185.318 225.35ZM218.012 243.65C216.812 243.65 215.762 243.55 214.862 243.35C214.012 243.2 213.437 243.1 213.137 243.05V238.25H216.437C217.637 238.25 218.812 238 219.962 237.5C221.112 237 222.187 236.15 223.187 234.95C224.187 233.75 225.037 232.1 225.737 230L210.437 190.55H217.337L225.212 210.875C225.562 211.825 225.962 213 226.412 214.4C226.912 215.75 227.387 217.15 227.837 218.6C228.337 220.05 228.737 221.325 229.037 222.425H229.487C229.687 221.625 229.937 220.725 230.237 219.725C230.537 218.725 230.837 217.7 231.137 216.65C231.487 215.55 231.812 214.525 232.112 213.575C232.462 212.575 232.737 211.7 232.937 210.95L239.612 190.55H246.287L232.937 228.875C232.187 231.025 231.362 233 230.462 234.8C229.562 236.65 228.562 238.225 227.462 239.525C226.362 240.825 225.037 241.825 223.487 242.525C221.937 243.275 220.112 243.65 218.012 243.65ZM278.004 230.9C276.554 230.9 275.104 230.725 273.654 230.375C272.204 230.025 270.854 229.45 269.604 228.65C268.354 227.85 267.354 226.75 266.604 225.35C265.854 223.9 265.479 222.1 265.479 219.95C265.479 217.25 266.129 215.025 267.429 213.275C268.729 211.525 270.529 210.175 272.829 209.225C275.179 208.225 277.954 207.55 281.154 207.2C284.354 206.8 287.829 206.6 291.579 206.6V202.1C291.579 200.65 291.329 199.4 290.829 198.35C290.329 197.3 289.429 196.5 288.129 195.95C286.879 195.35 285.079 195.05 282.729 195.05C280.479 195.05 278.679 195.35 277.329 195.95C276.029 196.5 275.104 197.225 274.554 198.125C274.054 199.025 273.804 200.025 273.804 201.125V202.25H267.429C267.379 202 267.354 201.75 267.354 201.5C267.354 201.25 267.354 200.95 267.354 200.6C267.354 198.2 268.004 196.2 269.304 194.6C270.654 192.95 272.529 191.725 274.929 190.925C277.329 190.075 280.079 189.65 283.179 189.65C286.479 189.65 289.229 190.125 291.429 191.075C293.679 192.025 295.354 193.375 296.454 195.125C297.604 196.875 298.179 198.975 298.179 201.425V222.8C298.179 223.75 298.404 224.425 298.854 224.825C299.304 225.175 299.854 225.35 300.504 225.35H303.429V229.7C302.729 230 301.954 230.25 301.104 230.45C300.254 230.7 299.279 230.825 298.179 230.825C296.879 230.825 295.804 230.55 294.954 230C294.104 229.5 293.454 228.8 293.004 227.9C292.554 226.95 292.254 225.9 292.104 224.75H291.579C290.679 226 289.529 227.1 288.129 228.05C286.779 228.95 285.254 229.65 283.554 230.15C281.854 230.65 280.004 230.9 278.004 230.9ZM279.654 225.35C281.254 225.35 282.754 225.1 284.154 224.6C285.604 224.1 286.879 223.4 287.979 222.5C289.079 221.55 289.954 220.425 290.604 219.125C291.254 217.825 291.579 216.4 291.579 214.85V211.55C287.529 211.55 284.079 211.775 281.229 212.225C278.379 212.675 276.179 213.475 274.629 214.625C273.129 215.775 272.379 217.4 272.379 219.5C272.379 220.85 272.679 221.95 273.279 222.8C273.879 223.65 274.729 224.3 275.829 224.75C276.929 225.15 278.204 225.35 279.654 225.35ZM308.973 230V190.55H314.298L314.898 196.475H315.423C316.473 194.875 317.648 193.575 318.948 192.575C320.298 191.575 321.773 190.85 323.373 190.4C325.023 189.9 326.773 189.65 328.623 189.65C331.123 189.65 333.298 190.075 335.148 190.925C337.048 191.775 338.523 193.15 339.573 195.05C340.673 196.95 341.223 199.525 341.223 202.775V230H334.623V203.675C334.623 202.025 334.398 200.675 333.948 199.625C333.548 198.575 332.973 197.75 332.223 197.15C331.523 196.55 330.648 196.125 329.598 195.875C328.598 195.625 327.473 195.5 326.223 195.5C324.373 195.5 322.623 195.95 320.973 196.85C319.323 197.75 317.998 199.05 316.998 200.75C316.048 202.45 315.573 204.475 315.573 206.825V230H308.973ZM364.659 230.9C361.409 230.9 358.609 230.175 356.259 228.725C353.959 227.275 352.159 225.025 350.859 221.975C349.609 218.875 348.984 214.875 348.984 209.975C348.984 205.325 349.634 201.5 350.934 198.5C352.234 195.5 354.034 193.275 356.334 191.825C358.634 190.375 361.309 189.65 364.359 189.65C366.109 189.65 367.734 189.85 369.234 190.25C370.734 190.65 372.059 191.275 373.209 192.125C374.409 192.975 375.459 194.1 376.359 195.5H376.809V175.775H383.409V230H378.084L377.484 224.375H376.959C375.609 226.575 373.859 228.225 371.709 229.325C369.559 230.375 367.209 230.9 364.659 230.9ZM366.234 225.125C368.734 225.125 370.759 224.575 372.309 223.475C373.859 222.375 374.984 220.775 375.684 218.675C376.434 216.575 376.809 213.975 376.809 210.875V209.675C376.809 206.975 376.534 204.7 375.984 202.85C375.434 201 374.684 199.525 373.734 198.425C372.784 197.325 371.684 196.55 370.434 196.1C369.184 195.65 367.859 195.425 366.459 195.425C364.009 195.425 362.009 195.925 360.459 196.925C358.909 197.875 357.759 199.4 357.009 201.5C356.259 203.55 355.884 206.225 355.884 209.525V211.1C355.884 214.5 356.284 217.25 357.084 219.35C357.884 221.4 359.034 222.875 360.534 223.775C362.084 224.675 363.984 225.125 366.234 225.125ZM416.136 243.65C414.236 243.65 412.486 243.25 410.886 242.45C409.286 241.7 408.011 240.6 407.061 239.15C406.111 237.7 405.636 235.975 405.636 233.975C405.636 231.775 406.236 229.95 407.436 228.5C408.686 227.05 410.161 225.975 411.861 225.275C410.611 224.675 409.636 223.85 408.936 222.8C408.236 221.7 407.886 220.5 407.886 219.2C407.886 217.45 408.511 215.975 409.761 214.775C411.061 213.575 412.636 212.775 414.486 212.375C412.786 211.275 411.436 209.875 410.436 208.175C409.486 206.425 409.011 204.5 409.011 202.4C409.011 199.9 409.586 197.7 410.736 195.8C411.936 193.9 413.736 192.4 416.136 191.3C418.586 190.2 421.561 189.65 425.061 189.65C426.661 189.65 428.161 189.775 429.561 190.025C430.961 190.225 432.211 190.575 433.311 191.075C435.061 190.275 436.361 189.25 437.211 188C438.111 186.75 438.661 185.475 438.861 184.175H445.386C445.386 185.675 445.036 187.1 444.336 188.45C443.686 189.75 442.786 190.85 441.636 191.75C440.486 192.6 439.086 193.175 437.436 193.475C438.686 194.675 439.611 196.025 440.211 197.525C440.861 199.025 441.186 200.65 441.186 202.4C441.186 204.9 440.586 207.125 439.386 209.075C438.236 210.975 436.486 212.475 434.136 213.575C431.786 214.675 428.836 215.225 425.286 215.225H419.136C417.786 215.225 416.686 215.5 415.836 216.05C414.986 216.55 414.561 217.375 414.561 218.525C414.561 219.525 414.986 220.35 415.836 221C416.686 221.6 417.786 221.9 419.136 221.9H435.186C438.086 221.9 440.461 222.875 442.311 224.825C444.161 226.725 445.086 229.175 445.086 232.175C445.086 234.325 444.536 236.25 443.436 237.95C442.386 239.7 440.886 241.075 438.936 242.075C437.036 243.125 434.811 243.65 432.261 243.65H416.136ZM418.011 238.625H432.186C433.336 238.625 434.386 238.375 435.336 237.875C436.286 237.425 437.036 236.775 437.586 235.925C438.136 235.075 438.411 234.15 438.411 233.15C438.411 231.45 437.911 230.1 436.911 229.1C435.911 228.1 434.661 227.6 433.161 227.6H418.011C416.411 227.6 415.061 228.15 413.961 229.25C412.861 230.3 412.311 231.6 412.311 233.15C412.311 234.8 412.861 236.125 413.961 237.125C415.061 238.125 416.411 238.625 418.011 238.625ZM425.136 210.275C428.336 210.275 430.711 209.575 432.261 208.175C433.811 206.775 434.586 204.85 434.586 202.4C434.586 200 433.811 198.1 432.261 196.7C430.711 195.3 428.336 194.6 425.136 194.6C421.936 194.6 419.536 195.3 417.936 196.7C416.386 198.1 415.611 200 415.611 202.4C415.611 203.95 415.961 205.325 416.661 206.525C417.361 207.725 418.411 208.65 419.811 209.3C421.211 209.95 422.986 210.275 425.136 210.275ZM466.886 230.9C462.986 230.9 459.686 230.175 456.986 228.725C454.336 227.225 452.311 224.95 450.911 221.9C449.561 218.85 448.886 214.975 448.886 210.275C448.886 205.525 449.561 201.65 450.911 198.65C452.311 195.6 454.361 193.35 457.061 191.9C459.761 190.4 463.136 189.65 467.186 189.65C470.886 189.65 473.986 190.375 476.486 191.825C478.986 193.225 480.861 195.35 482.111 198.2C483.411 201 484.061 204.525 484.061 208.775V211.925H455.711C455.811 215.075 456.261 217.675 457.061 219.725C457.911 221.725 459.161 223.2 460.811 224.15C462.461 225.05 464.536 225.5 467.036 225.5C468.736 225.5 470.211 225.3 471.461 224.9C472.761 224.45 473.836 223.825 474.686 223.025C475.586 222.225 476.261 221.275 476.711 220.175C477.161 219.075 477.411 217.875 477.461 216.575H483.911C483.861 218.675 483.461 220.625 482.711 222.425C481.961 224.175 480.861 225.675 479.411 226.925C477.961 228.175 476.186 229.15 474.086 229.85C471.986 230.55 469.586 230.9 466.886 230.9ZM455.861 206.975H477.236C477.236 204.775 476.986 202.925 476.486 201.425C475.986 199.925 475.261 198.7 474.311 197.75C473.411 196.8 472.336 196.125 471.086 195.725C469.886 195.275 468.511 195.05 466.961 195.05C464.661 195.05 462.711 195.475 461.111 196.325C459.511 197.175 458.286 198.475 457.436 200.225C456.586 201.975 456.061 204.225 455.861 206.975ZM501.45 230.9C499.4 230.9 497.8 230.525 496.65 229.775C495.5 228.975 494.675 227.95 494.175 226.7C493.675 225.4 493.425 224.025 493.425 222.575V196.1H488.325V190.55H493.575L494.775 179.525H500.025V190.55H507.45V196.1H500.025V221.6C500.025 222.85 500.25 223.8 500.7 224.45C501.15 225.05 502 225.35 503.25 225.35H507.45V229.7C506.95 229.95 506.35 230.15 505.65 230.3C504.95 230.45 504.225 230.575 503.475 230.675C502.775 230.825 502.1 230.9 501.45 230.9ZM543.964 230.9C541.264 230.9 538.889 230.625 536.839 230.075C534.789 229.525 533.089 228.725 531.739 227.675C530.389 226.625 529.364 225.375 528.664 223.925C527.964 222.475 527.614 220.825 527.614 218.975C527.614 218.725 527.614 218.5 527.614 218.3C527.614 218.05 527.639 217.85 527.689 217.7H534.214C534.164 217.9 534.139 218.075 534.139 218.225C534.139 218.375 534.139 218.525 534.139 218.675C534.189 220.425 534.639 221.8 535.489 222.8C536.389 223.8 537.614 224.5 539.164 224.9C540.714 225.3 542.439 225.5 544.339 225.5C545.989 225.5 547.514 225.3 548.914 224.9C550.314 224.45 551.414 223.8 552.214 222.95C553.064 222.05 553.489 220.925 553.489 219.575C553.489 217.925 552.939 216.675 551.839 215.825C550.789 214.925 549.389 214.225 547.639 213.725C545.889 213.225 544.064 212.7 542.164 212.15C540.564 211.7 538.964 211.2 537.364 210.65C535.764 210.1 534.314 209.425 533.014 208.625C531.764 207.825 530.739 206.8 529.939 205.55C529.189 204.25 528.814 202.625 528.814 200.675C528.814 198.925 529.164 197.375 529.864 196.025C530.614 194.675 531.664 193.525 533.014 192.575C534.364 191.625 535.989 190.925 537.889 190.475C539.839 189.975 541.989 189.725 544.339 189.725C546.839 189.725 549.014 190 550.864 190.55C552.764 191.1 554.339 191.875 555.589 192.875C556.839 193.875 557.764 195.025 558.364 196.325C558.964 197.575 559.264 198.925 559.264 200.375C559.264 200.675 559.264 200.975 559.264 201.275C559.264 201.525 559.239 201.725 559.189 201.875H552.739V201.05C552.739 200.05 552.464 199.1 551.914 198.2C551.414 197.25 550.514 196.5 549.214 195.95C547.964 195.35 546.214 195.05 543.964 195.05C542.514 195.05 541.264 195.175 540.214 195.425C539.164 195.625 538.289 195.975 537.589 196.475C536.889 196.925 536.364 197.475 536.014 198.125C535.664 198.725 535.489 199.425 535.489 200.225C535.489 201.525 535.914 202.525 536.764 203.225C537.614 203.925 538.739 204.5 540.139 204.95C541.589 205.4 543.139 205.9 544.789 206.45C546.539 206.95 548.314 207.475 550.114 208.025C551.964 208.525 553.639 209.175 555.139 209.975C556.689 210.775 557.914 211.875 558.814 213.275C559.764 214.625 560.239 216.425 560.239 218.675C560.239 220.775 559.839 222.6 559.039 224.15C558.239 225.7 557.089 226.975 555.589 227.975C554.139 228.975 552.414 229.7 550.414 230.15C548.464 230.65 546.314 230.9 543.964 230.9ZM577.622 230.9C575.572 230.9 573.972 230.525 572.822 229.775C571.672 228.975 570.847 227.95 570.347 226.7C569.847 225.4 569.597 224.025 569.597 222.575V196.1H564.497V190.55H569.747L570.947 179.525H576.197V190.55H583.622V196.1H576.197V221.6C576.197 222.85 576.422 223.8 576.872 224.45C577.322 225.05 578.172 225.35 579.422 225.35H583.622V229.7C583.122 229.95 582.522 230.15 581.822 230.3C581.122 230.45 580.397 230.575 579.647 230.675C578.947 230.825 578.272 230.9 577.622 230.9ZM600.562 230.9C599.112 230.9 597.662 230.725 596.212 230.375C594.762 230.025 593.412 229.45 592.162 228.65C590.912 227.85 589.912 226.75 589.162 225.35C588.412 223.9 588.037 222.1 588.037 219.95C588.037 217.25 588.687 215.025 589.987 213.275C591.287 211.525 593.087 210.175 595.387 209.225C597.737 208.225 600.512 207.55 603.712 207.2C606.912 206.8 610.387 206.6 614.137 206.6V202.1C614.137 200.65 613.887 199.4 613.387 198.35C612.887 197.3 611.987 196.5 610.687 195.95C609.437 195.35 607.637 195.05 605.287 195.05C603.037 195.05 601.237 195.35 599.887 195.95C598.587 196.5 597.662 197.225 597.112 198.125C596.612 199.025 596.362 200.025 596.362 201.125V202.25H589.987C589.937 202 589.912 201.75 589.912 201.5C589.912 201.25 589.912 200.95 589.912 200.6C589.912 198.2 590.562 196.2 591.862 194.6C593.212 192.95 595.087 191.725 597.487 190.925C599.887 190.075 602.637 189.65 605.737 189.65C609.037 189.65 611.787 190.125 613.987 191.075C616.237 192.025 617.912 193.375 619.012 195.125C620.162 196.875 620.737 198.975 620.737 201.425V222.8C620.737 223.75 620.962 224.425 621.412 224.825C621.862 225.175 622.412 225.35 623.062 225.35H625.987V229.7C625.287 230 624.512 230.25 623.662 230.45C622.812 230.7 621.837 230.825 620.737 230.825C619.437 230.825 618.362 230.55 617.512 230C616.662 229.5 616.012 228.8 615.562 227.9C615.112 226.95 614.812 225.9 614.662 224.75H614.137C613.237 226 612.087 227.1 610.687 228.05C609.337 228.95 607.812 229.65 606.112 230.15C604.412 230.65 602.562 230.9 600.562 230.9ZM602.212 225.35C603.812 225.35 605.312 225.1 606.712 224.6C608.162 224.1 609.437 223.4 610.537 222.5C611.637 221.55 612.512 220.425 613.162 219.125C613.812 217.825 614.137 216.4 614.137 214.85V211.55C610.087 211.55 606.637 211.775 603.787 212.225C600.937 212.675 598.737 213.475 597.187 214.625C595.687 215.775 594.937 217.4 594.937 219.5C594.937 220.85 595.237 221.95 595.837 222.8C596.437 223.65 597.287 224.3 598.387 224.75C599.487 225.15 600.762 225.35 602.212 225.35ZM631.531 230V190.55H636.856L637.456 197.075H637.981C638.381 195.825 638.931 194.65 639.631 193.55C640.331 192.4 641.281 191.475 642.481 190.775C643.681 190.025 645.156 189.65 646.906 189.65C647.656 189.65 648.331 189.725 648.931 189.875C649.581 189.975 650.056 190.1 650.356 190.25V196.325H647.881C646.181 196.325 644.706 196.625 643.456 197.225C642.256 197.775 641.256 198.575 640.456 199.625C639.656 200.675 639.056 201.925 638.656 203.375C638.306 204.825 638.131 206.375 638.131 208.025V230H631.531ZM665.659 230.9C663.609 230.9 662.009 230.525 660.859 229.775C659.709 228.975 658.884 227.95 658.384 226.7C657.884 225.4 657.634 224.025 657.634 222.575V196.1H652.534V190.55H657.784L658.984 179.525H664.234V190.55H671.659V196.1H664.234V221.6C664.234 222.85 664.459 223.8 664.909 224.45C665.359 225.05 666.209 225.35 667.459 225.35H671.659V229.7C671.159 229.95 670.559 230.15 669.859 230.3C669.159 230.45 668.434 230.575 667.684 230.675C666.984 230.825 666.309 230.9 665.659 230.9ZM694.449 230.9C690.549 230.9 687.249 230.175 684.549 228.725C681.899 227.225 679.874 224.95 678.474 221.9C677.124 218.85 676.449 214.975 676.449 210.275C676.449 205.525 677.124 201.65 678.474 198.65C679.874 195.6 681.924 193.35 684.624 191.9C687.324 190.4 690.699 189.65 694.749 189.65C698.449 189.65 701.549 190.375 704.049 191.825C706.549 193.225 708.424 195.35 709.674 198.2C710.974 201 711.624 204.525 711.624 208.775V211.925H683.274C683.374 215.075 683.824 217.675 684.624 219.725C685.474 221.725 686.724 223.2 688.374 224.15C690.024 225.05 692.099 225.5 694.599 225.5C696.299 225.5 697.774 225.3 699.024 224.9C700.324 224.45 701.399 223.825 702.249 223.025C703.149 222.225 703.824 221.275 704.274 220.175C704.724 219.075 704.974 217.875 705.024 216.575H711.474C711.424 218.675 711.024 220.625 710.274 222.425C709.524 224.175 708.424 225.675 706.974 226.925C705.524 228.175 703.749 229.15 701.649 229.85C699.549 230.55 697.149 230.9 694.449 230.9ZM683.424 206.975H704.799C704.799 204.775 704.549 202.925 704.049 201.425C703.549 199.925 702.824 198.7 701.874 197.75C700.974 196.8 699.899 196.125 698.649 195.725C697.449 195.275 696.074 195.05 694.524 195.05C692.224 195.05 690.274 195.475 688.674 196.325C687.074 197.175 685.849 198.475 684.999 200.225C684.149 201.975 683.624 204.225 683.424 206.975ZM733.213 230.9C729.963 230.9 727.163 230.175 724.813 228.725C722.513 227.275 720.713 225.025 719.413 221.975C718.163 218.875 717.538 214.875 717.538 209.975C717.538 205.325 718.188 201.5 719.488 198.5C720.788 195.5 722.588 193.275 724.888 191.825C727.188 190.375 729.863 189.65 732.913 189.65C734.663 189.65 736.288 189.85 737.788 190.25C739.288 190.65 740.613 191.275 741.763 192.125C742.963 192.975 744.013 194.1 744.913 195.5H745.363V175.775H751.963V230H746.638L746.038 224.375H745.513C744.163 226.575 742.413 228.225 740.263 229.325C738.113 230.375 735.763 230.9 733.213 230.9ZM734.788 225.125C737.288 225.125 739.313 224.575 740.863 223.475C742.413 222.375 743.538 220.775 744.238 218.675C744.988 216.575 745.363 213.975 745.363 210.875V209.675C745.363 206.975 745.088 204.7 744.538 202.85C743.988 201 743.238 199.525 742.288 198.425C741.338 197.325 740.238 196.55 738.988 196.1C737.738 195.65 736.413 195.425 735.013 195.425C732.563 195.425 730.563 195.925 729.013 196.925C727.463 197.875 726.313 199.4 725.563 201.5C724.813 203.55 724.438 206.225 724.438 209.525V211.1C724.438 214.5 724.838 217.25 725.638 219.35C726.438 221.4 727.588 222.875 729.088 223.775C730.638 224.675 732.538 225.125 734.788 225.125ZM765.267 216.425L763.467 178.55H771.342L769.542 216.425H765.267ZM763.767 230V222.125H771.117V230H763.767Z" fill="white"/>
<path d="M62.892 297V281.908H70.834C71.8607 281.908 72.7113 282.099 73.386 282.48C74.0753 282.847 74.5887 283.367 74.926 284.042C75.2633 284.702 75.432 285.465 75.432 286.33C75.432 287.371 75.1973 288.266 74.728 289.014C74.2587 289.762 73.6133 290.297 72.792 290.62L75.96 297H73.672L70.724 290.994H64.982V297H62.892ZM64.982 289.212H70.636C71.472 289.212 72.1247 288.955 72.594 288.442C73.078 287.929 73.32 287.225 73.32 286.33C73.32 285.773 73.2173 285.303 73.012 284.922C72.8067 284.541 72.506 284.247 72.11 284.042C71.714 283.822 71.2227 283.712 70.636 283.712H64.982V289.212ZM82.9075 297.264C81.7635 297.264 80.7955 297.051 80.0035 296.626C79.2262 296.186 78.6322 295.519 78.2215 294.624C77.8255 293.729 77.6275 292.593 77.6275 291.214C77.6275 289.821 77.8255 288.684 78.2215 287.804C78.6322 286.909 79.2335 286.249 80.0255 285.824C80.8175 285.384 81.8075 285.164 82.9955 285.164C84.0809 285.164 84.9902 285.377 85.7235 285.802C86.4569 286.213 87.0069 286.836 87.3735 287.672C87.7549 288.493 87.9455 289.527 87.9455 290.774V291.698H79.6295C79.6589 292.622 79.7909 293.385 80.0255 293.986C80.2749 294.573 80.6415 295.005 81.1255 295.284C81.6095 295.548 82.2182 295.68 82.9515 295.68C83.4502 295.68 83.8829 295.621 84.2495 295.504C84.6309 295.372 84.9462 295.189 85.1955 294.954C85.4595 294.719 85.6575 294.441 85.7895 294.118C85.9215 293.795 85.9949 293.443 86.0095 293.062H87.9015C87.8869 293.678 87.7695 294.25 87.5495 294.778C87.3295 295.291 87.0069 295.731 86.5815 296.098C86.1562 296.465 85.6355 296.751 85.0195 296.956C84.4035 297.161 83.6995 297.264 82.9075 297.264ZM79.6735 290.246H85.9435C85.9435 289.601 85.8702 289.058 85.7235 288.618C85.5769 288.178 85.3642 287.819 85.0855 287.54C84.8215 287.261 84.5062 287.063 84.1395 286.946C83.7875 286.814 83.3842 286.748 82.9295 286.748C82.2549 286.748 81.6829 286.873 81.2135 287.122C80.7442 287.371 80.3849 287.753 80.1355 288.266C79.8862 288.779 79.7322 289.439 79.6735 290.246ZM93.2443 297.264C92.8189 297.264 92.3936 297.213 91.9683 297.11C91.5429 297.007 91.1469 296.839 90.7803 296.604C90.4136 296.369 90.1203 296.047 89.9003 295.636C89.6803 295.211 89.5703 294.683 89.5703 294.052C89.5703 293.26 89.7609 292.607 90.1423 292.094C90.5236 291.581 91.0516 291.185 91.7263 290.906C92.4156 290.613 93.2296 290.415 94.1683 290.312C95.1069 290.195 96.1263 290.136 97.2263 290.136V288.816C97.2263 288.391 97.1529 288.024 97.0063 287.716C96.8596 287.408 96.5956 287.173 96.2143 287.012C95.8476 286.836 95.3196 286.748 94.6303 286.748C93.9703 286.748 93.4423 286.836 93.0463 287.012C92.6649 287.173 92.3936 287.386 92.2323 287.65C92.0856 287.914 92.0123 288.207 92.0123 288.53V288.86H90.1423C90.1276 288.787 90.1203 288.713 90.1203 288.64C90.1203 288.567 90.1203 288.479 90.1203 288.376C90.1203 287.672 90.3109 287.085 90.6923 286.616C91.0883 286.132 91.6383 285.773 92.3423 285.538C93.0463 285.289 93.8529 285.164 94.7623 285.164C95.7303 285.164 96.5369 285.303 97.1823 285.582C97.8423 285.861 98.3336 286.257 98.6563 286.77C98.9936 287.283 99.1623 287.899 99.1623 288.618V294.888C99.1623 295.167 99.2283 295.365 99.3603 295.482C99.4923 295.585 99.6536 295.636 99.8443 295.636H100.702V296.912C100.497 297 100.27 297.073 100.02 297.132C99.7709 297.205 99.4849 297.242 99.1623 297.242C98.7809 297.242 98.4656 297.161 98.2163 297C97.9669 296.853 97.7763 296.648 97.6443 296.384C97.5123 296.105 97.4243 295.797 97.3803 295.46H97.2263C96.9623 295.827 96.6249 296.149 96.2143 296.428C95.8183 296.692 95.3709 296.897 94.8723 297.044C94.3736 297.191 93.8309 297.264 93.2443 297.264ZM93.7283 295.636C94.1976 295.636 94.6376 295.563 95.0483 295.416C95.4736 295.269 95.8476 295.064 96.1703 294.8C96.4929 294.521 96.7496 294.191 96.9403 293.81C97.1309 293.429 97.2263 293.011 97.2263 292.556V291.588C96.0383 291.588 95.0263 291.654 94.1903 291.786C93.3543 291.918 92.7089 292.153 92.2543 292.49C91.8143 292.827 91.5943 293.304 91.5943 293.92C91.5943 294.316 91.6823 294.639 91.8583 294.888C92.0343 295.137 92.2836 295.328 92.6063 295.46C92.9289 295.577 93.3029 295.636 93.7283 295.636ZM106.267 297.264C105.313 297.264 104.492 297.051 103.803 296.626C103.128 296.201 102.6 295.541 102.219 294.646C101.852 293.737 101.669 292.563 101.669 291.126C101.669 289.762 101.859 288.64 102.241 287.76C102.622 286.88 103.15 286.227 103.825 285.802C104.499 285.377 105.284 285.164 106.179 285.164C106.692 285.164 107.169 285.223 107.609 285.34C108.049 285.457 108.437 285.641 108.775 285.89C109.127 286.139 109.435 286.469 109.699 286.88H109.831V281.094H111.767V297H110.205L110.029 295.35H109.875C109.479 295.995 108.965 296.479 108.335 296.802C107.704 297.11 107.015 297.264 106.267 297.264ZM106.729 295.57C107.462 295.57 108.056 295.409 108.511 295.086C108.965 294.763 109.295 294.294 109.501 293.678C109.721 293.062 109.831 292.299 109.831 291.39V291.038C109.831 290.246 109.75 289.579 109.589 289.036C109.427 288.493 109.207 288.061 108.929 287.738C108.65 287.415 108.327 287.188 107.961 287.056C107.594 286.924 107.205 286.858 106.795 286.858C106.076 286.858 105.489 287.005 105.035 287.298C104.58 287.577 104.243 288.024 104.023 288.64C103.803 289.241 103.693 290.026 103.693 290.994V291.456C103.693 292.453 103.81 293.26 104.045 293.876C104.279 294.477 104.617 294.91 105.057 295.174C105.511 295.438 106.069 295.57 106.729 295.57ZM115.801 301.004C115.449 301.004 115.141 300.975 114.877 300.916C114.628 300.872 114.459 300.843 114.371 300.828V299.42H115.339C115.691 299.42 116.036 299.347 116.373 299.2C116.71 299.053 117.026 298.804 117.319 298.452C117.612 298.1 117.862 297.616 118.067 297L113.579 285.428H115.603L117.913 291.39C118.016 291.669 118.133 292.013 118.265 292.424C118.412 292.82 118.551 293.231 118.683 293.656C118.83 294.081 118.947 294.455 119.035 294.778H119.167C119.226 294.543 119.299 294.279 119.387 293.986C119.475 293.693 119.563 293.392 119.651 293.084C119.754 292.761 119.849 292.461 119.937 292.182C120.04 291.889 120.12 291.632 120.179 291.412L122.137 285.428H124.095L120.179 296.67C119.959 297.301 119.717 297.88 119.453 298.408C119.189 298.951 118.896 299.413 118.573 299.794C118.25 300.175 117.862 300.469 117.407 300.674C116.952 300.894 116.417 301.004 115.801 301.004ZM133.201 297.264C132.599 297.264 132.13 297.154 131.793 296.934C131.455 296.699 131.213 296.399 131.067 296.032C130.92 295.651 130.847 295.247 130.847 294.822V287.056H129.351V285.428H130.891L131.243 282.194H132.783V285.428H134.961V287.056H132.783V294.536C132.783 294.903 132.849 295.181 132.981 295.372C133.113 295.548 133.362 295.636 133.729 295.636H134.961V296.912C134.814 296.985 134.638 297.044 134.433 297.088C134.227 297.132 134.015 297.169 133.795 297.198C133.589 297.242 133.391 297.264 133.201 297.264ZM141.778 297.264C140.604 297.264 139.614 297.051 138.808 296.626C138.016 296.186 137.407 295.519 136.982 294.624C136.571 293.729 136.366 292.593 136.366 291.214C136.366 289.821 136.571 288.684 136.982 287.804C137.407 286.909 138.016 286.249 138.808 285.824C139.614 285.384 140.604 285.164 141.778 285.164C142.951 285.164 143.934 285.384 144.726 285.824C145.532 286.249 146.141 286.909 146.552 287.804C146.962 288.684 147.168 289.821 147.168 291.214C147.168 292.593 146.962 293.729 146.552 294.624C146.141 295.519 145.532 296.186 144.726 296.626C143.934 297.051 142.951 297.264 141.778 297.264ZM141.778 295.636C142.526 295.636 143.149 295.489 143.648 295.196C144.146 294.903 144.52 294.448 144.77 293.832C145.034 293.201 145.166 292.409 145.166 291.456V290.972C145.166 290.004 145.034 289.212 144.77 288.596C144.52 287.98 144.146 287.525 143.648 287.232C143.149 286.939 142.526 286.792 141.778 286.792C141.03 286.792 140.399 286.939 139.886 287.232C139.387 287.525 139.013 287.98 138.764 288.596C138.514 289.212 138.39 290.004 138.39 290.972V291.456C138.39 292.409 138.514 293.201 138.764 293.832C139.013 294.448 139.387 294.903 139.886 295.196C140.399 295.489 141.03 295.636 141.778 295.636ZM156.876 297.264C156.275 297.264 155.806 297.154 155.468 296.934C155.131 296.699 154.889 296.399 154.742 296.032C154.596 295.651 154.522 295.247 154.522 294.822V287.056H153.026V285.428H154.566L154.918 282.194H156.458V285.428H158.636V287.056H156.458V294.536C156.458 294.903 156.524 295.181 156.656 295.372C156.788 295.548 157.038 295.636 157.404 295.636H158.636V296.912C158.49 296.985 158.314 297.044 158.108 297.088C157.903 297.132 157.69 297.169 157.47 297.198C157.265 297.242 157.067 297.264 156.876 297.264ZM160.702 297V285.428H162.264L162.44 287.342H162.594C162.711 286.975 162.872 286.631 163.078 286.308C163.283 285.971 163.562 285.699 163.914 285.494C164.266 285.274 164.698 285.164 165.212 285.164C165.432 285.164 165.63 285.186 165.806 285.23C165.996 285.259 166.136 285.296 166.224 285.34V287.122H165.498C164.999 287.122 164.566 287.21 164.2 287.386C163.848 287.547 163.554 287.782 163.32 288.09C163.085 288.398 162.909 288.765 162.792 289.19C162.689 289.615 162.638 290.07 162.638 290.554V297H160.702ZM168.996 301.004C168.644 301.004 168.336 300.975 168.072 300.916C167.823 300.872 167.654 300.843 167.566 300.828V299.42H168.534C168.886 299.42 169.231 299.347 169.568 299.2C169.906 299.053 170.221 298.804 170.514 298.452C170.808 298.1 171.057 297.616 171.262 297L166.774 285.428H168.798L171.108 291.39C171.211 291.669 171.328 292.013 171.46 292.424C171.607 292.82 171.746 293.231 171.878 293.656C172.025 294.081 172.142 294.455 172.23 294.778H172.362C172.421 294.543 172.494 294.279 172.582 293.986C172.67 293.693 172.758 293.392 172.846 293.084C172.949 292.761 173.044 292.461 173.132 292.182C173.235 291.889 173.316 291.632 173.374 291.412L175.332 285.428H177.29L173.374 296.67C173.154 297.301 172.912 297.88 172.648 298.408C172.384 298.951 172.091 299.413 171.768 299.794C171.446 300.175 171.057 300.469 170.602 300.674C170.148 300.894 169.612 301.004 168.996 301.004ZM184.064 297V281.908H186.154V289.894L193.832 281.908H196.428L190.686 287.936L196.626 297H194.14L189.234 289.432L186.154 292.336V297H184.064ZM198.256 297V281.094H200.192V286.88H200.346C200.64 286.484 200.97 286.161 201.336 285.912C201.703 285.663 202.106 285.479 202.546 285.362C203.001 285.23 203.492 285.164 204.02 285.164C204.754 285.164 205.392 285.289 205.934 285.538C206.492 285.787 206.924 286.191 207.232 286.748C207.555 287.305 207.716 288.061 207.716 289.014V297H205.78V289.278C205.78 288.794 205.714 288.398 205.582 288.09C205.465 287.782 205.296 287.54 205.076 287.364C204.871 287.188 204.614 287.063 204.306 286.99C204.013 286.917 203.683 286.88 203.316 286.88C202.774 286.88 202.26 287.012 201.776 287.276C201.292 287.525 200.904 287.899 200.61 288.398C200.332 288.882 200.192 289.483 200.192 290.202V297H198.256ZM214.239 297.264C213.124 297.264 212.229 296.978 211.555 296.406C210.88 295.834 210.543 294.837 210.543 293.414V285.428H212.479V293.15C212.479 293.634 212.537 294.03 212.655 294.338C212.772 294.646 212.941 294.888 213.161 295.064C213.381 295.24 213.637 295.365 213.931 295.438C214.239 295.511 214.569 295.548 214.921 295.548C215.478 295.548 215.991 295.416 216.461 295.152C216.93 294.888 217.311 294.507 217.605 294.008C217.913 293.495 218.067 292.901 218.067 292.226V285.428H220.003V297H218.441L218.265 295.262H218.111C217.803 295.731 217.451 296.113 217.055 296.406C216.673 296.699 216.241 296.912 215.757 297.044C215.287 297.191 214.781 297.264 214.239 297.264ZM223.006 297V281.094H224.942V297H223.006ZM230.852 297.264C230.426 297.264 230.001 297.213 229.576 297.11C229.15 297.007 228.754 296.839 228.388 296.604C228.021 296.369 227.728 296.047 227.508 295.636C227.288 295.211 227.178 294.683 227.178 294.052C227.178 293.26 227.368 292.607 227.75 292.094C228.131 291.581 228.659 291.185 229.334 290.906C230.023 290.613 230.837 290.415 231.776 290.312C232.714 290.195 233.734 290.136 234.834 290.136V288.816C234.834 288.391 234.76 288.024 234.614 287.716C234.467 287.408 234.203 287.173 233.822 287.012C233.455 286.836 232.927 286.748 232.238 286.748C231.578 286.748 231.05 286.836 230.654 287.012C230.272 287.173 230.001 287.386 229.84 287.65C229.693 287.914 229.62 288.207 229.62 288.53V288.86H227.75C227.735 288.787 227.728 288.713 227.728 288.64C227.728 288.567 227.728 288.479 227.728 288.376C227.728 287.672 227.918 287.085 228.3 286.616C228.696 286.132 229.246 285.773 229.95 285.538C230.654 285.289 231.46 285.164 232.37 285.164C233.338 285.164 234.144 285.303 234.79 285.582C235.45 285.861 235.941 286.257 236.264 286.77C236.601 287.283 236.77 287.899 236.77 288.618V294.888C236.77 295.167 236.836 295.365 236.968 295.482C237.1 295.585 237.261 295.636 237.452 295.636H238.31V296.912C238.104 297 237.877 297.073 237.628 297.132C237.378 297.205 237.092 297.242 236.77 297.242C236.388 297.242 236.073 297.161 235.824 297C235.574 296.853 235.384 296.648 235.252 296.384C235.12 296.105 235.032 295.797 234.988 295.46H234.834C234.57 295.827 234.232 296.149 233.822 296.428C233.426 296.692 232.978 296.897 232.48 297.044C231.981 297.191 231.438 297.264 230.852 297.264ZM231.336 295.636C231.805 295.636 232.245 295.563 232.656 295.416C233.081 295.269 233.455 295.064 233.778 294.8C234.1 294.521 234.357 294.191 234.548 293.81C234.738 293.429 234.834 293.011 234.834 292.556V291.588C233.646 291.588 232.634 291.654 231.798 291.786C230.962 291.918 230.316 292.153 229.862 292.49C229.422 292.827 229.202 293.304 229.202 293.92C229.202 294.316 229.29 294.639 229.466 294.888C229.642 295.137 229.891 295.328 230.214 295.46C230.536 295.577 230.91 295.636 231.336 295.636ZM250.034 297.264C249.256 297.264 248.56 297.11 247.944 296.802C247.328 296.479 246.822 295.995 246.426 295.35H246.272L246.074 297H244.534V281.094H246.47V286.88H246.602C246.866 286.469 247.174 286.139 247.526 285.89C247.878 285.641 248.274 285.457 248.714 285.34C249.154 285.223 249.623 285.164 250.122 285.164C251.016 285.164 251.801 285.377 252.476 285.802C253.15 286.227 253.671 286.88 254.038 287.76C254.419 288.64 254.61 289.762 254.61 291.126C254.61 292.563 254.426 293.737 254.06 294.646C253.693 295.541 253.172 296.201 252.498 296.626C251.823 297.051 251.002 297.264 250.034 297.264ZM249.572 295.57C250.232 295.57 250.782 295.438 251.222 295.174C251.676 294.91 252.021 294.477 252.256 293.876C252.49 293.26 252.608 292.453 252.608 291.456V290.994C252.608 290.026 252.498 289.241 252.278 288.64C252.058 288.024 251.72 287.577 251.266 287.298C250.811 287.005 250.224 286.858 249.506 286.858C249.095 286.858 248.706 286.924 248.34 287.056C247.973 287.188 247.643 287.415 247.35 287.738C247.071 288.061 246.851 288.493 246.69 289.036C246.543 289.579 246.47 290.246 246.47 291.038V291.39C246.47 292.299 246.572 293.062 246.778 293.678C246.998 294.294 247.335 294.763 247.79 295.086C248.259 295.409 248.853 295.57 249.572 295.57ZM259.92 297.264C259.495 297.264 259.069 297.213 258.644 297.11C258.219 297.007 257.823 296.839 257.456 296.604C257.089 296.369 256.796 296.047 256.576 295.636C256.356 295.211 256.246 294.683 256.246 294.052C256.246 293.26 256.437 292.607 256.818 292.094C257.199 291.581 257.727 291.185 258.402 290.906C259.091 290.613 259.905 290.415 260.844 290.312C261.783 290.195 262.802 290.136 263.902 290.136V288.816C263.902 288.391 263.829 288.024 263.682 287.716C263.535 287.408 263.271 287.173 262.89 287.012C262.523 286.836 261.995 286.748 261.306 286.748C260.646 286.748 260.118 286.836 259.722 287.012C259.341 287.173 259.069 287.386 258.908 287.65C258.761 287.914 258.688 288.207 258.688 288.53V288.86H256.818C256.803 288.787 256.796 288.713 256.796 288.64C256.796 288.567 256.796 288.479 256.796 288.376C256.796 287.672 256.987 287.085 257.368 286.616C257.764 286.132 258.314 285.773 259.018 285.538C259.722 285.289 260.529 285.164 261.438 285.164C262.406 285.164 263.213 285.303 263.858 285.582C264.518 285.861 265.009 286.257 265.332 286.77C265.669 287.283 265.838 287.899 265.838 288.618V294.888C265.838 295.167 265.904 295.365 266.036 295.482C266.168 295.585 266.329 295.636 266.52 295.636H267.378V296.912C267.173 297 266.945 297.073 266.696 297.132C266.447 297.205 266.161 297.242 265.838 297.242C265.457 297.242 265.141 297.161 264.892 297C264.643 296.853 264.452 296.648 264.32 296.384C264.188 296.105 264.1 295.797 264.056 295.46H263.902C263.638 295.827 263.301 296.149 262.89 296.428C262.494 296.692 262.047 296.897 261.548 297.044C261.049 297.191 260.507 297.264 259.92 297.264ZM260.404 295.636C260.873 295.636 261.313 295.563 261.724 295.416C262.149 295.269 262.523 295.064 262.846 294.8C263.169 294.521 263.425 294.191 263.616 293.81C263.807 293.429 263.902 293.011 263.902 292.556V291.588C262.714 291.588 261.702 291.654 260.866 291.786C260.03 291.918 259.385 292.153 258.93 292.49C258.49 292.827 258.27 293.304 258.27 293.92C258.27 294.316 258.358 294.639 258.534 294.888C258.71 295.137 258.959 295.328 259.282 295.46C259.605 295.577 259.979 295.636 260.404 295.636ZM268.168 297V295.966L274.614 287.056H268.63V285.428H277.386V286.44L270.918 295.372H277.738V297H268.168ZM282.436 297.264C282.01 297.264 281.585 297.213 281.16 297.11C280.734 297.007 280.338 296.839 279.972 296.604C279.605 296.369 279.312 296.047 279.092 295.636C278.872 295.211 278.762 294.683 278.762 294.052C278.762 293.26 278.952 292.607 279.334 292.094C279.715 291.581 280.243 291.185 280.918 290.906C281.607 290.613 282.421 290.415 283.36 290.312C284.298 290.195 285.318 290.136 286.418 290.136V288.816C286.418 288.391 286.344 288.024 286.198 287.716C286.051 287.408 285.787 287.173 285.406 287.012C285.039 286.836 284.511 286.748 283.822 286.748C283.162 286.748 282.634 286.836 282.238 287.012C281.856 287.173 281.585 287.386 281.424 287.65C281.277 287.914 281.204 288.207 281.204 288.53V288.86H279.334C279.319 288.787 279.312 288.713 279.312 288.64C279.312 288.567 279.312 288.479 279.312 288.376C279.312 287.672 279.502 287.085 279.884 286.616C280.28 286.132 280.83 285.773 281.534 285.538C282.238 285.289 283.044 285.164 283.954 285.164C284.922 285.164 285.728 285.303 286.374 285.582C287.034 285.861 287.525 286.257 287.848 286.77C288.185 287.283 288.354 287.899 288.354 288.618V294.888C288.354 295.167 288.42 295.365 288.552 295.482C288.684 295.585 288.845 295.636 289.036 295.636H289.894V296.912C289.688 297 289.461 297.073 289.212 297.132C288.962 297.205 288.676 297.242 288.354 297.242C287.972 297.242 287.657 297.161 287.408 297C287.158 296.853 286.968 296.648 286.836 296.384C286.704 296.105 286.616 295.797 286.572 295.46H286.418C286.154 295.827 285.816 296.149 285.406 296.428C285.01 296.692 284.562 296.897 284.064 297.044C283.565 297.191 283.022 297.264 282.436 297.264ZM282.92 295.636C283.389 295.636 283.829 295.563 284.24 295.416C284.665 295.269 285.039 295.064 285.362 294.8C285.684 294.521 285.941 294.191 286.132 293.81C286.322 293.429 286.418 293.011 286.418 292.556V291.588C285.23 291.588 284.218 291.654 283.382 291.786C282.546 291.918 281.9 292.153 281.446 292.49C281.006 292.827 280.786 293.304 280.786 293.92C280.786 294.316 280.874 294.639 281.05 294.888C281.226 295.137 281.475 295.328 281.798 295.46C282.12 295.577 282.494 295.636 282.92 295.636ZM291.52 297V285.428H293.082L293.258 287.342H293.412C293.529 286.975 293.691 286.631 293.896 286.308C294.101 285.971 294.38 285.699 294.732 285.494C295.084 285.274 295.517 285.164 296.03 285.164C296.25 285.164 296.448 285.186 296.624 285.23C296.815 285.259 296.954 285.296 297.042 285.34V287.122H296.316C295.817 287.122 295.385 287.21 295.018 287.386C294.666 287.547 294.373 287.782 294.138 288.09C293.903 288.398 293.727 288.765 293.61 289.19C293.507 289.615 293.456 290.07 293.456 290.554V297H291.52ZM302.587 293.106V291.874C302.587 291.302 302.675 290.825 302.851 290.444C303.027 290.063 303.254 289.733 303.533 289.454C303.826 289.175 304.127 288.919 304.435 288.684C304.757 288.435 305.058 288.185 305.337 287.936C305.63 287.672 305.865 287.371 306.041 287.034C306.217 286.682 306.305 286.264 306.305 285.78C306.305 285.589 306.275 285.362 306.217 285.098C306.173 284.819 306.055 284.555 305.865 284.306C305.689 284.042 305.417 283.822 305.051 283.646C304.684 283.47 304.2 283.382 303.599 283.382C302.924 283.382 302.389 283.492 301.993 283.712C301.597 283.917 301.296 284.181 301.091 284.504C300.9 284.827 300.768 285.142 300.695 285.45C300.636 285.758 300.607 286.015 300.607 286.22C300.607 286.323 300.607 286.425 300.607 286.528C300.607 286.616 300.614 286.719 300.629 286.836H298.671C298.656 286.777 298.641 286.689 298.627 286.572C298.612 286.44 298.605 286.279 298.605 286.088C298.605 285.751 298.656 285.384 298.759 284.988C298.861 284.592 299.03 284.196 299.265 283.8C299.499 283.404 299.815 283.045 300.211 282.722C300.607 282.399 301.091 282.143 301.663 281.952C302.249 281.747 302.939 281.644 303.731 281.644C304.449 281.644 305.073 281.732 305.601 281.908C306.129 282.069 306.569 282.297 306.921 282.59C307.287 282.869 307.573 283.184 307.779 283.536C307.999 283.873 308.153 284.218 308.241 284.57C308.343 284.922 308.395 285.252 308.395 285.56C308.395 286.264 308.299 286.858 308.109 287.342C307.918 287.826 307.669 288.237 307.361 288.574C307.067 288.897 306.752 289.183 306.415 289.432C306.092 289.681 305.777 289.931 305.469 290.18C305.161 290.415 304.911 290.686 304.721 290.994C304.53 291.287 304.435 291.654 304.435 292.094V293.106H302.587ZM302.433 297V294.69H304.589V297H302.433ZM322.059 297.264C321.238 297.264 320.446 297.183 319.683 297.022C318.935 296.861 318.268 296.604 317.681 296.252C317.094 295.885 316.625 295.416 316.273 294.844C315.936 294.272 315.767 293.568 315.767 292.732C315.767 292.659 315.767 292.585 315.767 292.512C315.782 292.439 315.789 292.365 315.789 292.292H317.901C317.901 292.336 317.894 292.409 317.879 292.512C317.879 292.6 317.879 292.681 317.879 292.754C317.879 293.341 318.055 293.839 318.407 294.25C318.759 294.661 319.243 294.969 319.859 295.174C320.49 295.365 321.201 295.46 321.993 295.46C322.345 295.46 322.712 295.438 323.093 295.394C323.489 295.35 323.863 295.277 324.215 295.174C324.582 295.057 324.904 294.91 325.183 294.734C325.476 294.543 325.704 294.316 325.865 294.052C326.041 293.773 326.129 293.436 326.129 293.04C326.129 292.541 325.982 292.131 325.689 291.808C325.41 291.471 325.036 291.199 324.567 290.994C324.098 290.774 323.562 290.583 322.961 290.422C322.374 290.246 321.766 290.077 321.135 289.916C320.504 289.755 319.888 289.571 319.287 289.366C318.7 289.146 318.172 288.882 317.703 288.574C317.234 288.251 316.852 287.855 316.559 287.386C316.28 286.917 316.141 286.345 316.141 285.67C316.141 285.039 316.266 284.475 316.515 283.976C316.779 283.477 317.16 283.059 317.659 282.722C318.172 282.37 318.803 282.106 319.551 281.93C320.299 281.739 321.157 281.644 322.125 281.644C322.917 281.644 323.65 281.732 324.325 281.908C325.014 282.069 325.616 282.326 326.129 282.678C326.657 283.015 327.068 283.448 327.361 283.976C327.654 284.504 327.801 285.142 327.801 285.89V286.154H325.733V285.824C325.733 285.325 325.579 284.9 325.271 284.548C324.963 284.196 324.538 283.925 323.995 283.734C323.467 283.543 322.866 283.448 322.191 283.448C321.311 283.448 320.578 283.536 319.991 283.712C319.404 283.873 318.964 284.115 318.671 284.438C318.392 284.746 318.253 285.098 318.253 285.494C318.253 285.949 318.392 286.33 318.671 286.638C318.964 286.946 319.346 287.203 319.815 287.408C320.284 287.599 320.82 287.775 321.421 287.936C322.022 288.097 322.631 288.266 323.247 288.442C323.878 288.603 324.486 288.794 325.073 289.014C325.674 289.219 326.21 289.483 326.679 289.806C327.163 290.114 327.544 290.51 327.823 290.994C328.102 291.463 328.241 292.043 328.241 292.732C328.241 293.803 327.977 294.675 327.449 295.35C326.921 296.01 326.195 296.494 325.271 296.802C324.347 297.11 323.276 297.264 322.059 297.264ZM330.944 283.25V281.094H332.88V283.25H330.944ZM330.944 297V285.428H332.88V297H330.944ZM337.843 301.004C337.286 301.004 336.773 300.887 336.303 300.652C335.834 300.432 335.46 300.109 335.181 299.684C334.903 299.259 334.763 298.753 334.763 298.166C334.763 297.521 334.939 296.985 335.291 296.56C335.658 296.135 336.091 295.819 336.589 295.614C336.223 295.438 335.937 295.196 335.731 294.888C335.526 294.565 335.423 294.213 335.423 293.832C335.423 293.319 335.607 292.886 335.973 292.534C336.355 292.182 336.817 291.947 337.359 291.83C336.861 291.507 336.465 291.097 336.171 290.598C335.893 290.085 335.753 289.52 335.753 288.904C335.753 288.171 335.922 287.525 336.259 286.968C336.611 286.411 337.139 285.971 337.843 285.648C338.562 285.325 339.435 285.164 340.461 285.164C340.931 285.164 341.371 285.201 341.781 285.274C342.192 285.333 342.559 285.435 342.881 285.582C343.395 285.347 343.776 285.047 344.025 284.68C344.289 284.313 344.451 283.939 344.509 283.558H346.423C346.423 283.998 346.321 284.416 346.115 284.812C345.925 285.193 345.661 285.516 345.323 285.78C344.986 286.029 344.575 286.198 344.091 286.286C344.458 286.638 344.729 287.034 344.905 287.474C345.096 287.914 345.191 288.391 345.191 288.904C345.191 289.637 345.015 290.29 344.663 290.862C344.326 291.419 343.813 291.859 343.123 292.182C342.434 292.505 341.569 292.666 340.527 292.666H338.723C338.327 292.666 338.005 292.747 337.755 292.908C337.506 293.055 337.381 293.297 337.381 293.634C337.381 293.927 337.506 294.169 337.755 294.36C338.005 294.536 338.327 294.624 338.723 294.624H343.431C344.282 294.624 344.979 294.91 345.521 295.482C346.064 296.039 346.335 296.758 346.335 297.638C346.335 298.269 346.174 298.833 345.851 299.332C345.543 299.845 345.103 300.249 344.531 300.542C343.974 300.85 343.321 301.004 342.573 301.004H337.843ZM338.393 299.53H342.551C342.889 299.53 343.197 299.457 343.475 299.31C343.754 299.178 343.974 298.987 344.135 298.738C344.297 298.489 344.377 298.217 344.377 297.924C344.377 297.425 344.231 297.029 343.937 296.736C343.644 296.443 343.277 296.296 342.837 296.296H338.393C337.924 296.296 337.528 296.457 337.205 296.78C336.883 297.088 336.721 297.469 336.721 297.924C336.721 298.408 336.883 298.797 337.205 299.09C337.528 299.383 337.924 299.53 338.393 299.53ZM340.483 291.214C341.422 291.214 342.119 291.009 342.573 290.598C343.028 290.187 343.255 289.623 343.255 288.904C343.255 288.2 343.028 287.643 342.573 287.232C342.119 286.821 341.422 286.616 340.483 286.616C339.545 286.616 338.841 286.821 338.371 287.232C337.917 287.643 337.689 288.2 337.689 288.904C337.689 289.359 337.792 289.762 337.997 290.114C338.203 290.466 338.511 290.737 338.921 290.928C339.332 291.119 339.853 291.214 340.483 291.214ZM348.11 297V285.428H349.672L349.848 287.166H350.002C350.31 286.697 350.654 286.315 351.036 286.022C351.432 285.729 351.864 285.516 352.334 285.384C352.818 285.237 353.331 285.164 353.874 285.164C354.607 285.164 355.245 285.289 355.788 285.538C356.345 285.787 356.778 286.191 357.086 286.748C357.408 287.305 357.57 288.061 357.57 289.014V297H355.634V289.278C355.634 288.794 355.568 288.398 355.436 288.09C355.318 287.782 355.15 287.54 354.93 287.364C354.724 287.188 354.468 287.063 354.16 286.99C353.866 286.917 353.536 286.88 353.17 286.88C352.627 286.88 352.114 287.012 351.63 287.276C351.146 287.54 350.757 287.921 350.464 288.42C350.185 288.919 350.046 289.513 350.046 290.202V297H348.11ZM368.69 297.264C367.575 297.264 366.681 296.978 366.006 296.406C365.331 295.834 364.994 294.837 364.994 293.414V285.428H366.93V293.15C366.93 293.634 366.989 294.03 367.106 294.338C367.223 294.646 367.392 294.888 367.612 295.064C367.832 295.24 368.089 295.365 368.382 295.438C368.69 295.511 369.02 295.548 369.372 295.548C369.929 295.548 370.443 295.416 370.912 295.152C371.381 294.888 371.763 294.507 372.056 294.008C372.364 293.495 372.518 292.901 372.518 292.226V285.428H374.454V297H372.892L372.716 295.262H372.562C372.254 295.731 371.902 296.113 371.506 296.406C371.125 296.699 370.692 296.912 370.208 297.044C369.739 297.191 369.233 297.264 368.69 297.264ZM377.457 300.806V285.428H378.997L379.195 287.078H379.349C379.745 286.433 380.251 285.956 380.867 285.648C381.483 285.325 382.18 285.164 382.957 285.164C383.925 285.164 384.747 285.377 385.421 285.802C386.096 286.227 386.617 286.895 386.983 287.804C387.35 288.699 387.533 289.865 387.533 291.302C387.533 292.651 387.343 293.773 386.961 294.668C386.595 295.548 386.074 296.201 385.399 296.626C384.725 297.051 383.94 297.264 383.045 297.264C382.547 297.264 382.077 297.205 381.637 297.088C381.197 296.971 380.801 296.787 380.449 296.538C380.097 296.274 379.789 295.944 379.525 295.548H379.393V300.806H377.457ZM382.429 295.57C383.148 295.57 383.735 295.431 384.189 295.152C384.644 294.859 384.981 294.411 385.201 293.81C385.421 293.194 385.531 292.409 385.531 291.456V290.994C385.531 289.982 385.414 289.175 385.179 288.574C384.945 287.958 384.6 287.518 384.145 287.254C383.705 286.99 383.155 286.858 382.495 286.858C381.777 286.858 381.183 287.019 380.713 287.342C380.259 287.65 379.921 288.119 379.701 288.75C379.496 289.381 379.393 290.151 379.393 291.06V291.39C379.393 292.197 379.467 292.871 379.613 293.414C379.775 293.942 379.995 294.367 380.273 294.69C380.567 295.013 380.897 295.24 381.263 295.372C381.63 295.504 382.019 295.57 382.429 295.57ZM397.244 297.264C396.642 297.264 396.173 297.154 395.836 296.934C395.498 296.699 395.256 296.399 395.11 296.032C394.963 295.651 394.89 295.247 394.89 294.822V287.056H393.394V285.428H394.934L395.286 282.194H396.826V285.428H399.004V287.056H396.826V294.536C396.826 294.903 396.892 295.181 397.024 295.372C397.156 295.548 397.405 295.636 397.772 295.636H399.004V296.912C398.857 296.985 398.681 297.044 398.476 297.088C398.27 297.132 398.058 297.169 397.838 297.198C397.632 297.242 397.434 297.264 397.244 297.264ZM405.821 297.264C404.647 297.264 403.657 297.051 402.851 296.626C402.059 296.186 401.45 295.519 401.025 294.624C400.614 293.729 400.409 292.593 400.409 291.214C400.409 289.821 400.614 288.684 401.025 287.804C401.45 286.909 402.059 286.249 402.851 285.824C403.657 285.384 404.647 285.164 405.821 285.164C406.994 285.164 407.977 285.384 408.769 285.824C409.575 286.249 410.184 286.909 410.595 287.804C411.005 288.684 411.211 289.821 411.211 291.214C411.211 292.593 411.005 293.729 410.595 294.624C410.184 295.519 409.575 296.186 408.769 296.626C407.977 297.051 406.994 297.264 405.821 297.264ZM405.821 295.636C406.569 295.636 407.192 295.489 407.691 295.196C408.189 294.903 408.563 294.448 408.813 293.832C409.077 293.201 409.209 292.409 409.209 291.456V290.972C409.209 290.004 409.077 289.212 408.813 288.596C408.563 287.98 408.189 287.525 407.691 287.232C407.192 286.939 406.569 286.792 405.821 286.792C405.073 286.792 404.442 286.939 403.929 287.232C403.43 287.525 403.056 287.98 402.807 288.596C402.557 289.212 402.433 290.004 402.433 290.972V291.456C402.433 292.409 402.557 293.201 402.807 293.832C403.056 294.448 403.43 294.903 403.929 295.196C404.442 295.489 405.073 295.636 405.821 295.636ZM417.554 297.264C416.6 297.264 415.779 297.051 415.09 296.626C414.415 296.201 413.887 295.541 413.506 294.646C413.139 293.737 412.956 292.563 412.956 291.126C412.956 289.762 413.146 288.64 413.528 287.76C413.909 286.88 414.437 286.227 415.112 285.802C415.786 285.377 416.571 285.164 417.466 285.164C417.979 285.164 418.456 285.223 418.896 285.34C419.336 285.457 419.724 285.641 420.062 285.89C420.414 286.139 420.722 286.469 420.986 286.88H421.118V281.094H423.054V297H421.492L421.316 295.35H421.162C420.766 295.995 420.252 296.479 419.622 296.802C418.991 297.11 418.302 297.264 417.554 297.264ZM418.016 295.57C418.749 295.57 419.343 295.409 419.798 295.086C420.252 294.763 420.582 294.294 420.788 293.678C421.008 293.062 421.118 292.299 421.118 291.39V291.038C421.118 290.246 421.037 289.579 420.876 289.036C420.714 288.493 420.494 288.061 420.216 287.738C419.937 287.415 419.614 287.188 419.248 287.056C418.881 286.924 418.492 286.858 418.082 286.858C417.363 286.858 416.776 287.005 416.322 287.298C415.867 287.577 415.53 288.024 415.31 288.64C415.09 289.241 414.98 290.026 414.98 290.994V291.456C414.98 292.453 415.097 293.26 415.332 293.876C415.566 294.477 415.904 294.91 416.344 295.174C416.798 295.438 417.356 295.57 418.016 295.57ZM429.002 297.264C428.577 297.264 428.151 297.213 427.726 297.11C427.301 297.007 426.905 296.839 426.538 296.604C426.171 296.369 425.878 296.047 425.658 295.636C425.438 295.211 425.328 294.683 425.328 294.052C425.328 293.26 425.519 292.607 425.9 292.094C426.281 291.581 426.809 291.185 427.484 290.906C428.173 290.613 428.987 290.415 429.926 290.312C430.865 290.195 431.884 290.136 432.984 290.136V288.816C432.984 288.391 432.911 288.024 432.764 287.716C432.617 287.408 432.353 287.173 431.972 287.012C431.605 286.836 431.077 286.748 430.388 286.748C429.728 286.748 429.2 286.836 428.804 287.012C428.423 287.173 428.151 287.386 427.99 287.65C427.843 287.914 427.77 288.207 427.77 288.53V288.86H425.9C425.885 288.787 425.878 288.713 425.878 288.64C425.878 288.567 425.878 288.479 425.878 288.376C425.878 287.672 426.069 287.085 426.45 286.616C426.846 286.132 427.396 285.773 428.1 285.538C428.804 285.289 429.611 285.164 430.52 285.164C431.488 285.164 432.295 285.303 432.94 285.582C433.6 285.861 434.091 286.257 434.414 286.77C434.751 287.283 434.92 287.899 434.92 288.618V294.888C434.92 295.167 434.986 295.365 435.118 295.482C435.25 295.585 435.411 295.636 435.602 295.636H436.46V296.912C436.255 297 436.027 297.073 435.778 297.132C435.529 297.205 435.243 297.242 434.92 297.242C434.539 297.242 434.223 297.161 433.974 297C433.725 296.853 433.534 296.648 433.402 296.384C433.27 296.105 433.182 295.797 433.138 295.46H432.984C432.72 295.827 432.383 296.149 431.972 296.428C431.576 296.692 431.129 296.897 430.63 297.044C430.131 297.191 429.589 297.264 429.002 297.264ZM429.486 295.636C429.955 295.636 430.395 295.563 430.806 295.416C431.231 295.269 431.605 295.064 431.928 294.8C432.251 294.521 432.507 294.191 432.698 293.81C432.889 293.429 432.984 293.011 432.984 292.556V291.588C431.796 291.588 430.784 291.654 429.948 291.786C429.112 291.918 428.467 292.153 428.012 292.49C427.572 292.827 427.352 293.304 427.352 293.92C427.352 294.316 427.44 294.639 427.616 294.888C427.792 295.137 428.041 295.328 428.364 295.46C428.687 295.577 429.061 295.636 429.486 295.636ZM439.076 301.004C438.724 301.004 438.416 300.975 438.152 300.916C437.903 300.872 437.734 300.843 437.646 300.828V299.42H438.614C438.966 299.42 439.311 299.347 439.648 299.2C439.986 299.053 440.301 298.804 440.594 298.452C440.888 298.1 441.137 297.616 441.342 297L436.854 285.428H438.878L441.188 291.39C441.291 291.669 441.408 292.013 441.54 292.424C441.687 292.82 441.826 293.231 441.958 293.656C442.105 294.081 442.222 294.455 442.31 294.778H442.442C442.501 294.543 442.574 294.279 442.662 293.986C442.75 293.693 442.838 293.392 442.926 293.084C443.029 292.761 443.124 292.461 443.212 292.182C443.315 291.889 443.396 291.632 443.454 291.412L445.412 285.428H447.37L443.454 296.67C443.234 297.301 442.992 297.88 442.728 298.408C442.464 298.951 442.171 299.413 441.848 299.794C441.526 300.175 441.137 300.469 440.682 300.674C440.228 300.894 439.692 301.004 439.076 301.004ZM456.476 297.264C455.875 297.264 455.405 297.154 455.068 296.934C454.731 296.699 454.489 296.399 454.342 296.032C454.195 295.651 454.122 295.247 454.122 294.822V287.056H452.626V285.428H454.166L454.518 282.194H456.058V285.428H458.236V287.056H456.058V294.536C456.058 294.903 456.124 295.181 456.256 295.372C456.388 295.548 456.637 295.636 457.004 295.636H458.236V296.912C458.089 296.985 457.913 297.044 457.708 297.088C457.503 297.132 457.29 297.169 457.07 297.198C456.865 297.242 456.667 297.264 456.476 297.264ZM465.053 297.264C463.88 297.264 462.89 297.051 462.083 296.626C461.291 296.186 460.683 295.519 460.257 294.624C459.847 293.729 459.641 292.593 459.641 291.214C459.641 289.821 459.847 288.684 460.257 287.804C460.683 286.909 461.291 286.249 462.083 285.824C462.89 285.384 463.88 285.164 465.053 285.164C466.227 285.164 467.209 285.384 468.001 285.824C468.808 286.249 469.417 286.909 469.827 287.804C470.238 288.684 470.443 289.821 470.443 291.214C470.443 292.593 470.238 293.729 469.827 294.624C469.417 295.519 468.808 296.186 468.001 296.626C467.209 297.051 466.227 297.264 465.053 297.264ZM465.053 295.636C465.801 295.636 466.425 295.489 466.923 295.196C467.422 294.903 467.796 294.448 468.045 293.832C468.309 293.201 468.441 292.409 468.441 291.456V290.972C468.441 290.004 468.309 289.212 468.045 288.596C467.796 287.98 467.422 287.525 466.923 287.232C466.425 286.939 465.801 286.792 465.053 286.792C464.305 286.792 463.675 286.939 463.161 287.232C462.663 287.525 462.289 287.98 462.039 288.596C461.79 289.212 461.665 290.004 461.665 290.972V291.456C461.665 292.409 461.79 293.201 462.039 293.832C462.289 294.448 462.663 294.903 463.161 295.196C463.675 295.489 464.305 295.636 465.053 295.636ZM482.066 297.264C480.922 297.264 479.954 297.051 479.162 296.626C478.384 296.186 477.79 295.519 477.38 294.624C476.984 293.729 476.786 292.593 476.786 291.214C476.786 289.821 476.984 288.684 477.38 287.804C477.79 286.909 478.392 286.249 479.184 285.824C479.976 285.384 480.966 285.164 482.154 285.164C483.239 285.164 484.148 285.377 484.882 285.802C485.615 286.213 486.165 286.836 486.532 287.672C486.913 288.493 487.104 289.527 487.104 290.774V291.698H478.788C478.817 292.622 478.949 293.385 479.184 293.986C479.433 294.573 479.8 295.005 480.284 295.284C480.768 295.548 481.376 295.68 482.11 295.68C482.608 295.68 483.041 295.621 483.408 295.504C483.789 295.372 484.104 295.189 484.354 294.954C484.618 294.719 484.816 294.441 484.948 294.118C485.08 293.795 485.153 293.443 485.168 293.062H487.06C487.045 293.678 486.928 294.25 486.708 294.778C486.488 295.291 486.165 295.731 485.74 296.098C485.314 296.465 484.794 296.751 484.178 296.956C483.562 297.161 482.858 297.264 482.066 297.264ZM478.832 290.246H485.102C485.102 289.601 485.028 289.058 484.882 288.618C484.735 288.178 484.522 287.819 484.244 287.54C483.98 287.261 483.664 287.063 483.298 286.946C482.946 286.814 482.542 286.748 482.088 286.748C481.413 286.748 480.841 286.873 480.372 287.122C479.902 287.371 479.543 287.753 479.294 288.266C479.044 288.779 478.89 289.439 478.832 290.246ZM488.224 297L492.382 291.082L488.422 285.428H490.754L493.57 289.564H493.68L496.496 285.428H498.696L494.736 291.016L498.916 297H496.606L493.57 292.534H493.46L490.424 297H488.224ZM500.713 300.806V285.428H502.253L502.451 287.078H502.605C503.001 286.433 503.507 285.956 504.123 285.648C504.739 285.325 505.436 285.164 506.213 285.164C507.181 285.164 508.003 285.377 508.677 285.802C509.352 286.227 509.873 286.895 510.239 287.804C510.606 288.699 510.789 289.865 510.789 291.302C510.789 292.651 510.599 293.773 510.217 294.668C509.851 295.548 509.33 296.201 508.655 296.626C507.981 297.051 507.196 297.264 506.301 297.264C505.803 297.264 505.333 297.205 504.893 297.088C504.453 296.971 504.057 296.787 503.705 296.538C503.353 296.274 503.045 295.944 502.781 295.548H502.649V300.806H500.713ZM505.685 295.57C506.404 295.57 506.991 295.431 507.445 295.152C507.9 294.859 508.237 294.411 508.457 293.81C508.677 293.194 508.787 292.409 508.787 291.456V290.994C508.787 289.982 508.67 289.175 508.435 288.574C508.201 287.958 507.856 287.518 507.401 287.254C506.961 286.99 506.411 286.858 505.751 286.858C505.033 286.858 504.439 287.019 503.969 287.342C503.515 287.65 503.177 288.119 502.957 288.75C502.752 289.381 502.649 290.151 502.649 291.06V291.39C502.649 292.197 502.723 292.871 502.869 293.414C503.031 293.942 503.251 294.367 503.529 294.69C503.823 295.013 504.153 295.24 504.519 295.372C504.886 295.504 505.275 295.57 505.685 295.57ZM513.196 297V281.094H515.132V297H513.196ZM522.889 297.264C521.716 297.264 520.726 297.051 519.919 296.626C519.127 296.186 518.518 295.519 518.093 294.624C517.682 293.729 517.477 292.593 517.477 291.214C517.477 289.821 517.682 288.684 518.093 287.804C518.518 286.909 519.127 286.249 519.919 285.824C520.726 285.384 521.716 285.164 522.889 285.164C524.062 285.164 525.045 285.384 525.837 285.824C526.644 286.249 527.252 286.909 527.663 287.804C528.074 288.684 528.279 289.821 528.279 291.214C528.279 292.593 528.074 293.729 527.663 294.624C527.252 295.519 526.644 296.186 525.837 296.626C525.045 297.051 524.062 297.264 522.889 297.264ZM522.889 295.636C523.637 295.636 524.26 295.489 524.759 295.196C525.258 294.903 525.632 294.448 525.881 293.832C526.145 293.201 526.277 292.409 526.277 291.456V290.972C526.277 290.004 526.145 289.212 525.881 288.596C525.632 287.98 525.258 287.525 524.759 287.232C524.26 286.939 523.637 286.792 522.889 286.792C522.141 286.792 521.51 286.939 520.997 287.232C520.498 287.525 520.124 287.98 519.875 288.596C519.626 289.212 519.501 290.004 519.501 290.972V291.456C519.501 292.409 519.626 293.201 519.875 293.832C520.124 294.448 520.498 294.903 520.997 295.196C521.51 295.489 522.141 295.636 522.889 295.636ZM530.684 297V285.428H532.246L532.422 287.342H532.576C532.693 286.975 532.855 286.631 533.06 286.308C533.265 285.971 533.544 285.699 533.896 285.494C534.248 285.274 534.681 285.164 535.194 285.164C535.414 285.164 535.612 285.186 535.788 285.23C535.979 285.259 536.118 285.296 536.206 285.34V287.122H535.48C534.981 287.122 534.549 287.21 534.182 287.386C533.83 287.547 533.537 287.782 533.302 288.09C533.067 288.398 532.891 288.765 532.774 289.19C532.671 289.615 532.62 290.07 532.62 290.554V297H530.684ZM542.394 297.264C541.25 297.264 540.282 297.051 539.49 296.626C538.713 296.186 538.119 295.519 537.708 294.624C537.312 293.729 537.114 292.593 537.114 291.214C537.114 289.821 537.312 288.684 537.708 287.804C538.119 286.909 538.72 286.249 539.512 285.824C540.304 285.384 541.294 285.164 542.482 285.164C543.567 285.164 544.477 285.377 545.21 285.802C545.943 286.213 546.493 286.836 546.86 287.672C547.241 288.493 547.432 289.527 547.432 290.774V291.698H539.116C539.145 292.622 539.277 293.385 539.512 293.986C539.761 294.573 540.128 295.005 540.612 295.284C541.096 295.548 541.705 295.68 542.438 295.68C542.937 295.68 543.369 295.621 543.736 295.504C544.117 295.372 544.433 295.189 544.682 294.954C544.946 294.719 545.144 294.441 545.276 294.118C545.408 293.795 545.481 293.443 545.496 293.062H547.388C547.373 293.678 547.256 294.25 547.036 294.778C546.816 295.291 546.493 295.731 546.068 296.098C545.643 296.465 545.122 296.751 544.506 296.956C543.89 297.161 543.186 297.264 542.394 297.264ZM539.16 290.246H545.43C545.43 289.601 545.357 289.058 545.21 288.618C545.063 288.178 544.851 287.819 544.572 287.54C544.308 287.261 543.993 287.063 543.626 286.946C543.274 286.814 542.871 286.748 542.416 286.748C541.741 286.748 541.169 286.873 540.7 287.122C540.231 287.371 539.871 287.753 539.622 288.266C539.373 288.779 539.219 289.439 539.16 290.246ZM559.176 297.264C558.003 297.264 557.013 297.051 556.206 296.626C555.414 296.186 554.806 295.519 554.38 294.624C553.97 293.729 553.764 292.593 553.764 291.214C553.764 289.821 553.97 288.684 554.38 287.804C554.806 286.909 555.414 286.249 556.206 285.824C557.013 285.384 558.003 285.164 559.176 285.164C560.35 285.164 561.332 285.384 562.124 285.824C562.931 286.249 563.54 286.909 563.95 287.804C564.361 288.684 564.566 289.821 564.566 291.214C564.566 292.593 564.361 293.729 563.95 294.624C563.54 295.519 562.931 296.186 562.124 296.626C561.332 297.051 560.35 297.264 559.176 297.264ZM559.176 295.636C559.924 295.636 560.548 295.489 561.046 295.196C561.545 294.903 561.919 294.448 562.168 293.832C562.432 293.201 562.564 292.409 562.564 291.456V290.972C562.564 290.004 562.432 289.212 562.168 288.596C561.919 287.98 561.545 287.525 561.046 287.232C560.548 286.939 559.924 286.792 559.176 286.792C558.428 286.792 557.798 286.939 557.284 287.232C556.786 287.525 556.412 287.98 556.162 288.596C555.913 289.212 555.788 290.004 555.788 290.972V291.456C555.788 292.409 555.913 293.201 556.162 293.832C556.412 294.448 556.786 294.903 557.284 295.196C557.798 295.489 558.428 295.636 559.176 295.636ZM570.557 297.264C569.442 297.264 568.548 296.978 567.873 296.406C567.198 295.834 566.861 294.837 566.861 293.414V285.428H568.797V293.15C568.797 293.634 568.856 294.03 568.973 294.338C569.09 294.646 569.259 294.888 569.479 295.064C569.699 295.24 569.956 295.365 570.249 295.438C570.557 295.511 570.887 295.548 571.239 295.548C571.796 295.548 572.31 295.416 572.779 295.152C573.248 294.888 573.63 294.507 573.923 294.008C574.231 293.495 574.385 292.901 574.385 292.226V285.428H576.321V297H574.759L574.583 295.262H574.429C574.121 295.731 573.769 296.113 573.373 296.406C572.992 296.699 572.559 296.912 572.075 297.044C571.606 297.191 571.1 297.264 570.557 297.264ZM579.325 297V285.428H580.887L581.063 287.342H581.217C581.334 286.975 581.495 286.631 581.701 286.308C581.906 285.971 582.185 285.699 582.537 285.494C582.889 285.274 583.321 285.164 583.835 285.164C584.055 285.164 584.253 285.186 584.429 285.23C584.619 285.259 584.759 285.296 584.847 285.34V287.122H584.121C583.622 287.122 583.189 287.21 582.823 287.386C582.471 287.547 582.177 287.782 581.943 288.09C581.708 288.398 581.532 288.765 581.415 289.19C581.312 289.615 581.261 290.07 581.261 290.554V297H579.325ZM594.845 297.264C594.053 297.264 593.357 297.183 592.755 297.022C592.154 296.861 591.655 296.626 591.259 296.318C590.863 296.01 590.563 295.643 590.357 295.218C590.152 294.793 590.049 294.309 590.049 293.766C590.049 293.693 590.049 293.627 590.049 293.568C590.049 293.495 590.057 293.436 590.071 293.392H591.985C591.971 293.451 591.963 293.502 591.963 293.546C591.963 293.59 591.963 293.634 591.963 293.678C591.978 294.191 592.11 294.595 592.359 294.888C592.623 295.181 592.983 295.387 593.437 295.504C593.892 295.621 594.398 295.68 594.955 295.68C595.439 295.68 595.887 295.621 596.297 295.504C596.708 295.372 597.031 295.181 597.265 294.932C597.515 294.668 597.639 294.338 597.639 293.942C597.639 293.458 597.478 293.091 597.155 292.842C596.847 292.578 596.437 292.373 595.923 292.226C595.41 292.079 594.875 291.925 594.317 291.764C593.848 291.632 593.379 291.485 592.909 291.324C592.44 291.163 592.015 290.965 591.633 290.73C591.267 290.495 590.966 290.195 590.731 289.828C590.511 289.447 590.401 288.97 590.401 288.398C590.401 287.885 590.504 287.43 590.709 287.034C590.929 286.638 591.237 286.301 591.633 286.022C592.029 285.743 592.506 285.538 593.063 285.406C593.635 285.259 594.266 285.186 594.955 285.186C595.689 285.186 596.327 285.267 596.869 285.428C597.427 285.589 597.889 285.817 598.255 286.11C598.622 286.403 598.893 286.741 599.069 287.122C599.245 287.489 599.333 287.885 599.333 288.31C599.333 288.398 599.333 288.486 599.333 288.574C599.333 288.647 599.326 288.706 599.311 288.75H597.419V288.508C597.419 288.215 597.339 287.936 597.177 287.672C597.031 287.393 596.767 287.173 596.385 287.012C596.019 286.836 595.505 286.748 594.845 286.748C594.42 286.748 594.053 286.785 593.745 286.858C593.437 286.917 593.181 287.019 592.975 287.166C592.77 287.298 592.616 287.459 592.513 287.65C592.411 287.826 592.359 288.031 592.359 288.266C592.359 288.647 592.484 288.941 592.733 289.146C592.983 289.351 593.313 289.52 593.723 289.652C594.149 289.784 594.603 289.931 595.087 290.092C595.601 290.239 596.121 290.393 596.649 290.554C597.192 290.701 597.683 290.891 598.123 291.126C598.578 291.361 598.937 291.683 599.201 292.094C599.48 292.49 599.619 293.018 599.619 293.678C599.619 294.294 599.502 294.829 599.267 295.284C599.033 295.739 598.695 296.113 598.255 296.406C597.83 296.699 597.324 296.912 596.737 297.044C596.165 297.191 595.535 297.264 594.845 297.264ZM606.632 297.264C605.488 297.264 604.52 297.051 603.728 296.626C602.951 296.186 602.357 295.519 601.946 294.624C601.55 293.729 601.352 292.593 601.352 291.214C601.352 289.821 601.55 288.684 601.946 287.804C602.357 286.909 602.958 286.249 603.75 285.824C604.542 285.384 605.532 285.164 606.72 285.164C607.805 285.164 608.715 285.377 609.448 285.802C610.181 286.213 610.731 286.836 611.098 287.672C611.479 288.493 611.67 289.527 611.67 290.774V291.698H603.354C603.383 292.622 603.515 293.385 603.75 293.986C603.999 294.573 604.366 295.005 604.85 295.284C605.334 295.548 605.943 295.68 606.676 295.68C607.175 295.68 607.607 295.621 607.974 295.504C608.355 295.372 608.671 295.189 608.92 294.954C609.184 294.719 609.382 294.441 609.514 294.118C609.646 293.795 609.719 293.443 609.734 293.062H611.626C611.611 293.678 611.494 294.25 611.274 294.778C611.054 295.291 610.731 295.731 610.306 296.098C609.881 296.465 609.36 296.751 608.744 296.956C608.128 297.161 607.424 297.264 606.632 297.264ZM603.398 290.246H609.668C609.668 289.601 609.595 289.058 609.448 288.618C609.301 288.178 609.089 287.819 608.81 287.54C608.546 287.261 608.231 287.063 607.864 286.946C607.512 286.814 607.109 286.748 606.654 286.748C605.979 286.748 605.407 286.873 604.938 287.122C604.469 287.371 604.109 287.753 603.86 288.266C603.611 288.779 603.457 289.439 603.398 290.246ZM614.065 297V285.428H615.627L615.803 287.342H615.957C616.074 286.975 616.236 286.631 616.441 286.308C616.646 285.971 616.925 285.699 617.277 285.494C617.629 285.274 618.062 285.164 618.575 285.164C618.795 285.164 618.993 285.186 619.169 285.23C619.36 285.259 619.499 285.296 619.587 285.34V287.122H618.861C618.362 287.122 617.93 287.21 617.563 287.386C617.211 287.547 616.918 287.782 616.683 288.09C616.448 288.398 616.272 288.765 616.155 289.19C616.052 289.615 616.001 290.07 616.001 290.554V297H614.065ZM624.428 297L620.138 285.428H622.162L624.274 291.214C624.376 291.493 624.494 291.845 624.626 292.27C624.758 292.681 624.89 293.106 625.022 293.546C625.168 293.971 625.286 294.353 625.374 294.69H625.484C625.586 294.367 625.704 293.993 625.836 293.568C625.968 293.128 626.1 292.703 626.232 292.292C626.378 291.867 626.503 291.507 626.606 291.214L628.696 285.428H630.654L626.364 297H624.428ZM632.456 283.25V281.094H634.392V283.25H632.456ZM632.456 297V285.428H634.392V297H632.456ZM641.797 297.264C640.682 297.264 639.744 297.051 638.981 296.626C638.233 296.186 637.661 295.519 637.265 294.624C636.884 293.715 636.693 292.578 636.693 291.214C636.693 289.85 636.884 288.721 637.265 287.826C637.661 286.931 638.24 286.264 639.003 285.824C639.78 285.384 640.734 285.164 641.863 285.164C642.655 285.164 643.337 285.267 643.909 285.472C644.496 285.677 644.98 285.978 645.361 286.374C645.742 286.77 646.021 287.247 646.197 287.804C646.388 288.361 646.483 288.999 646.483 289.718H644.525C644.525 289.043 644.43 288.493 644.239 288.068C644.063 287.628 643.777 287.305 643.381 287.1C642.985 286.88 642.464 286.77 641.819 286.77C641.174 286.77 640.616 286.917 640.147 287.21C639.678 287.489 639.318 287.936 639.069 288.552C638.82 289.168 638.695 289.982 638.695 290.994V291.456C638.695 292.409 638.812 293.201 639.047 293.832C639.296 294.463 639.656 294.925 640.125 295.218C640.594 295.511 641.166 295.658 641.841 295.658C642.501 295.658 643.029 295.541 643.425 295.306C643.836 295.071 644.129 294.734 644.305 294.294C644.496 293.854 644.591 293.326 644.591 292.71H646.483C646.483 293.355 646.388 293.957 646.197 294.514C646.021 295.071 645.742 295.555 645.361 295.966C644.98 296.377 644.496 296.699 643.909 296.934C643.322 297.154 642.618 297.264 641.797 297.264ZM653.425 297.264C652.281 297.264 651.313 297.051 650.521 296.626C649.744 296.186 649.15 295.519 648.739 294.624C648.343 293.729 648.145 292.593 648.145 291.214C648.145 289.821 648.343 288.684 648.739 287.804C649.15 286.909 649.751 286.249 650.543 285.824C651.335 285.384 652.325 285.164 653.513 285.164C654.598 285.164 655.508 285.377 656.241 285.802C656.974 286.213 657.524 286.836 657.891 287.672C658.272 288.493 658.463 289.527 658.463 290.774V291.698H650.147C650.176 292.622 650.308 293.385 650.543 293.986C650.792 294.573 651.159 295.005 651.643 295.284C652.127 295.548 652.736 295.68 653.469 295.68C653.968 295.68 654.4 295.621 654.767 295.504C655.148 295.372 655.464 295.189 655.713 294.954C655.977 294.719 656.175 294.441 656.307 294.118C656.439 293.795 656.512 293.443 656.527 293.062H658.419C658.404 293.678 658.287 294.25 658.067 294.778C657.847 295.291 657.524 295.731 657.099 296.098C656.674 296.465 656.153 296.751 655.537 296.956C654.921 297.161 654.217 297.264 653.425 297.264ZM650.191 290.246H656.461C656.461 289.601 656.388 289.058 656.241 288.618C656.094 288.178 655.882 287.819 655.603 287.54C655.339 287.261 655.024 287.063 654.657 286.946C654.305 286.814 653.902 286.748 653.447 286.748C652.772 286.748 652.2 286.873 651.731 287.122C651.262 287.371 650.902 287.753 650.653 288.266C650.404 288.779 650.25 289.439 650.191 290.246ZM664.906 297.264C664.114 297.264 663.417 297.183 662.816 297.022C662.215 296.861 661.716 296.626 661.32 296.318C660.924 296.01 660.623 295.643 660.418 295.218C660.213 294.793 660.11 294.309 660.11 293.766C660.11 293.693 660.11 293.627 660.11 293.568C660.11 293.495 660.117 293.436 660.132 293.392H662.046C662.031 293.451 662.024 293.502 662.024 293.546C662.024 293.59 662.024 293.634 662.024 293.678C662.039 294.191 662.171 294.595 662.42 294.888C662.684 295.181 663.043 295.387 663.498 295.504C663.953 295.621 664.459 295.68 665.016 295.68C665.5 295.68 665.947 295.621 666.358 295.504C666.769 295.372 667.091 295.181 667.326 294.932C667.575 294.668 667.7 294.338 667.7 293.942C667.7 293.458 667.539 293.091 667.216 292.842C666.908 292.578 666.497 292.373 665.984 292.226C665.471 292.079 664.935 291.925 664.378 291.764C663.909 291.632 663.439 291.485 662.97 291.324C662.501 291.163 662.075 290.965 661.694 290.73C661.327 290.495 661.027 290.195 660.792 289.828C660.572 289.447 660.462 288.97 660.462 288.398C660.462 287.885 660.565 287.43 660.77 287.034C660.99 286.638 661.298 286.301 661.694 286.022C662.09 285.743 662.567 285.538 663.124 285.406C663.696 285.259 664.327 285.186 665.016 285.186C665.749 285.186 666.387 285.267 666.93 285.428C667.487 285.589 667.949 285.817 668.316 286.11C668.683 286.403 668.954 286.741 669.13 287.122C669.306 287.489 669.394 287.885 669.394 288.31C669.394 288.398 669.394 288.486 669.394 288.574C669.394 288.647 669.387 288.706 669.372 288.75H667.48V288.508C667.48 288.215 667.399 287.936 667.238 287.672C667.091 287.393 666.827 287.173 666.446 287.012C666.079 286.836 665.566 286.748 664.906 286.748C664.481 286.748 664.114 286.785 663.806 286.858C663.498 286.917 663.241 287.019 663.036 287.166C662.831 287.298 662.677 287.459 662.574 287.65C662.471 287.826 662.42 288.031 662.42 288.266C662.42 288.647 662.545 288.941 662.794 289.146C663.043 289.351 663.373 289.52 663.784 289.652C664.209 289.784 664.664 289.931 665.148 290.092C665.661 290.239 666.182 290.393 666.71 290.554C667.253 290.701 667.744 290.891 668.184 291.126C668.639 291.361 668.998 291.683 669.262 292.094C669.541 292.49 669.68 293.018 669.68 293.678C669.68 294.294 669.563 294.829 669.328 295.284C669.093 295.739 668.756 296.113 668.316 296.406C667.891 296.699 667.385 296.912 666.798 297.044C666.226 297.191 665.595 297.264 664.906 297.264ZM672.513 297V294.69H674.669V297H672.513Z" fill="white"/>
<defs>
<linearGradient id="paint0_linear_244_8330" x1="294.833" y1="-2.06412e-05" x2="1013.21" y2="774.68" gradientUnits="userSpaceOnUse">
<stop stop-color="#1C4E5E"/>
</linearGradient>
<linearGradient id="paint1_linear_244_8330" x1="294.833" y1="-2.06412e-05" x2="1013.21" y2="774.68" gradientUnits="userSpaceOnUse">
<stop stop-color="#0F0F0F"/>
<stop offset="1"/>
</linearGradient>
<linearGradient id="paint2_linear_244_8330" x1="292.509" y1="0" x2="292.509" y2="595.078" gradientUnits="userSpaceOnUse">
<stop stop-color="#001A2A"/>
<stop offset="1" stop-color="#FFF8F0" stop-opacity="0"/>
</linearGradient>
<linearGradient id="paint3_linear_244_8330" x1="265.977" y1="0" x2="265.977" y2="521.33" gradientUnits="userSpaceOnUse">
<stop stop-color="#83B5C5"/>
<stop offset="1" stop-color="#FFF8F0" stop-opacity="0"/>
</linearGradient>
</defs>
</svg>
