<svg width="212" height="212" viewBox="0 0 212 212" fill="none" xmlns="http://www.w3.org/2000/svg">
<path d="M201.787 42.763V147.301C201.787 155.85 194.857 162.779 186.309 162.779H24.9349C16.3867 162.779 9.45703 155.85 9.45703 147.301V42.763C9.45703 34.2148 16.3867 27.2852 24.9349 27.2852H186.31C194.858 27.2852 201.787 34.2148 201.787 42.763Z" fill="#FEFDFE"/>
<path d="M9.45703 135.586V147.299C9.45703 155.847 16.3867 162.777 24.9345 162.777H186.309C194.857 162.777 201.787 155.847 201.787 147.299V135.586H9.45703Z" fill="#EAEAEA"/>
<path d="M83.9609 162.777H127.282V190.198H83.9609V162.777Z" fill="#FEFDFE"/>
<path d="M146.048 198.296C146.048 202.767 142.423 206.392 137.951 206.392H73.2918C68.8202 206.392 65.1953 202.767 65.1953 198.296C65.1953 193.824 68.8202 190.199 73.2918 190.199H137.951C142.423 190.199 146.048 193.824 146.048 198.296Z" fill="#EAEAEA"/>
<path d="M105.621 155.115C108.898 155.115 111.555 152.459 111.555 149.182C111.555 145.905 108.898 143.248 105.621 143.248C102.344 143.248 99.6875 145.905 99.6875 149.182C99.6875 152.459 102.344 155.115 105.621 155.115Z" fill="#FEFDFE"/>
<path d="M169.991 13.2489V135.484H41.25V13.2489C41.25 8.60985 45.0107 4.84961 49.6493 4.84961H161.592C166.231 4.84961 169.991 8.61026 169.991 13.2489Z" fill="#FEFDFE"/>
<path d="M169.991 35.4122V13.2489C169.991 8.61026 166.23 4.84961 161.591 4.84961H49.6493C45.0102 4.84961 41.25 8.61026 41.25 13.2489V35.4122H169.991Z" fill="#EAEAEA"/>
<path d="M65.3517 20.1309C65.3517 23.1848 62.8758 25.6603 59.8223 25.6603C56.7684 25.6603 54.293 23.1844 54.293 20.1309C54.293 17.0774 56.7689 14.6016 59.8223 14.6016C62.8758 14.6016 65.3517 17.0774 65.3517 20.1309ZM85.6366 20.1309C85.6366 23.1848 83.1607 25.6603 80.1072 25.6603C77.0537 25.6603 74.5778 23.1844 74.5778 20.1309C74.5778 17.0774 77.0537 14.6016 80.1072 14.6016C83.1607 14.6016 85.6366 17.0774 85.6366 20.1309ZM105.921 20.1309C105.921 23.1848 103.446 25.6603 100.392 25.6603C97.3385 25.6603 94.8626 23.1844 94.8626 20.1309C94.8626 17.0774 97.3385 14.6016 100.392 14.6016C103.446 14.6016 105.921 17.0774 105.921 20.1309Z" fill="#FEFDFE"/>
<path d="M204.14 42.7646C204.14 32.9283 196.136 24.9247 186.3 24.9247H179.434C178.808 24.9249 178.207 25.1739 177.764 25.6168C177.321 26.0597 177.073 26.6603 177.072 27.2867C177.073 27.9131 177.321 28.5138 177.764 28.9567C178.207 29.3996 178.808 29.6485 179.434 29.6487H186.3C193.532 29.6487 199.416 35.5333 199.416 42.765V133.225H172.352V13.2487C172.352 7.31504 167.526 2.48828 161.592 2.48828H49.6496C43.7159 2.48828 38.8883 7.31504 38.8883 13.2487V133.225H11.8244V42.7646C11.8244 35.5329 17.7082 29.6483 24.9407 29.6483H31.8055C32.432 29.6483 33.0328 29.3995 33.4757 28.9565C33.9187 28.5135 34.1676 27.9128 34.1676 27.2863C34.1676 26.6599 33.9187 26.0591 33.4757 25.6161C33.0328 25.1732 32.432 24.9243 31.8055 24.9243H24.9407C15.1035 24.9243 7.10076 32.9279 7.10076 42.7642L7.09375 147.3C7.09375 157.136 15.0965 165.139 24.9328 165.139H81.5972V187.837H73.2911C67.5233 187.837 62.8323 192.528 62.8323 198.294C62.8323 204.062 67.5237 208.753 73.2911 208.753H137.95C143.717 208.753 148.408 204.062 148.408 198.294C148.408 192.528 143.717 187.837 137.95 187.837H129.642V165.139H186.307C196.144 165.139 204.147 157.136 204.147 147.3L204.14 42.7646ZM43.6127 37.7732H167.628V133.121H43.6127V37.7732ZM43.6127 13.2479C43.6127 9.91882 46.3205 7.21107 49.6496 7.21107H161.592C164.921 7.21107 167.628 9.91882 167.628 13.2479V33.0496H43.6127V13.2479ZM199.416 137.948V147.298C199.416 154.53 193.532 160.415 186.3 160.415H24.9407C17.7082 160.415 11.8244 154.53 11.8244 147.298V137.948H199.416ZM143.684 198.294C143.684 201.457 141.112 204.03 137.95 204.03H73.2911C70.1283 204.03 67.5559 201.457 67.5559 198.294C67.5559 195.133 70.1283 192.56 73.2911 192.56H137.951C141.112 192.561 143.684 195.133 143.684 198.294ZM124.919 187.837H86.3212V165.14H124.919V187.837Z" fill="#EAEAEA"/>
<path d="M105.62 157.477C110.194 157.477 113.915 153.756 113.915 149.181C113.915 144.606 110.194 140.885 105.62 140.885C101.047 140.885 97.3257 144.606 97.3257 149.181C97.3257 153.756 101.047 157.477 105.62 157.477ZM105.62 145.609C107.589 145.609 109.192 147.211 109.192 149.181C109.192 151.151 107.59 152.753 105.62 152.753C103.652 152.753 102.049 151.151 102.049 149.181C102.049 147.211 103.652 145.609 105.62 145.609ZM59.8211 12.2383C55.4696 12.2383 51.9297 15.7778 51.9297 20.1297C51.9297 24.4815 55.4692 28.0211 59.8211 28.0211C64.1725 28.0211 67.7137 24.4815 67.7137 20.1297C67.7137 15.7778 64.1725 12.2383 59.8211 12.2383ZM59.8211 23.297C58.0742 23.297 56.6537 21.8761 56.6537 20.1297C56.6537 18.3832 58.0746 16.9623 59.8211 16.9623C61.5675 16.9623 62.9901 18.3832 62.9901 20.1297C62.9901 21.8761 61.5679 23.297 59.8211 23.297ZM80.1071 12.2383C75.7557 12.2383 72.2145 15.7778 72.2145 20.1297C72.2145 24.4815 75.7557 28.0211 80.1071 28.0211C84.4586 28.0211 87.9985 24.4815 87.9985 20.1297C87.9985 15.7778 84.4586 12.2383 80.1071 12.2383ZM80.1071 23.297C78.3603 23.297 76.9381 21.8761 76.9381 20.1297C76.9381 18.3832 78.3603 16.9623 80.1071 16.9623C81.854 16.9623 83.2745 18.3832 83.2745 20.1297C83.2745 21.8761 81.854 23.297 80.1071 23.297ZM100.392 12.2383C96.0405 12.2383 92.5006 15.7778 92.5006 20.1297C92.5006 24.4815 96.0401 28.0211 100.392 28.0211C104.744 28.0211 108.283 24.4815 108.283 20.1297C108.283 15.7778 104.743 12.2383 100.392 12.2383ZM100.392 23.297C98.6451 23.297 97.2246 21.8761 97.2246 20.1297C97.2246 18.3832 98.6455 16.9623 100.392 16.9623C102.138 16.9623 103.559 18.3832 103.559 20.1297C103.559 21.8761 102.138 23.297 100.392 23.297Z" fill="#C4C4C4"/>
<path d="M96.2026 86.75H116.245V102.28H96.2026V86.75ZM123.573 86.75H143.616V102.28H123.573V86.75ZM68.832 86.75H88.8747V102.28H68.832V86.75Z" fill="#1B4D5D"/>
<path d="M111.301 86.7402H116.247V102.273H111.301V86.7402ZM138.671 86.7402H143.617V102.273H138.671V86.7402ZM83.9297 86.7402H88.8754V102.273H83.9297V86.7402Z" fill="#3F8CF4" fill-opacity="0.0941176"/>
<path d="M68.832 49.582H143.616V75.9018H68.832V49.582Z" fill="#F4FBFF"/>
<path d="M133.59 49.5781H143.621V75.8964H133.59V49.5781Z" fill="#3F8CF4" fill-opacity="0.0941176"/>
<path d="M68.8314 77.401L143.568 77.3934C144.568 77.2958 145.103 76.7319 145.103 75.9036V49.5835C145.103 48.767 144.58 48.2025 143.613 48.0938H68.8296C68.08 48.2621 67.3398 48.5172 67.3398 49.5835V75.9036C67.3398 76.7072 68.0479 77.401 68.8314 77.401ZM142.124 73.8081L110.705 62.7425L142.124 51.6768V73.8081ZM134.88 74.4138H77.5654L106.223 64.3209L134.88 74.4138ZM106.223 61.1639L77.571 51.0731H134.874L106.223 61.1639ZM101.741 62.7425L70.3194 73.8086V51.6762L101.741 62.7425ZM68.8296 103.769H88.8728C89.6428 103.769 90.3626 102.994 90.3626 102.28V86.7504C90.3626 86.0257 89.6453 85.2606 88.8728 85.2606H68.8296C68.0492 85.2606 67.3398 86.0255 67.3398 86.7504V102.28C67.3398 102.99 67.984 103.769 68.8296 103.769ZM87.383 99.2339L81.2851 94.514L87.383 89.7941V99.2339ZM84.5277 100.79H73.1765L78.8522 96.3972L84.5277 100.79ZM78.8522 92.6311L73.179 88.2402H84.5252L78.8522 92.6311ZM76.4193 94.5143L70.3194 99.2354V89.7928L76.4193 94.5143ZM116.244 85.2606H96.201C95.4394 85.2606 94.7112 86.0097 94.7112 86.7504V102.28C94.7112 102.992 95.3605 103.77 96.201 103.77H116.244C117.039 103.77 117.734 102.934 117.734 102.28V86.7504C117.734 86.0319 117.021 85.2606 116.244 85.2606ZM97.6908 89.7944L103.789 94.5143L97.6908 99.2341V89.7944ZM100.549 88.2402H111.895L106.222 92.6311L100.549 88.2402ZM106.222 96.3972L111.897 100.79H100.546L106.222 96.3972ZM108.654 94.5143L114.754 89.7931V99.2357L108.654 94.5143ZM143.614 85.2606H123.573C122.828 85.2606 122.083 85.9855 122.083 86.7504V102.28C122.083 102.972 122.715 103.77 123.573 103.77H143.614C144.421 103.77 145.104 103.025 145.104 102.28V86.7504C145.103 86.0278 144.389 85.2606 143.614 85.2606ZM125.062 89.7944L131.16 94.5143L125.062 99.2341V89.7944ZM127.92 88.2402H139.266L133.593 92.6311L127.92 88.2402ZM133.593 96.3972L139.269 100.79H127.917L133.593 96.3972ZM136.026 94.5143L142.124 89.7944V99.2341L136.026 94.5143ZM68.8296 110.529H88.8728C89.6952 110.529 90.3626 109.862 90.3626 109.04C90.3626 108.217 89.6952 107.55 88.8728 107.55H68.8296C68.0072 107.55 67.3398 108.217 67.3398 109.04C67.3398 109.862 68.0072 110.529 68.8296 110.529ZM68.8296 117.289H88.8728C89.6952 117.289 90.3626 116.622 90.3626 115.8C90.3626 114.977 89.6952 114.31 88.8728 114.31H68.8296C68.0072 114.31 67.3398 114.977 67.3398 115.8C67.3398 116.622 68.0072 117.289 68.8296 117.289ZM68.8296 124.049H78.1171C78.9396 124.049 79.6069 123.382 79.6069 122.56C79.6069 121.737 78.9396 121.07 78.1171 121.07H68.8296C68.0072 121.07 67.3398 121.737 67.3398 122.56C67.3398 123.382 68.0072 124.049 68.8296 124.049ZM116.244 107.55H96.201C95.3786 107.55 94.7112 108.217 94.7112 109.04C94.7112 109.862 95.3786 110.53 96.201 110.53H116.244C117.067 110.53 117.734 109.862 117.734 109.04C117.734 108.217 117.067 107.55 116.244 107.55ZM116.244 114.31H96.201C95.3786 114.31 94.7112 114.977 94.7112 115.8C94.7112 116.622 95.3786 117.289 96.201 117.289H116.244C117.067 117.289 117.734 116.622 117.734 115.8C117.734 114.977 117.067 114.31 116.244 114.31ZM105.486 121.07H96.201C95.3786 121.07 94.7112 121.737 94.7112 122.56C94.7112 123.382 95.3786 124.049 96.201 124.049H105.486C106.309 124.049 106.976 123.382 106.976 122.56C106.976 121.737 106.309 121.07 105.486 121.07ZM143.614 107.55H123.573C122.75 107.55 122.083 108.217 122.083 109.04C122.083 109.862 122.75 110.53 123.573 110.53H143.614C144.436 110.53 145.104 109.862 145.104 109.04C145.104 108.217 144.436 107.55 143.614 107.55ZM143.614 114.31H123.573C122.75 114.31 122.083 114.977 122.083 115.8C122.083 116.622 122.75 117.289 123.573 117.289H143.614C144.009 117.289 144.388 117.132 144.667 116.853C144.946 116.574 145.103 116.195 145.104 115.8C145.103 115.405 144.946 115.026 144.667 114.746C144.388 114.467 144.009 114.31 143.614 114.31ZM132.858 121.07H123.572C122.75 121.07 122.083 121.737 122.083 122.56C122.083 123.382 122.75 124.049 123.572 124.049H132.858C133.68 124.049 134.348 123.382 134.348 122.56C134.348 121.737 133.68 121.07 132.858 121.07Z" fill="#1B4D5D"/>
</svg>
