<svg width="18" height="18" viewBox="0 0 18 18" fill="none" xmlns="http://www.w3.org/2000/svg">
<path d="M17.9922 6.04113V2.00299C17.9922 0.900705 17.0955 0.00390625 15.9931 0.00390625H1.99909C0.896764 0.00390625 0 0.900705 0 2.00299V15.9971C0 17.0994 0.896764 17.9962 1.99909 17.9962H15.9932C17.0955 17.9962 17.9923 17.0994 17.9923 15.9971V6.22215C18.0026 6.16226 18.0026 6.10103 17.9922 6.04113ZM12.2497 1.05803H15.9932C16.5142 1.05803 16.9381 1.48194 16.9381 2.00299V5.6046H12.2497V1.05803ZM5.46102 16.942H1.99909C1.478 16.942 1.05412 16.5181 1.05412 15.9971V12.3933H5.46102V16.942ZM5.46102 11.3391H1.05412V6.65872H5.46102V11.3391ZM5.46106 5.6046H1.05412V2.00299C1.05412 1.48194 1.478 1.05803 1.99909 1.05803H5.46106V5.6046ZM11.1956 16.942H6.51511V12.3933H11.1956V16.942ZM11.1956 11.3391H6.51511V6.65872H11.1956V11.3391ZM11.1956 5.6046H6.51511V1.05803H11.1956V5.6046ZM16.9381 15.9971C16.9381 16.5181 16.5142 16.942 15.9932 16.942H12.2497V12.3933H16.9381V15.9971ZM16.9381 11.3391H12.2497V6.65872H16.9381V11.3391Z" fill="#3B4A53"/>
</svg>
