<svg width="264" height="40" viewBox="0 0 264 40" fill="none" xmlns="http://www.w3.org/2000/svg">
<path d="M25.952 3.4H39.008L38.624 5.224C38.048 5.576 37.376 5.88 36.608 6.136C35.872 6.36 35.184 6.52 34.544 6.616L22.928 18.28C23.44 19.336 24.064 20.504 24.8 21.784C25.536 23.064 26.304 24.392 27.104 25.768C27.936 27.144 28.784 28.536 29.648 29.944C30.544 31.352 31.424 32.696 32.288 33.976L34.304 35.368L33.968 37H25.904L24.224 35.656C23.648 34.696 23.056 33.64 22.448 32.488C21.84 31.304 21.248 30.088 20.672 28.84C20.096 27.56 19.536 26.28 18.992 25C18.48 23.72 18.016 22.472 17.6 21.256H15.296L12.656 33.784C13.296 33.944 13.872 34.152 14.384 34.408C14.928 34.664 15.376 34.92 15.728 35.176L15.392 37H0.848L1.184 35.176C1.888 34.824 2.592 34.536 3.296 34.312C4.032 34.088 4.752 33.912 5.456 33.784L11.216 6.616C10.48 6.52 9.792 6.344 9.152 6.088C8.512 5.832 7.984 5.544 7.568 5.224L7.952 3.4H22.496L22.112 5.224C21.664 5.48 21.104 5.736 20.432 5.992C19.792 6.248 19.12 6.456 18.416 6.616L15.824 18.808L18.656 18.136L28.784 6.616C28.144 6.456 27.536 6.264 26.96 6.04C26.416 5.784 25.952 5.512 25.568 5.224L25.952 3.4ZM40.2598 4.264V2.728C40.7398 2.536 41.3478 2.344 42.0838 2.152C42.8518 1.928 43.6678 1.736 44.5318 1.576C45.4278 1.384 46.3398 1.224 47.2678 1.096C48.1958 0.967999 49.0758 0.903998 49.9078 0.903998L50.9158 1.336L46.8838 20.008H47.1238C47.7318 18.984 48.4038 18.008 49.1398 17.08C49.9078 16.152 50.7078 15.352 51.5398 14.68C52.3718 13.976 53.2518 13.432 54.1798 13.048C55.1078 12.632 56.0518 12.424 57.0118 12.424C58.4838 12.424 59.6198 12.856 60.4198 13.72C61.2198 14.552 61.6198 15.592 61.6198 16.84C61.6198 17.704 61.5398 18.632 61.3798 19.624C61.2198 20.616 61.0278 21.576 60.8038 22.504L58.0678 33.688H61.6198V35.32C60.9798 35.832 60.0358 36.312 58.7878 36.76C57.5718 37.208 56.1798 37.432 54.6118 37.432C53.5558 37.432 52.7878 37.224 52.3078 36.808C51.8278 36.36 51.5878 35.832 51.5878 35.224C51.5878 34.648 51.6518 34.056 51.7798 33.448C51.9398 32.84 52.0998 32.136 52.2598 31.336L54.0358 23.32C54.2598 22.328 54.4518 21.432 54.6118 20.632C54.8038 19.8 54.8998 19.016 54.8998 18.28C54.8998 17.704 54.7718 17.224 54.5158 16.84C54.2918 16.456 53.9398 16.264 53.4598 16.264C52.7238 16.264 51.9878 16.536 51.2518 17.08C50.5158 17.592 49.8278 18.216 49.1878 18.952C48.5478 19.688 47.9718 20.456 47.4598 21.256C46.9798 22.056 46.6278 22.728 46.4038 23.272L43.5718 37H36.9478L43.4278 4.888L40.2598 4.264ZM90.1344 33.688V35.32C89.8144 35.576 89.3824 35.832 88.8384 36.088C88.3264 36.344 87.7504 36.568 87.1104 36.76C86.5024 36.952 85.8464 37.112 85.1424 37.24C84.4704 37.368 83.7984 37.432 83.1264 37.432C81.9744 37.432 81.1744 37.208 80.7264 36.76C80.3104 36.28 80.1024 35.784 80.1024 35.272C80.1024 34.696 80.1664 33.896 80.2944 32.872C80.4224 31.848 80.6784 30.664 81.0624 29.32H80.8704C80.4544 30.088 79.9264 30.952 79.2864 31.912C78.6464 32.872 77.8944 33.784 77.0304 34.648C76.1664 35.48 75.1744 36.184 74.0544 36.76C72.9344 37.304 71.7024 37.576 70.3584 37.576C69.0464 37.576 67.9744 37.192 67.1424 36.424C66.3424 35.624 65.9424 34.504 65.9424 33.064C65.9424 32.36 66.0384 31.352 66.2304 30.04C66.4544 28.728 66.7104 27.304 66.9984 25.768C67.3184 24.2 67.6544 22.6 68.0064 20.968C68.3904 19.304 68.7264 17.784 69.0144 16.408L66.1824 15.784V14.152C66.6944 13.96 67.3344 13.768 68.1024 13.576C68.8704 13.384 69.6704 13.208 70.5024 13.048C71.3344 12.888 72.1824 12.76 73.0464 12.664C73.9104 12.536 74.6944 12.456 75.3984 12.424L76.4544 13C75.9424 15.4 75.4144 17.688 74.8704 19.864C74.3584 22.008 73.8784 24.28 73.4304 26.68C73.2704 27.448 73.0944 28.296 72.9024 29.224C72.7424 30.152 72.6624 31.08 72.6624 32.008C72.6624 32.584 72.8064 33.016 73.0944 33.304C73.4144 33.592 73.7984 33.736 74.2464 33.736C75.0464 33.736 75.8304 33.432 76.5984 32.824C77.3984 32.184 78.1184 31.432 78.7584 30.568C79.4304 29.672 80.0064 28.76 80.4864 27.832C80.9984 26.904 81.3664 26.136 81.5904 25.528L84.0864 13H90.5664L86.7744 33.688H90.1344ZM99.4445 4.888L96.1805 4.264V2.632C96.6285 2.44 97.2365 2.248 98.0045 2.056C98.7725 1.864 99.6045 1.688 100.501 1.528C101.397 1.336 102.309 1.192 103.237 1.096C104.197 0.967999 105.077 0.903998 105.877 0.903998L106.837 1.432L100.549 33.688H103.957V35.32C103.637 35.576 103.205 35.832 102.661 36.088C102.117 36.344 101.509 36.568 100.837 36.76C100.197 36.952 99.5245 37.112 98.8205 37.24C98.1165 37.368 97.4445 37.432 96.8045 37.432C95.7165 37.432 94.9165 37.208 94.4045 36.76C93.9245 36.28 93.6845 35.768 93.6845 35.224C93.6845 34.584 93.7325 33.96 93.8285 33.352C93.9245 32.744 94.0525 32.072 94.2125 31.336L99.4445 4.888ZM116.86 33.736C117.468 33.736 118.092 33.464 118.732 32.92C119.404 32.376 120.028 31.704 120.604 30.904C121.212 30.072 121.756 29.176 122.236 28.216C122.748 27.224 123.18 26.312 123.532 25.48L125.308 15.976C124.924 15.72 124.556 15.544 124.204 15.448C123.884 15.32 123.452 15.256 122.908 15.256C121.628 15.256 120.476 15.688 119.452 16.552C118.428 17.384 117.564 18.488 116.86 19.864C116.156 21.208 115.612 22.728 115.228 24.424C114.876 26.12 114.7 27.816 114.7 29.512C114.7 30.984 114.876 32.056 115.228 32.728C115.58 33.4 116.124 33.736 116.86 33.736ZM122.812 29.368C122.396 30.392 121.868 31.4 121.228 32.392C120.62 33.352 119.916 34.216 119.116 34.984C118.316 35.752 117.436 36.376 116.476 36.856C115.516 37.336 114.476 37.576 113.356 37.576C111.692 37.576 110.364 36.968 109.372 35.752C108.38 34.536 107.884 32.728 107.884 30.328C107.884 27.832 108.22 25.512 108.892 23.368C109.596 21.192 110.572 19.304 111.82 17.704C113.1 16.072 114.636 14.808 116.428 13.912C118.22 12.984 120.22 12.52 122.428 12.52C123.26 12.52 123.964 12.616 124.54 12.808C125.148 13 125.788 13.24 126.46 13.528C127.292 13.208 128.188 12.968 129.148 12.808C130.108 12.648 131.26 12.568 132.604 12.568L128.572 33.688H131.932V35.32C131.612 35.576 131.18 35.832 130.636 36.088C130.124 36.344 129.548 36.568 128.908 36.76C128.3 36.952 127.66 37.112 126.988 37.24C126.348 37.368 125.74 37.432 125.164 37.432C124.044 37.432 123.244 37.192 122.764 36.712C122.284 36.232 122.044 35.736 122.044 35.224C122.044 34.648 122.124 33.896 122.284 32.968C122.444 32.008 122.684 30.808 123.004 29.368H122.812Z" fill="#1F160A"/>
<path d="M132.531 37.048L132.867 35.224C133.571 34.872 134.291 34.568 135.027 34.312C135.763 34.056 136.467 33.896 137.139 33.832L142.899 6.664C142.259 6.536 141.619 6.36 140.979 6.136C140.339 5.88 139.763 5.592 139.251 5.272L139.635 3.448H147.267C148.483 3.448 149.651 3.4 150.771 3.304C151.923 3.208 153.203 3.16 154.611 3.16C156.147 3.16 157.555 3.288 158.835 3.544C160.115 3.768 161.203 4.136 162.099 4.648C163.027 5.128 163.747 5.784 164.259 6.616C164.771 7.416 165.027 8.392 165.027 9.544C165.027 10.888 164.787 12.088 164.307 13.144C163.859 14.2 163.219 15.128 162.387 15.928C161.587 16.728 160.627 17.384 159.507 17.896C158.387 18.408 157.171 18.792 155.859 19.048V19.24C156.723 19.304 157.587 19.464 158.451 19.72C159.315 19.976 160.083 20.36 160.755 20.872C161.459 21.384 162.019 22.04 162.435 22.84C162.883 23.608 163.107 24.536 163.107 25.624C163.107 27.352 162.755 28.936 162.051 30.376C161.379 31.784 160.371 33.016 159.027 34.072C157.683 35.096 156.003 35.896 153.987 36.472C151.971 37.048 149.635 37.336 146.979 37.336C146.307 37.336 145.571 37.32 144.771 37.288C144.003 37.256 143.219 37.224 142.419 37.192C141.619 37.16 140.851 37.128 140.115 37.096C139.379 37.064 138.755 37.048 138.243 37.048H132.531ZM147.603 34.216C148.787 34.216 149.875 34.008 150.867 33.592C151.859 33.176 152.707 32.6 153.411 31.864C154.115 31.096 154.659 30.216 155.043 29.224C155.459 28.2 155.667 27.096 155.667 25.912C155.667 24.152 155.091 22.984 153.939 22.408C152.819 21.832 151.235 21.544 149.187 21.544H146.643L144.051 33.88C144.467 33.976 144.915 34.056 145.395 34.12C145.875 34.184 146.611 34.216 147.603 34.216ZM148.851 18.424C149.395 18.424 149.939 18.408 150.483 18.376C151.059 18.312 151.587 18.248 152.067 18.184C153.987 17.448 155.427 16.392 156.387 15.016C157.347 13.64 157.827 12.04 157.827 10.216C157.827 8.968 157.459 8.008 156.723 7.336C155.987 6.632 154.787 6.28 153.123 6.28C152.451 6.28 151.843 6.296 151.299 6.328C150.787 6.36 150.307 6.408 149.859 6.472L147.315 18.424H148.851ZM174.99 33.736C175.598 33.736 176.222 33.464 176.862 32.92C177.534 32.376 178.158 31.704 178.734 30.904C179.342 30.072 179.886 29.176 180.366 28.216C180.878 27.224 181.31 26.312 181.662 25.48L183.438 15.976C183.054 15.72 182.686 15.544 182.334 15.448C182.014 15.32 181.582 15.256 181.038 15.256C179.758 15.256 178.606 15.688 177.582 16.552C176.558 17.384 175.694 18.488 174.99 19.864C174.286 21.208 173.742 22.728 173.358 24.424C173.006 26.12 172.83 27.816 172.83 29.512C172.83 30.984 173.006 32.056 173.358 32.728C173.71 33.4 174.254 33.736 174.99 33.736ZM180.942 29.368C180.526 30.392 179.998 31.4 179.358 32.392C178.75 33.352 178.046 34.216 177.246 34.984C176.446 35.752 175.566 36.376 174.606 36.856C173.646 37.336 172.606 37.576 171.486 37.576C169.822 37.576 168.494 36.968 167.502 35.752C166.51 34.536 166.014 32.728 166.014 30.328C166.014 27.832 166.35 25.512 167.022 23.368C167.726 21.192 168.702 19.304 169.95 17.704C171.23 16.072 172.766 14.808 174.558 13.912C176.35 12.984 178.35 12.52 180.558 12.52C181.39 12.52 182.094 12.616 182.67 12.808C183.278 13 183.918 13.24 184.59 13.528C185.422 13.208 186.318 12.968 187.278 12.808C188.238 12.648 189.39 12.568 190.734 12.568L186.702 33.688H190.062V35.32C189.742 35.576 189.31 35.832 188.766 36.088C188.254 36.344 187.678 36.568 187.038 36.76C186.43 36.952 185.79 37.112 185.118 37.24C184.478 37.368 183.87 37.432 183.294 37.432C182.174 37.432 181.374 37.192 180.894 36.712C180.414 36.232 180.174 35.736 180.174 35.224C180.174 34.648 180.254 33.896 180.414 32.968C180.574 32.008 180.814 30.808 181.134 29.368H180.942ZM197.669 28.216V28.168L206.837 18.616C205.589 18.648 204.229 18.6 202.757 18.472C201.317 18.312 199.829 18.104 198.293 17.848L196.085 21.304L194.453 21.016L195.125 14.248C195.317 13 196.229 12.376 197.861 12.376C198.501 12.376 199.301 12.44 200.261 12.568C201.221 12.664 202.293 12.792 203.477 12.952C204.693 13.112 205.989 13.272 207.365 13.432C208.773 13.56 210.229 13.672 211.733 13.768L212.981 12.424C213.429 12.456 213.893 12.68 214.373 13.096C214.853 13.48 215.125 13.944 215.189 14.488L199.733 30.616C201.365 30.968 202.949 31.416 204.485 31.96C206.021 32.472 207.461 33.096 208.805 33.832L212.021 30.664L213.605 31.336L211.493 38.104C211.333 38.584 211.013 38.984 210.533 39.304C210.085 39.624 209.541 39.784 208.901 39.784C208.229 39.784 207.413 39.576 206.453 39.16C205.525 38.744 204.469 38.264 203.285 37.72C202.101 37.208 200.837 36.696 199.493 36.184C198.149 35.672 196.741 35.32 195.269 35.128L193.013 37.432C192.757 37.432 192.501 37.368 192.245 37.24C191.989 37.112 191.749 36.952 191.525 36.76C191.301 36.568 191.125 36.344 190.997 36.088C190.837 35.832 190.773 35.56 190.805 35.272L197.669 28.216ZM224.682 33.736C225.29 33.736 225.914 33.464 226.554 32.92C227.226 32.376 227.85 31.704 228.426 30.904C229.034 30.072 229.578 29.176 230.058 28.216C230.57 27.224 231.002 26.312 231.354 25.48L233.13 15.976C232.746 15.72 232.378 15.544 232.026 15.448C231.706 15.32 231.274 15.256 230.73 15.256C229.45 15.256 228.298 15.688 227.274 16.552C226.25 17.384 225.386 18.488 224.682 19.864C223.978 21.208 223.434 22.728 223.05 24.424C222.698 26.12 222.522 27.816 222.522 29.512C222.522 30.984 222.698 32.056 223.05 32.728C223.402 33.4 223.946 33.736 224.682 33.736ZM230.634 29.368C230.218 30.392 229.69 31.4 229.05 32.392C228.442 33.352 227.738 34.216 226.938 34.984C226.138 35.752 225.258 36.376 224.298 36.856C223.338 37.336 222.298 37.576 221.178 37.576C219.514 37.576 218.186 36.968 217.194 35.752C216.202 34.536 215.706 32.728 215.706 30.328C215.706 27.832 216.042 25.512 216.714 23.368C217.418 21.192 218.394 19.304 219.642 17.704C220.922 16.072 222.458 14.808 224.25 13.912C226.042 12.984 228.042 12.52 230.25 12.52C231.082 12.52 231.786 12.616 232.362 12.808C232.97 13 233.61 13.24 234.282 13.528C235.114 13.208 236.01 12.968 236.97 12.808C237.93 12.648 239.082 12.568 240.426 12.568L236.394 33.688H239.754V35.32C239.434 35.576 239.002 35.832 238.458 36.088C237.946 36.344 237.37 36.568 236.73 36.76C236.122 36.952 235.482 37.112 234.81 37.24C234.17 37.368 233.562 37.432 232.986 37.432C231.866 37.432 231.066 37.192 230.586 36.712C230.106 36.232 229.866 35.736 229.866 35.224C229.866 34.648 229.946 33.896 230.106 32.968C230.266 32.008 230.506 30.808 230.826 29.368H230.634ZM256.577 17.56C255.969 17.816 255.281 18.392 254.513 19.288C253.777 20.184 253.153 21.32 252.641 22.696L249.569 37H242.849L247.121 16.408L244.385 15.784V14.152C244.929 13.896 245.553 13.672 246.257 13.48C246.993 13.256 247.761 13.08 248.561 12.952C249.393 12.792 250.241 12.68 251.105 12.616C251.969 12.52 252.801 12.456 253.601 12.424L254.561 13L253.313 18.952H253.505C254.465 17.096 255.569 15.544 256.817 14.296C258.065 13.048 259.521 12.424 261.185 12.424C261.633 12.424 262.081 12.472 262.529 12.568C262.977 12.632 263.393 12.776 263.777 13C263.841 13.672 263.777 14.408 263.585 15.208C263.425 15.976 263.201 16.712 262.913 17.416C262.625 18.12 262.289 18.744 261.905 19.288C261.521 19.832 261.153 20.2 260.801 20.392L256.577 17.56Z" fill="#1B4D5D"/>
</svg>
