<svg width="731" height="707" viewBox="0 0 731 707" fill="none" xmlns="http://www.w3.org/2000/svg">
<circle cx="359.743" cy="342.5" r="341.516" stroke="#494949" stroke-width="1.96839" stroke-dasharray="5.91 5.91"/>
<circle cx="357.777" cy="342.5" r="288.522" stroke="#C6CAD0" stroke-width="1.66295" stroke-dasharray="4.99 4.99"/>
<circle cx="357.778" cy="342.501" r="241.416" stroke="#C6CAD0" stroke-width="1.39145" stroke-dasharray="4.17 4.17"/>
<g filter="url(#filter0_d_1_194)">
<g filter="url(#filter1_di_1_194)">
<path d="M174.766 183.163C214.474 183.163 246.663 150.974 246.663 111.266C246.663 71.5585 214.474 39.3691 174.766 39.3691C135.058 39.3691 102.869 71.5585 102.869 111.266C102.869 150.974 135.058 183.163 174.766 183.163Z" fill="white"/>
</g>
<path d="M190.195 115.779H165.701V127.263H190.195V115.779Z" fill="#E9E4DD"/>
<path d="M190.195 115.779H165.701V116.6H190.195V115.779Z" fill="#9A958E"/>
<path d="M190.423 109.475H165.471V116.276H190.423V109.475Z" fill="#E9E4DD"/>
<path d="M164.425 119.328H145.449V128.225H164.425V119.328Z" fill="#E9E4DD"/>
<path d="M164.425 119.328H145.449V119.964H164.425V119.328Z" fill="#9A958E"/>
<path d="M164.6 114.443H145.269V119.712H164.6V114.443Z" fill="#E9E4DD"/>
<path d="M164.824 98.7425L144.146 106.389L147.731 116.083L168.409 108.437L164.824 98.7425Z" fill="#E9E4DD"/>
<path d="M164.824 98.7425L144.146 106.389L144.402 107.081L165.081 99.4353L164.824 98.7425Z" fill="#9A958E"/>
<path d="M163.051 93.3476L141.986 101.137L144.109 106.878L165.174 99.0894L163.051 93.3476Z" fill="#E9E4DD"/>
<path d="M196.023 100.055L170.913 86.6738L164.64 98.4463L189.749 111.827L196.023 100.055Z" fill="#E9E4DD"/>
<path d="M196.023 100.057L170.913 86.6758L170.465 87.5163L195.575 100.898L196.023 100.057Z" fill="#9A958E"/>
<path d="M199.7 93.7174L174.121 80.0859L170.405 87.058L195.984 100.689L199.7 93.7174Z" fill="#E9E4DD"/>
<path d="M168.461 81.9398L140.259 85.7012L142.022 98.9237L170.224 95.1623L168.461 81.9398Z" fill="#E9E4DD"/>
<path d="M168.461 81.9398L140.259 85.7012L140.384 86.6452L168.587 82.8838L168.461 81.9398Z" fill="#9A958E"/>
<path d="M167.753 74.6468L139.024 78.4785L140.068 86.3093L168.798 82.4775L167.753 74.6468Z" fill="#E9E4DD"/>
<path d="M189.277 130.056H147.455C146.393 130.056 145.458 129.36 145.151 128.345L134.174 91.9928C133.954 91.264 134.092 90.4723 134.546 89.8618C135 89.2505 135.716 88.8906 136.479 88.8906H200.256C201.017 88.8906 201.734 89.2514 202.187 89.8618C202.642 90.4731 202.779 91.264 202.56 91.9928L191.582 128.345C191.273 129.36 190.338 130.056 189.277 130.056ZM149.242 125.243H187.49L197.014 93.7034H139.719L149.242 125.243Z" fill="#363A3B"/>
<path d="M154.412 90.8779L149.672 91.7148L156.092 128.068L160.831 127.231L154.412 90.8779Z" fill="#363A3B"/>
<path d="M182.34 90.8714L175.925 127.225L180.664 128.061L187.08 91.7079L182.34 90.8714Z" fill="#363A3B"/>
<path d="M170.774 91.2969H165.961V127.65H170.774V91.2969Z" fill="#363A3B"/>
<path d="M196.65 100.746H140.082V103.955H196.65V100.746Z" fill="#363A3B"/>
<path d="M192.378 113.324H144.355V116.533H192.378V113.324Z" fill="#363A3B"/>
<path d="M200.175 93.7046C199.936 93.7046 199.694 93.6703 199.454 93.5952C198.186 93.1977 197.48 91.847 197.878 90.5795L201.839 77.9448C202.153 76.9409 203.083 76.2578 204.136 76.2578H213.562C214.892 76.2578 215.969 77.3351 215.969 78.6646C215.969 79.9933 214.892 81.0714 213.562 81.0714H205.904L202.472 92.0192C202.149 93.0467 201.199 93.7046 200.175 93.7046Z" fill="#363A3B"/>
<path d="M164.623 140.77C164.623 144.954 161.231 148.347 157.047 148.347C152.862 148.347 149.47 144.954 149.47 140.77C149.47 136.585 152.862 133.193 157.047 133.193C161.231 133.193 164.623 136.585 164.623 140.77Z" fill="#363A3B"/>
<path d="M187.252 140.77C187.252 144.954 183.859 148.347 179.674 148.347C175.49 148.347 172.098 144.954 172.098 140.77C172.098 136.585 175.49 133.193 179.674 133.193C183.859 133.193 187.252 136.585 187.252 140.77Z" fill="#363A3B"/>
</g>
<g filter="url(#filter2_di_1_194)">
<path d="M71.4258 435.116C111.133 435.116 143.323 402.927 143.323 363.219C143.323 323.512 111.133 291.322 71.4258 291.322C31.7182 291.322 -0.471191 323.512 -0.471191 363.219C-0.471191 402.927 31.7182 435.116 71.4258 435.116Z" fill="white"/>
</g>
<path d="M43.9111 363.307H44.7158V348.563H43.9111V363.307Z" fill="#3F3F3F" fill-opacity="0.32"/>
<path d="M37.9549 351.703L36.2508 350.134L34.5466 348.564H44.7117V354.843H34.5466L36.2508 353.274L37.9549 351.703Z" fill="#C6CAD0"/>
<path d="M71.6899 364.07C70.9391 364.07 70.2233 363.635 69.9009 362.904L67.002 356.322C66.567 355.335 67.015 354.181 68.0018 353.746C68.9893 353.311 70.1425 353.759 70.5767 354.747L73.4756 361.328C73.9106 362.316 73.4626 363.469 72.4759 363.903C72.2204 364.016 71.9527 364.07 71.6899 364.07Z" fill="#00A59D"/>
<path d="M82.8898 364.069H71.8947C70.9235 364.069 70.1367 363.282 70.1367 362.311C70.1367 361.339 70.9235 360.553 71.8947 360.553H82.8898C83.861 360.553 84.6478 361.34 84.6478 362.311C84.6478 363.282 83.8602 364.069 82.8898 364.069Z" fill="#E2C781"/>
<path d="M84.9167 362.631C84.9167 363.818 83.9545 364.78 82.7678 364.78C81.5811 364.78 80.6189 363.818 80.6189 362.631C80.6189 361.445 81.5803 360.482 82.7678 360.482C83.9545 360.482 84.9167 361.445 84.9167 362.631Z" fill="#E2C781"/>
<path d="M80.5001 360.553H71.8947C70.9235 360.553 70.1367 361.34 70.1367 362.311C70.1367 363.282 70.9235 364.069 71.8947 364.069H80.5001V360.553Z" fill="#464A4B"/>
<path d="M108.365 394.745C108.365 400.012 104.095 404.282 98.828 404.282C93.5606 404.282 89.2905 400.012 89.2905 394.745C89.2905 389.477 93.5606 385.207 98.828 385.207C104.095 385.206 108.365 389.476 108.365 394.745Z" fill="#363A3B"/>
<path d="M104.686 394.745C104.686 397.98 102.064 400.602 98.8296 400.602C95.5952 400.602 92.9729 397.98 92.9729 394.745C92.9729 391.511 95.5952 388.889 98.8296 388.889C102.064 388.889 104.686 391.511 104.686 394.745Z" fill="white"/>
<path d="M102.049 394.746C102.049 396.524 100.607 397.966 98.8284 397.966C97.0492 397.966 95.6079 396.524 95.6079 394.746C95.6079 392.967 97.05 391.525 98.8284 391.525C100.608 391.525 102.049 392.967 102.049 394.746Z" fill="#363A3B"/>
<path d="M60.9756 394.745C60.9756 400.012 56.7055 404.282 51.4381 404.282C46.1707 404.282 41.9006 400.012 41.9006 394.745C41.9006 389.477 46.1707 385.207 51.4381 385.207C56.7055 385.206 60.9756 389.476 60.9756 394.745Z" fill="#363A3B"/>
<path d="M57.2964 394.745C57.2964 397.98 54.6741 400.602 51.4397 400.602C48.2053 400.602 45.583 397.98 45.583 394.745C45.583 391.511 48.2053 388.889 51.4397 388.889C54.6741 388.889 57.2964 391.511 57.2964 394.745Z" fill="white"/>
<path d="M54.659 394.746C54.659 396.524 53.2169 397.966 51.4385 397.966C49.6593 397.966 48.218 396.524 48.218 394.746C48.218 392.967 49.6601 391.525 51.4385 391.525C53.2177 391.525 54.659 392.967 54.659 394.746Z" fill="#363A3B"/>
<path d="M89.0886 394.704C89.0886 394.704 86.5259 394.954 85.8126 394.183C85.0985 393.413 85.4143 391.825 86.0272 390.57C86.6394 389.315 89.4265 384.232 90.3447 383.405C91.2629 382.578 94.6319 380.282 96.6527 380.006C98.6735 379.73 102.655 379.791 105.165 382.149C107.676 384.507 108.901 386.882 106.911 387.318C104.92 387.753 101.246 388.549 100.052 389.161C98.8579 389.774 95.2138 392.162 94.6931 392.53C94.1716 392.897 91.2686 394.758 89.0886 394.704Z" fill="#CEA771"/>
<path d="M52.2623 394.182H46.7288C46.7288 394.182 41.432 394.291 40.1466 394.047C38.862 393.802 36.3442 391.215 37.4721 388.493C38.6 385.772 41.7993 380.355 45.4442 378.885C49.0891 377.415 58.5956 376.027 58.5956 376.027C59.9912 375.803 61.3876 375.58 62.7832 375.356C65.0847 374.987 67.5487 374.309 69.8788 374.326C70.2485 374.328 70.7194 374.443 70.7733 374.822C70.8158 375.114 70.5693 375.358 70.3448 375.54C68.6554 376.911 66.8485 378.167 65.4618 379.864C64.0752 381.563 63.1423 383.833 63.5928 386.009C63.8279 387.145 64.4188 388.169 65.1043 389.088C65.5605 389.699 66.0821 390.289 66.7578 390.615C67.4181 390.935 68.1681 390.974 68.8961 391C72.8414 391.144 76.7899 391.077 80.7368 391.011C81.3228 391.001 81.9504 390.978 82.4222 390.618C82.7715 390.353 82.9845 389.94 83.182 389.541C83.8879 388.111 84.5474 386.657 85.1595 385.182C86.1013 382.909 86.9428 380.485 86.7322 378.021C86.5126 375.442 85.2101 373.163 84.5735 370.697C84.274 369.535 84.4103 368.396 84.2169 367.256C84.1001 366.567 83.7623 365.859 83.5468 365.195L85.6182 364.379C85.6182 364.379 85.5137 364.923 86.3005 364.923C87.0872 364.923 89.1064 370.04 89.29 370.53C89.4737 371.02 91.834 377.253 91.834 377.253C91.834 377.253 94.1151 380.52 94.1551 381.296C94.1942 382.071 92.8182 382.784 92.3065 382.979C91.7948 383.174 90.6938 384.153 90.2612 385.133C89.8287 386.114 86.7208 392.646 85.5407 393.585C84.3605 394.525 82.3152 395.504 79.6007 395.504C76.887 395.504 64.1813 395.504 64.1813 395.504H61.2701C61.2701 395.504 58.949 395.708 57.1396 395.055C55.3302 394.4 52.2623 394.182 52.2623 394.182Z" fill="#CEA771"/>
<path d="M93.2709 379.658C92.9257 380.251 92.0288 380.741 91.6443 380.9C91.1563 381.101 90.1043 382.113 89.6913 383.126C89.2783 384.138 86.3116 390.887 85.1845 391.857C84.0574 392.827 82.1044 393.84 79.5131 393.84C76.9219 393.84 64.7907 393.84 64.7907 393.84H62.0117C62.0117 393.84 59.7959 394.05 58.0681 393.375C56.3403 392.7 53.4112 392.475 53.4112 392.475H48.1282C48.1282 392.475 43.1351 392.586 41.8684 392.34C42.3573 392.887 42.8894 393.249 43.2918 393.334C44.4842 393.587 49.3998 393.474 49.3998 393.474H54.5342C54.5342 393.474 57.3817 393.699 59.0605 394.374C60.7393 395.049 62.8931 394.839 62.8931 394.839H65.5946C65.5946 394.839 77.3847 394.839 79.9033 394.839C82.4219 394.839 84.3202 393.826 85.4155 392.856C86.5108 391.886 89.3942 385.137 89.7958 384.125C90.1973 383.113 91.2191 382.1 91.6941 381.899C92.1683 381.698 93.4464 380.962 93.4096 380.16C93.4039 380.043 93.3533 379.868 93.2709 379.658Z" fill="#3F3F3F"/>
<path d="M87.2224 361.527L79.6292 362.217L79.7762 363.835L87.3694 363.145L87.2224 361.527Z" fill="#5D4A44"/>
<path d="M80.505 362.961C80.5459 363.409 80.2161 363.804 79.7697 363.844C79.3233 363.884 78.9274 363.555 78.8874 363.108C78.8466 362.662 79.1764 362.266 79.6228 362.226C80.0692 362.185 80.4642 362.515 80.505 362.961Z" fill="#5D4A44"/>
<path d="M83.7799 365.505C83.7799 365.505 82.2227 365.217 82.2227 364.727C82.2227 364.236 81.3576 362.449 82.7997 361.786C84.2418 361.122 85.4815 360.978 85.8855 360.632C86.2895 360.286 87.0681 359.017 88.4523 358.643C89.8365 358.267 91.7683 357.864 91.9128 358.643C92.0572 359.421 91.8263 362.593 91.6818 363.17C91.5374 363.747 91.0762 364.755 90.1825 365.044C89.288 365.332 88.2507 364.958 87.7888 364.756C87.3277 364.554 87.0102 364.151 86.5197 364.237C86.0292 364.324 85.9059 364.327 85.6505 364.671C85.395 365.015 83.939 365.539 83.7799 365.505Z" fill="#363A3B"/>
<path d="M89.2884 370.522C89.148 370.146 87.9287 367.053 87.013 365.629C86.8988 367.039 87.053 369.643 87.1387 370.44C87.2432 371.42 89.0795 376.809 89.7871 379.205C90.2515 380.776 91.2595 382.324 91.8985 383.202C92.0528 383.094 92.1931 383.012 92.3041 382.97C92.8158 382.775 94.1918 382.062 94.1527 381.287C94.1135 380.511 91.8316 377.244 91.8316 377.244C91.8316 377.244 89.4721 371.012 89.2884 370.522Z" fill="#363A3B"/>
<path d="M40.2658 393.232C40.2658 393.232 37.5953 391.777 38.9167 389.271C40.238 386.765 42.3861 383.721 44.4036 382.401C46.4212 381.081 50.4562 379.169 54.066 378.817C57.9215 378.442 60.1087 379.813 61.2048 380.919C62.3009 382.024 64.156 384.987 64.2964 386.549C64.4367 388.112 63.4247 390.187 62.8069 391.318C62.1882 392.45 60.8767 394.495 60.1365 394.631C59.397 394.768 55.9643 394.015 54.4594 393.958C52.9544 393.901 47.0724 393.799 47.0724 393.799C47.0724 393.799 42.3176 394.094 40.2658 393.232Z" fill="#363A3B"/>
<path d="M84.8209 361.809L78.8516 364.033L79.3255 365.305L85.2949 363.08L84.8209 361.809Z" fill="#3F3F3F"/>
<path d="M79.6628 364.442C79.7934 364.793 79.6154 365.184 79.2637 365.315C78.9127 365.446 78.5218 365.267 78.3904 364.916C78.2598 364.565 78.4386 364.174 78.7895 364.043C79.1413 363.912 79.5322 364.091 79.6628 364.442Z" fill="#3F3F3F"/>
<path d="M85.6775 362.645C85.5616 363.018 85.1642 363.227 84.7896 363.111C84.4158 362.995 84.2069 362.597 84.3228 362.223C84.4386 361.85 84.8361 361.641 85.2099 361.757C85.5853 361.872 85.7942 362.27 85.6775 362.645Z" fill="#3F3F3F"/>
<path d="M90.2158 358.258V365.033C91.0907 364.733 91.5437 363.74 91.6865 363.17C91.8302 362.594 92.0611 359.421 91.9175 358.643C91.8301 358.172 91.0915 358.133 90.2158 358.258Z" fill="#3F3F3F"/>
<path d="M51.0043 379.155C51.0043 379.155 45.6961 379.877 44.7167 379.945C43.7365 380.012 43.2468 379.696 43.628 379.155C44.0091 378.613 44.7714 377.393 43.9275 375.655C43.0836 373.917 42.1858 372.494 45.8054 372.81C49.4259 373.126 55.387 373.171 55.387 373.171H64.669H69.3235C69.3235 373.171 70.875 373.262 70.9844 374.368C71.0929 375.475 71.27 376.016 69.5692 376.433C67.8683 376.851 62.3291 378.443 59.471 378.511C56.612 378.579 51.0043 379.155 51.0043 379.155Z" fill="#5D4A44"/>
<path d="M69.322 373.171H64.6675H55.3863C55.3863 373.171 49.4251 373.127 45.8047 372.81C43.4779 372.607 43.0184 373.122 43.211 373.978H70.8694C70.4874 373.239 69.322 373.171 69.322 373.171Z" fill="#5D4A44"/>
<path d="M82.3119 391.676H67.747C67.5372 391.676 67.365 391.504 67.365 391.294V390.742C67.365 390.532 67.5372 390.36 67.747 390.36H82.3119C82.5217 390.36 82.6938 390.532 82.6938 390.742V391.294C82.6938 391.504 82.5217 391.676 82.3119 391.676Z" fill="#363A3B"/>
<path d="M82.6938 390.637H67.365V390.891H82.6938V390.637Z" fill="#F2AC4C"/>
<path d="M82.6938 390.893H67.365V391.147H82.6938V390.893Z" fill="#E3533F"/>
<path d="M82.6938 391.145H67.365V391.398H82.6938V391.145Z" fill="#F2EDD8"/>
<path d="M69.9625 372.957H62.3038C61.615 372.957 61.051 372.393 61.051 371.704V367.079C61.051 366.39 61.615 365.826 62.3038 365.826H69.9625C70.6514 365.826 71.2153 366.39 71.2153 367.079V371.704C71.2162 372.394 70.6522 372.957 69.9625 372.957Z" fill="#363A3B"/>
<path d="M71.4869 369.755L73.3233 359.66C74.0888 355.452 72.1512 351.544 69.0181 350.974C65.8849 350.405 62.6954 353.38 61.9298 357.587L60.0935 367.683L71.4869 369.755Z" fill="#5D4A44"/>
<path d="M72.8465 362.297H72.5454L69.9875 356.491C69.5525 355.504 68.4001 355.055 67.4118 355.491C66.4242 355.926 65.977 357.079 66.412 358.067L69.311 364.648C69.6333 365.379 70.3491 365.814 71.1 365.814C71.1359 365.814 71.171 365.811 71.2069 365.809C71.2387 365.81 71.2705 365.813 71.3032 365.813H72.2066L72.8465 362.297Z" fill="#54443F"/>
<path d="M76.9038 390.177C75.7351 390.177 74.7876 389.229 74.7876 388.061V371.755C74.7876 370.586 75.7351 369.639 76.9038 369.639C78.0726 369.639 79.0201 370.586 79.0201 371.755V388.061C79.0201 389.229 78.0726 390.177 76.9038 390.177Z" fill="#1E1E1E"/>
<path d="M76.8399 373.883H65.3494C64.1741 373.883 63.2217 372.93 63.2217 371.755C63.2217 370.58 64.1741 369.627 65.3494 369.627H76.8399C78.0152 369.627 78.9676 370.58 78.9676 371.755C78.9676 372.93 78.0152 373.883 76.8399 373.883Z" fill="#1E1E1E"/>
<path d="M79.5289 386.016C79.4922 386.016 80.1117 386.775 80.2121 386.852C80.6332 387.179 81.118 387.386 81.5742 387.64C82.321 388.054 83.4897 388.937 83.3812 390.051C83.2979 390.903 82.6352 390.805 82.0272 390.856C80.8209 390.959 79.6725 390.98 78.4687 390.842L77.1841 390.403C76.5737 390.506 75.9599 390.601 75.3437 390.645C73.9555 390.742 74.317 388.573 74.3366 387.52L74.3325 386.016C74.3325 386.016 79.4857 386.016 79.5289 386.016Z" fill="#5D4A44"/>
<path d="M72.171 373.883H63.0686C61.9545 373.883 61.051 372.93 61.051 371.755C61.051 370.58 61.9545 369.627 63.0686 369.627H72.171C73.2851 369.627 74.1886 370.58 74.1886 371.755C74.1886 372.93 73.2859 373.883 72.171 373.883Z" fill="#363A3B"/>
<path d="M72.0731 390.177C70.9043 390.177 69.9568 389.229 69.9568 388.061V371.755C69.9568 370.586 70.9043 369.639 72.0731 369.639C73.2418 369.639 74.1893 370.586 74.1893 371.755V388.061C74.1893 389.229 73.2426 390.177 72.0731 390.177Z" fill="#363A3B"/>
<path d="M74.7023 386.016C74.6656 386.016 75.2851 386.775 75.3855 386.852C75.8066 387.179 76.2914 387.386 76.7476 387.64C77.4944 388.054 78.6631 388.937 78.5546 390.051C78.4713 390.903 77.8086 390.805 77.2006 390.856C75.9943 390.959 74.846 390.98 73.6422 390.842L72.3576 390.403C71.7471 390.506 71.1333 390.601 70.5171 390.645C69.1289 390.742 69.4896 388.573 69.5092 387.52L69.5059 386.016C69.5043 386.016 74.6591 386.016 74.7023 386.016Z" fill="#77625E"/>
<path d="M71.2905 365.238C70.5397 365.238 69.8239 364.803 69.5015 364.071L66.6026 357.49C66.1675 356.503 66.6156 355.349 67.6023 354.914C68.5899 354.479 69.7431 354.927 70.1781 355.914L73.077 362.495C73.512 363.483 73.064 364.636 72.0773 365.07C71.8202 365.185 71.5533 365.238 71.2905 365.238Z" fill="#363A3B"/>
<path d="M82.4904 365.237H71.4953C70.5241 365.237 69.7373 364.449 69.7373 363.479C69.7373 362.507 70.5249 361.721 71.4953 361.721H82.4904C83.4616 361.721 84.2484 362.508 84.2484 363.479C84.2484 364.449 83.4616 365.237 82.4904 365.237Z" fill="#E2C781"/>
<path d="M84.5173 363.799C84.5173 364.986 83.5551 365.948 82.3684 365.948C81.1817 365.948 80.2195 364.986 80.2195 363.799C80.2195 362.613 81.1817 361.65 82.3684 361.65C83.5551 361.65 84.5173 362.613 84.5173 363.799Z" fill="#E2C781"/>
<path d="M80.1007 361.721H71.4953C70.5241 361.721 69.7373 362.508 69.7373 363.479C69.7373 364.45 70.5249 365.237 71.4953 365.237H80.1007V361.721Z" fill="#363A3B"/>
<path d="M68.3203 351.178L73.5796 353.983C73.6212 354.005 73.6473 354.051 73.6522 354.113L73.946 357.612C73.9656 357.844 73.7061 358.078 73.5837 357.94L68.0306 351.634C67.8869 351.472 68.1359 351.079 68.3203 351.178Z" fill="#CEA771"/>
<path d="M73.1313 354.798L74.7521 357.8C74.7978 357.884 74.9268 357.836 74.9064 357.742L74.0927 353.907C74.0878 353.886 74.0723 353.868 74.0527 353.862L69.106 352.468C69.0065 352.441 68.9502 352.58 69.0424 352.628L73.0921 354.759C73.1092 354.768 73.1223 354.781 73.1313 354.798Z" fill="#B28B55"/>
<path d="M73.6378 356.573C73.7439 356.532 73.8141 356.429 73.8141 356.316V355.662V355.008C73.8141 354.894 73.7439 354.792 73.6378 354.751L73.5211 354.706L71.4301 353.896C71.2489 353.826 71.0547 353.96 71.0547 354.154V355.663V357.172C71.0547 357.366 71.2498 357.499 71.4301 357.43L73.5211 356.619L73.6378 356.573Z" fill="#2E3233"/>
<path d="M73.9505 355.059C73.8803 355.086 73.8337 355.154 73.8337 355.23V355.661V356.093C73.8337 356.169 73.8803 356.236 73.9505 356.264L74.0272 356.293L75.4105 356.829C75.5297 356.876 75.6587 356.787 75.6587 356.659V355.661V354.663C75.6587 354.535 75.5297 354.447 75.4105 354.493L74.0272 355.029L73.9505 355.059Z" fill="#2E3233"/>
<path d="M74.6326 355.662V354.872C74.6326 354.732 74.5559 354.613 74.4506 354.59L73.5137 354.387C73.3815 354.358 73.2615 354.493 73.2615 354.669V355.661V356.654C73.2615 356.83 73.3815 356.965 73.5137 356.936L74.4506 356.733C74.5559 356.71 74.6326 356.591 74.6326 356.451V355.662Z" fill="#363A3B"/>
<path d="M86.4213 343.446C85.0453 350.389 78.3015 354.901 71.3586 353.525C64.4156 352.149 59.904 345.404 61.28 338.462C62.656 331.52 69.4006 327.008 76.3428 328.384C83.2857 329.761 87.7982 336.504 86.4213 343.446Z" fill="#E9E4DD"/>
<path d="M64.0659 336.399C63.8488 337.494 62.7853 338.206 61.6901 337.989C60.5956 337.772 59.8831 336.708 60.1002 335.613C60.3173 334.518 61.3808 333.806 62.476 334.023C63.5713 334.24 64.283 335.305 64.0659 336.399Z" fill="#EA493D"/>
<path d="M64.6539 334.347C64.2572 335.39 63.0901 335.916 62.0463 335.519C61.0024 335.123 60.4777 333.956 60.8743 332.912C61.271 331.868 62.438 331.343 63.4819 331.74C64.5257 332.136 65.0505 333.304 64.6539 334.347Z" fill="#EA493D"/>
<path d="M66.1612 332.587C65.5091 333.494 64.2465 333.699 63.3398 333.048C62.4339 332.396 62.2266 331.133 62.8787 330.227C63.5308 329.32 64.7941 329.113 65.7001 329.765C66.6068 330.417 66.8133 331.68 66.1612 332.587Z" fill="#EA493D"/>
<path d="M68.3221 330.771C67.4578 331.478 66.1838 331.349 65.4779 330.484C64.7719 329.62 64.8992 328.346 65.7643 327.64C66.6286 326.933 67.9026 327.061 68.6086 327.927C69.3146 328.792 69.1864 330.065 68.3221 330.771Z" fill="#EA493D"/>
<path d="M70.9975 329.545C69.9741 329.992 68.7825 329.524 68.3369 328.501C67.8905 327.477 68.3581 326.286 69.3815 325.839C70.405 325.393 71.5966 325.86 72.0422 326.884C72.4886 327.907 72.0202 329.099 70.9975 329.545Z" fill="#EA493D"/>
<path d="M73.8937 329.086C72.7878 329.241 71.766 328.471 71.6109 327.365C71.4558 326.259 72.2263 325.237 73.3322 325.082C74.438 324.927 75.4599 325.698 75.6149 326.804C75.77 327.91 74.9995 328.932 73.8937 329.086Z" fill="#EA493D"/>
<path d="M76.338 329.316C75.2264 329.217 74.4054 328.235 74.5041 327.123C74.6029 326.011 75.5847 325.19 76.6971 325.289C77.8095 325.388 78.6305 326.371 78.531 327.482C78.4322 328.594 77.4504 329.415 76.338 329.316Z" fill="#EA493D"/>
<path d="M78.7008 330.105C77.6406 329.754 77.0669 328.609 77.4178 327.55C77.7688 326.491 78.913 325.916 79.9724 326.267C81.0317 326.618 81.6062 327.762 81.2553 328.822C80.9044 329.882 79.7609 330.456 78.7008 330.105Z" fill="#EA493D"/>
<path d="M81.0062 331.386C80.0904 330.748 79.8652 329.487 80.5034 328.571C81.1417 327.655 82.4018 327.43 83.3175 328.068C84.2332 328.706 84.4585 329.966 83.8194 330.883C83.182 331.799 81.9227 332.025 81.0062 331.386Z" fill="#EA493D"/>
<path d="M82.9052 333.612C82.1543 332.786 82.2147 331.507 83.0414 330.756C83.8674 330.005 85.1455 330.066 85.8972 330.892C86.648 331.718 86.5876 332.996 85.7617 333.748C84.9349 334.499 83.6568 334.438 82.9052 333.612Z" fill="#EA493D"/>
<path d="M84.0141 335.559C83.4493 334.596 83.7733 333.357 84.7364 332.793C85.7003 332.229 86.9383 332.552 87.5023 333.515C88.0671 334.478 87.743 335.716 86.78 336.281C85.8169 336.846 84.578 336.522 84.0141 335.559Z" fill="#EA493D"/>
<path d="M84.5833 337.238C84.1842 336.196 84.7065 335.027 85.7487 334.628C86.7917 334.229 87.9596 334.751 88.3587 335.794C88.7578 336.837 88.2363 338.006 87.1933 338.405C86.1511 338.803 84.9824 338.281 84.5833 337.238Z" fill="#EA493D"/>
<path d="M84.8692 338.957C84.6439 337.863 85.3466 336.794 86.4402 336.568C87.5339 336.342 88.603 337.045 88.8291 338.139C89.0552 339.232 88.3517 340.302 87.258 340.528C86.1644 340.753 85.0952 340.05 84.8692 338.957Z" fill="#EA493D"/>
<path d="M84.6712 340.765C84.6157 339.649 85.4751 338.701 86.59 338.645C87.7048 338.59 88.654 339.449 88.7087 340.564C88.7642 341.679 87.9048 342.628 86.7899 342.683C85.6751 342.739 84.7267 341.879 84.6712 340.765Z" fill="#EA493D"/>
<path d="M65.4589 346.095C66.2187 346.914 66.0775 348.103 65.3528 348.952C64.5015 349.95 63.1786 350.219 62.4963 348.846C61.9992 347.846 61.7846 346.748 62.6024 345.989C63.4201 345.23 64.6999 345.277 65.4589 346.095Z" fill="#363A3B"/>
<path d="M64.1434 344.414C64.7564 345.348 64.496 346.601 63.5632 347.214C62.6303 347.827 61.3767 347.566 60.7638 346.633C60.1509 345.701 60.4112 344.447 61.3441 343.834C62.2777 343.221 63.5313 343.481 64.1434 344.414Z" fill="#363A3B"/>
<path d="M63.599 342.163C63.9508 343.223 63.377 344.366 62.3169 344.718C61.2567 345.07 60.1132 344.496 59.7615 343.436C59.4097 342.376 59.9835 341.232 61.0428 340.88C62.103 340.53 63.2473 341.103 63.599 342.163Z" fill="#363A3B"/>
<path d="M63.3993 339.347C63.4638 340.462 62.6134 341.418 61.4985 341.483C60.3845 341.548 59.4279 340.697 59.3626 339.583C59.2974 338.468 60.1486 337.512 61.2626 337.447C62.3783 337.382 63.334 338.233 63.3993 339.347Z" fill="#363A3B"/>
<path d="M69.4981 339.316L86.5564 342.698C87.4786 336.026 83.0469 329.711 76.3537 328.384C69.4107 327.008 62.6677 331.519 61.2909 338.462C60.2299 343.815 62.6702 349.045 67.0236 351.793L69.4981 339.316Z" fill="#363A3B"/>
<path d="M70.4053 343.661C70.1115 345.143 68.6718 346.106 67.1897 345.812C65.7076 345.518 64.7445 344.079 65.0384 342.597C65.3322 341.115 66.7718 340.152 68.2531 340.445C69.7361 340.739 70.6991 342.179 70.4053 343.661Z" fill="#D8D3CC"/>
<path d="M80.2921 352.964C80.2921 352.964 78.9356 352.852 77.9293 352.608C76.8626 352.349 75.285 351.341 75.05 350.502C74.8149 349.664 75.0508 348.351 76.1714 347.951C76.1714 347.951 75.1969 349.99 76.6227 349.908C78.0493 349.827 78.9095 349.601 79.7738 349.666C80.6373 349.73 82.512 350.25 82.7356 351.047C82.9715 351.885 82.4785 353.262 80.2921 352.964Z" fill="#5D4A44"/>
<path d="M79.7431 342.876L67.5523 340.371C67.2756 340.314 67.0953 340.041 67.1524 339.764C67.2095 339.487 67.483 339.307 67.7596 339.364L79.9504 341.869C80.2271 341.926 80.4075 342.199 80.3503 342.476C80.2932 342.753 80.0206 342.932 79.7431 342.876Z" fill="#3F3F3F"/>
<path d="M82.2053 342.093C82.7937 342.121 83.1055 342.183 83.6809 342.297C83.9926 342.358 84.3011 342.439 84.6031 342.542C84.8863 342.637 85.163 342.758 85.4266 342.913C85.7188 343.085 86.0191 343.29 86.1889 343.654C86.2183 343.717 86.2444 343.782 86.2656 343.856C86.4133 344.372 86.2501 344.936 86.0558 345.447C86.0371 345.498 86.0175 345.548 85.9979 345.597C85.3156 347.328 84.4472 349.557 82.2412 349.221C81.7237 349.142 81.1949 349.035 80.7354 348.742C80.2783 348.451 80.0115 348.022 79.8025 347.407C79.7609 347.284 79.734 347.151 79.7176 347.013C79.6728 346.64 79.7022 346.225 79.7185 345.852C79.7462 345.228 79.8042 344.6 79.9005 343.977C79.987 343.413 80.0645 342.809 80.4432 342.414C80.8921 341.944 81.7213 342.07 82.2053 342.093Z" fill="#3F3F3F"/>
<path d="M86.5173 345.353C86.887 344.403 86.7491 343.639 86.7491 343.639C86.6683 343.292 86.4642 343.002 86.079 342.803C84.1651 341.815 82.0873 341.52 79.953 341.669C79.6045 341.694 79.5311 341.86 79.5311 341.86L79.3205 342.899C79.3205 342.899 79.416 342.961 79.5262 343.289C79.6364 343.618 79.4331 343.993 79.327 345.875C79.2209 347.757 79.8608 349.211 81.8636 349.629C83.0894 349.885 84.1937 349.506 85.1649 348.15C85.5575 347.602 85.8733 346.951 86.1508 346.291C86.1655 346.255 86.2292 346.091 86.5173 345.353ZM86.0553 345.447C86.0366 345.497 86.017 345.547 85.9974 345.597C85.3151 347.328 84.4467 349.557 82.2407 349.22C81.7232 349.141 81.1943 349.034 80.7349 348.741C80.2778 348.451 80.0109 348.021 79.802 347.406C79.7604 347.284 79.7335 347.151 79.7172 347.012C79.6723 346.639 79.7016 346.224 79.718 345.851C79.7457 345.227 79.8037 344.599 79.9 343.976C79.9865 343.413 80.064 342.809 80.4427 342.413C80.8916 341.944 81.72 342.068 82.204 342.092C82.7924 342.12 83.1042 342.183 83.6795 342.296C83.9913 342.357 84.2998 342.438 84.6018 342.541C84.885 342.637 85.1616 342.757 85.4253 342.912C85.7174 343.085 86.0178 343.289 86.1876 343.653C86.2169 343.716 86.243 343.782 86.2643 343.855C86.412 344.371 86.2488 344.934 86.0553 345.447Z" fill="#3F3F3F"/>
<path d="M86.5315 341.299L61.8365 336.355C61.2301 336.233 60.8327 335.637 60.9543 335.031L63.2754 323.439C63.397 322.833 63.9928 322.435 64.5992 322.557L89.2941 327.501C89.9013 327.623 90.298 328.219 90.1764 328.825L87.8561 340.417C87.7337 341.023 87.1379 341.42 86.5315 341.299Z" fill="#CEA771"/>
<path d="M61.716 331.23L61.3104 333.257C60.9937 334.839 62.0131 336.39 63.576 336.703L84.7941 340.951C86.3571 341.263 87.8947 340.225 88.2122 338.643L88.6178 336.616L61.716 331.23Z" fill="#CEA771"/>
<path d="M89.4055 342.828L58.5968 336.659C58.4923 336.638 58.4246 336.536 58.445 336.432L59.3501 331.913C59.3705 331.809 59.4734 331.74 59.5778 331.762L90.3865 337.93C90.491 337.95 90.5588 338.053 90.5383 338.158L89.634 342.676C89.612 342.78 89.5092 342.849 89.4055 342.828Z" fill="#CEA771"/>
<path d="M59.7119 359.037H43.8264V373.755H59.7119V359.037Z" fill="#C6CAD0"/>
<path d="M59.7119 359.037H43.8264V362.886H59.7119V359.037Z" fill="#3F3F3F" fill-opacity="0.32"/>
<path d="M59.9501 358.816H43.5889V361.79H59.9501V358.816Z" fill="#C6CAD0"/>
<g filter="url(#filter3_di_1_194)">
<path d="M203.308 643.767C243.015 643.767 275.205 611.577 275.205 571.87C275.205 532.162 243.015 499.973 203.308 499.973C163.6 499.973 131.411 532.162 131.411 571.87C131.411 611.577 163.6 643.767 203.308 643.767Z" fill="white"/>
</g>
<path d="M226.376 536.622L178.8 550.353L186.288 576.296L233.864 562.565L226.376 536.622Z" fill="#CFA771"/>
<path d="M225.876 537.621L179.758 550.931L186.79 575.296L232.908 561.985L225.876 537.621Z" fill="white"/>
<path d="M225.383 538.951L180.881 551.795L187.282 573.974L231.785 561.13L225.383 538.951Z" fill="#CFA771"/>
<path d="M226.526 539.896C226.893 541.166 226.16 542.494 224.89 542.861C223.619 543.228 222.293 542.495 221.926 541.224C221.559 539.954 222.291 538.627 223.561 538.26C224.832 537.894 226.159 538.626 226.526 539.896Z" fill="white"/>
<path d="M232.224 559.658C232.592 560.93 231.859 562.257 230.588 562.623C229.317 562.99 227.991 562.258 227.624 560.986C227.257 559.716 227.989 558.389 229.26 558.022C230.531 557.655 231.858 558.388 232.224 559.658Z" fill="white"/>
<path d="M190.707 571.641C191.074 572.912 190.341 574.239 189.069 574.606C187.8 574.972 186.472 574.24 186.105 572.968C185.738 571.699 186.472 570.371 187.741 570.004C189.013 569.638 190.341 570.371 190.707 571.641Z" fill="white"/>
<path d="M185.005 551.881C185.372 553.15 184.639 554.478 183.367 554.846C182.098 555.212 180.769 554.479 180.403 553.208C180.036 551.938 180.77 550.611 182.039 550.244C183.311 549.878 184.639 550.611 185.005 551.881Z" fill="white"/>
<path d="M215.231 553.859C216.651 558.782 213.813 563.925 208.89 565.346C203.967 566.767 198.824 563.929 197.403 559.006C195.982 554.083 198.82 548.939 203.744 547.519C208.666 546.097 213.809 548.936 215.231 553.859Z" fill="white"/>
<path d="M214.243 554.146C215.505 558.521 212.983 563.092 208.607 564.355C204.232 565.618 199.662 563.095 198.398 558.72C197.136 554.344 199.658 549.774 204.034 548.511C208.41 547.247 212.98 549.771 214.243 554.146Z" fill="#CFA771"/>
<path d="M208.922 561.515L209.125 562.22L206.996 562.834L206.784 562.1C205.643 562.137 204.934 561.681 204.66 560.732L203.952 558.281L206.095 557.662L206.807 560.128C206.878 560.373 207.059 560.453 207.352 560.369C207.634 560.287 207.74 560.124 207.669 559.879L207.301 558.605C207.223 558.335 207.044 558.093 206.764 557.878C206.484 557.665 205.649 557.181 204.257 556.43C203.572 555.994 203.157 555.53 203.015 555.035L202.666 553.829C202.349 552.729 202.69 551.914 203.689 551.382L203.477 550.647L205.606 550.033L205.818 550.767C206.835 550.728 207.483 551.191 207.761 552.155L208.297 554.014L206.154 554.633L205.583 552.654C205.521 552.44 205.375 552.365 205.145 552.431C204.875 552.509 204.801 552.755 204.92 553.17L205.167 553.854C205.281 554.248 205.68 554.642 206.366 555.034C207.738 555.786 208.586 556.298 208.909 556.573C209.23 556.848 209.452 557.196 209.574 557.616L209.97 558.988C210.302 560.137 209.953 560.98 208.922 561.515Z" fill="white"/>
<path d="M217.481 531.72L172.134 551.611L182.98 576.339L228.328 556.448L217.481 531.72Z" fill="#CFA771"/>
<path d="M217.114 532.779L173.156 552.061L183.342 575.284L227.301 556.002L217.114 532.779Z" fill="white"/>
<path d="M216.805 534.158L174.387 552.764L183.66 573.905L226.078 555.299L216.805 534.158Z" fill="#CFA771"/>
<path d="M218.067 534.955C218.598 536.165 218.047 537.579 216.836 538.109C215.625 538.641 214.213 538.089 213.682 536.878C213.151 535.667 213.701 534.255 214.913 533.723C216.123 533.193 217.536 533.744 218.067 534.955Z" fill="white"/>
<path d="M226.324 553.792C226.856 555.004 226.305 556.416 225.093 556.948C223.882 557.479 222.471 556.928 221.939 555.716C221.409 554.506 221.959 553.093 223.17 552.562C224.381 552.03 225.794 552.582 226.324 553.792Z" fill="white"/>
<path d="M186.754 571.151C187.286 572.363 186.734 573.775 185.522 574.307C184.312 574.838 182.899 574.288 182.368 573.076C181.837 571.865 182.389 570.452 183.598 569.921C184.81 569.39 186.224 569.941 186.754 571.151Z" fill="white"/>
<path d="M178.493 552.314C179.025 553.525 178.473 554.937 177.261 555.469C176.052 555.999 174.638 555.448 174.107 554.237C173.575 553.027 174.128 551.613 175.337 551.083C176.549 550.552 177.962 551.103 178.493 552.314Z" fill="white"/>
<path d="M208.701 550.29C210.759 554.983 208.624 560.455 203.931 562.513C199.238 564.571 193.766 562.436 191.708 557.744C189.649 553.051 191.784 547.578 196.477 545.52C201.169 543.462 206.642 545.597 208.701 550.29Z" fill="white"/>
<path d="M207.759 550.705C209.588 554.876 207.691 559.739 203.521 561.568C199.35 563.397 194.487 561.499 192.657 557.329C190.828 553.158 192.726 548.295 196.896 546.466C201.067 544.637 205.93 546.535 207.759 550.705Z" fill="#CFA771"/>
<path d="M203.45 558.718L203.745 559.39L201.716 560.28L201.409 559.58C200.282 559.768 199.52 559.41 199.123 558.504L198.098 556.169L200.141 555.273L201.172 557.623C201.274 557.856 201.465 557.912 201.743 557.789C202.012 557.671 202.095 557.496 201.993 557.262L201.461 556.048C201.348 555.791 201.138 555.574 200.832 555.399C200.527 555.224 199.635 554.855 198.157 554.294C197.419 553.953 196.947 553.546 196.741 553.075L196.236 551.925C195.777 550.878 196.007 550.024 196.928 549.365L196.621 548.665L198.65 547.775L198.957 548.476C199.96 548.303 200.663 548.676 201.066 549.595L201.843 551.366L199.801 552.263L198.973 550.376C198.883 550.172 198.729 550.117 198.509 550.213C198.252 550.326 198.211 550.58 198.384 550.975L198.718 551.621C198.883 551.997 199.331 552.334 200.063 552.633C201.523 553.197 202.43 553.594 202.787 553.823C203.142 554.053 203.408 554.368 203.583 554.768L204.156 556.076C204.636 557.17 204.401 558.051 203.45 558.718Z" fill="white"/>
<path d="M229.623 555.422H172.539C171.142 555.422 170.01 556.537 170.01 557.912V609.424C170.01 610.799 171.143 611.914 172.539 611.914H229.623C233.109 611.914 235.961 609.289 235.961 606.081V561.255C235.96 558.047 233.109 555.422 229.623 555.422Z" fill="#363A3B"/>
<g filter="url(#filter4_di_1_194)">
<path d="M519.234 628.019C558.942 628.019 591.131 595.83 591.131 556.122C591.131 516.414 558.942 484.225 519.234 484.225C479.527 484.225 447.337 516.414 447.337 556.122C447.337 595.83 479.527 628.019 519.234 628.019Z" fill="white"/>
</g>
<g clip-path="url(#clip0_1_194)">
<path d="M522.139 587.915H491.396C488.425 587.915 486.016 585.506 486.016 582.535V577.155H527.307L522.139 587.915Z" fill="#C6CAD0" fill-opacity="0.61"/>
<path d="M555.965 544.871V582.533H491.396C488.425 582.533 486.016 580.124 486.016 577.152V544.871L523.681 531.42L555.965 544.871Z" fill="#EBF5FC"/>
<path d="M495.521 555.632H492.662C492.328 555.632 492.007 555.5 491.771 555.263C491.534 555.027 491.401 554.706 491.401 554.371V551.513C491.401 551.179 491.534 550.858 491.771 550.622C492.007 550.385 492.328 550.252 492.662 550.252H495.521C495.855 550.252 496.176 550.385 496.412 550.622C496.649 550.858 496.782 551.179 496.782 551.513V554.371C496.782 554.706 496.649 555.027 496.412 555.263C496.176 555.5 495.855 555.632 495.521 555.632ZM506.281 555.632H503.423C503.089 555.632 502.768 555.5 502.531 555.263C502.295 555.027 502.162 554.706 502.162 554.371V551.513C502.162 551.179 502.295 550.858 502.531 550.622C502.768 550.385 503.089 550.252 503.423 550.252H506.281C506.616 550.252 506.936 550.385 507.173 550.622C507.409 550.858 507.542 551.179 507.542 551.513V554.371C507.542 554.706 507.409 555.027 507.173 555.263C506.936 555.5 506.616 555.632 506.281 555.632ZM517.042 555.632H514.183C513.849 555.632 513.528 555.5 513.292 555.263C513.055 555.027 512.922 554.706 512.922 554.371V551.513C512.922 551.179 513.055 550.858 513.292 550.622C513.528 550.385 513.849 550.252 514.183 550.252H517.042C517.376 550.252 517.697 550.385 517.933 550.622C518.17 550.858 518.303 551.179 518.303 551.513V554.371C518.303 554.706 518.17 555.027 517.933 555.263C517.697 555.5 517.376 555.632 517.042 555.632ZM527.802 555.632H524.944C524.61 555.632 524.289 555.5 524.052 555.263C523.816 555.027 523.683 554.706 523.683 554.371V551.513C523.683 551.179 523.816 550.858 524.052 550.622C524.289 550.385 524.61 550.252 524.944 550.252H527.802C528.137 550.252 528.457 550.385 528.694 550.622C528.93 550.858 529.063 551.179 529.063 551.513V554.371C529.063 554.706 528.93 555.027 528.694 555.263C528.457 555.5 528.137 555.632 527.802 555.632ZM538.561 555.632H535.703C535.368 555.632 535.047 555.5 534.811 555.263C534.575 555.027 534.442 554.706 534.442 554.371V551.513C534.442 551.179 534.575 550.858 534.811 550.622C535.047 550.385 535.368 550.252 535.703 550.252H538.561C538.895 550.252 539.216 550.385 539.453 550.622C539.689 550.858 539.822 551.179 539.822 551.513V554.371C539.822 554.706 539.689 555.027 539.453 555.263C539.216 555.5 538.895 555.632 538.561 555.632ZM549.321 555.632H546.463C546.129 555.632 545.808 555.5 545.572 555.263C545.335 555.027 545.202 554.706 545.202 554.371V551.513C545.202 551.179 545.335 550.858 545.572 550.622C545.808 550.385 546.129 550.252 546.463 550.252H549.321C549.656 550.252 549.977 550.385 550.213 550.622C550.45 550.858 550.582 551.179 550.582 551.513V554.371C550.582 554.706 550.45 555.027 550.213 555.263C549.977 555.5 549.656 555.632 549.321 555.632ZM495.521 566.393H492.662C492.328 566.393 492.007 566.26 491.771 566.024C491.534 565.787 491.401 565.466 491.401 565.132V562.274C491.401 561.939 491.534 561.618 491.771 561.382C492.007 561.145 492.328 561.013 492.662 561.013H495.521C495.855 561.013 496.176 561.145 496.412 561.382C496.649 561.618 496.782 561.939 496.782 562.274V565.132C496.782 565.466 496.649 565.787 496.412 566.024C496.176 566.26 495.855 566.393 495.521 566.393ZM506.281 566.393H503.423C503.089 566.393 502.768 566.26 502.531 566.024C502.295 565.787 502.162 565.466 502.162 565.132V562.274C502.162 561.939 502.295 561.618 502.531 561.382C502.768 561.145 503.089 561.013 503.423 561.013H506.281C506.616 561.013 506.936 561.145 507.173 561.382C507.409 561.618 507.542 561.939 507.542 562.274V565.132C507.542 565.466 507.409 565.787 507.173 566.024C506.936 566.26 506.616 566.393 506.281 566.393ZM517.042 566.393H514.183C513.849 566.393 513.528 566.26 513.292 566.024C513.055 565.787 512.922 565.466 512.922 565.132V562.274C512.922 561.939 513.055 561.618 513.292 561.382C513.528 561.145 513.849 561.013 514.183 561.013H517.042C517.376 561.013 517.697 561.145 517.933 561.382C518.17 561.618 518.303 561.939 518.303 562.274V565.132C518.303 565.466 518.17 565.787 517.933 566.024C517.697 566.26 517.376 566.393 517.042 566.393ZM529.063 566.393V562.358C529.063 562.181 529.028 562.006 528.961 561.843C528.893 561.68 528.794 561.531 528.669 561.407C528.544 561.282 528.396 561.183 528.233 561.115C528.07 561.047 527.895 561.013 527.718 561.013H525.028C524.671 561.013 524.329 561.154 524.077 561.407C523.825 561.659 523.683 562.001 523.683 562.358V565.048C523.683 565.405 523.825 565.747 524.077 565.999C524.329 566.251 524.671 566.393 525.028 566.393H529.063ZM495.521 577.153H492.662C492.328 577.153 492.007 577.021 491.771 576.784C491.534 576.548 491.401 576.227 491.401 575.892V573.034C491.401 572.7 491.534 572.379 491.771 572.143C492.007 571.906 492.328 571.773 492.662 571.773H495.521C495.855 571.773 496.176 571.906 496.412 572.143C496.649 572.379 496.782 572.7 496.782 573.034V575.892C496.782 576.227 496.649 576.548 496.412 576.784C496.176 577.021 495.855 577.153 495.521 577.153ZM506.281 577.153H503.423C503.089 577.153 502.768 577.021 502.531 576.784C502.295 576.548 502.162 576.227 502.162 575.892V573.034C502.162 572.7 502.295 572.379 502.531 572.143C502.768 571.906 503.089 571.773 503.423 571.773H506.281C506.616 571.773 506.936 571.906 507.173 572.143C507.409 572.379 507.542 572.7 507.542 573.034V575.892C507.542 576.227 507.409 576.548 507.173 576.784C506.936 577.021 506.616 577.153 506.281 577.153ZM517.042 577.153H514.183C513.849 577.153 513.528 577.021 513.292 576.784C513.055 576.548 512.922 576.227 512.922 575.892V573.034C512.922 572.7 513.055 572.379 513.292 572.143C513.528 571.906 513.849 571.773 514.183 571.773H517.042C517.376 571.773 517.697 571.906 517.933 572.143C518.17 572.379 518.303 572.7 518.303 573.034V575.892C518.303 576.227 518.17 576.548 517.933 576.784C517.697 577.021 517.376 577.153 517.042 577.153Z" fill="#9C6C30"/>
<path d="M549.281 550.252H546.499C546.331 550.252 546.171 550.285 546.023 550.343C546.265 550.439 546.473 550.605 546.62 550.821C546.767 551.036 546.845 551.291 546.845 551.551V554.333C546.845 554.882 546.504 555.351 546.023 555.541C546.171 555.599 546.331 555.632 546.499 555.632H549.281C549.626 555.632 549.956 555.496 550.2 555.252C550.443 555.008 550.58 554.678 550.58 554.333V551.551C550.58 551.207 550.443 550.876 550.2 550.633C549.956 550.389 549.626 550.252 549.281 550.252ZM538.521 550.252H535.739C535.57 550.252 535.41 550.285 535.262 550.343C535.505 550.439 535.713 550.605 535.86 550.821C536.006 551.036 536.085 551.291 536.085 551.551V554.333C536.085 554.882 535.744 555.351 535.262 555.541C535.41 555.599 535.57 555.632 535.739 555.632H538.521C538.691 555.632 538.86 555.599 539.018 555.534C539.175 555.468 539.319 555.373 539.439 555.252C539.56 555.131 539.656 554.988 539.721 554.831C539.786 554.673 539.82 554.504 539.82 554.333V551.551C539.82 551.381 539.786 551.212 539.721 551.054C539.656 550.897 539.56 550.753 539.439 550.633C539.319 550.512 539.175 550.416 539.018 550.351C538.86 550.286 538.691 550.252 538.521 550.252ZM527.762 550.252H524.98C524.812 550.252 524.651 550.285 524.504 550.343C524.985 550.534 525.326 551.002 525.326 551.551V554.333C525.326 554.882 524.985 555.351 524.504 555.541C524.651 555.599 524.812 555.632 524.98 555.632H527.762C528.106 555.632 528.437 555.496 528.681 555.252C528.924 555.008 529.061 554.678 529.061 554.333V551.551C529.061 551.207 528.924 550.876 528.681 550.633C528.437 550.389 528.106 550.252 527.762 550.252ZM517.001 550.252H514.219C514.051 550.252 513.891 550.285 513.743 550.343C514.224 550.534 514.566 551.002 514.566 551.551V554.333C514.566 554.882 514.224 555.351 513.743 555.541C513.891 555.599 514.051 555.632 514.219 555.632H517.001C517.346 555.632 517.676 555.496 517.92 555.252C518.164 555.008 518.3 554.678 518.301 554.333V551.551C518.3 551.207 518.164 550.876 517.92 550.633C517.676 550.389 517.346 550.252 517.001 550.252ZM506.241 550.252H503.459C503.29 550.252 503.13 550.285 502.982 550.343C503.225 550.439 503.433 550.605 503.58 550.821C503.726 551.036 503.805 551.291 503.805 551.551V554.333C503.805 554.882 503.464 555.351 502.982 555.541C503.13 555.599 503.29 555.632 503.459 555.632H506.241C506.585 555.632 506.916 555.496 507.159 555.252C507.403 555.008 507.54 554.678 507.54 554.333V551.551C507.54 551.207 507.403 550.876 507.159 550.633C506.916 550.389 506.585 550.252 506.241 550.252ZM495.48 550.252H492.698C492.53 550.252 492.37 550.285 492.222 550.343C492.703 550.534 493.045 551.002 493.045 551.551V554.333C493.045 554.882 492.703 555.351 492.222 555.541C492.37 555.599 492.53 555.632 492.698 555.632H495.48C495.825 555.632 496.155 555.496 496.399 555.252C496.643 555.008 496.779 554.678 496.779 554.333V551.551C496.779 551.207 496.643 550.876 496.399 550.633C496.155 550.389 495.825 550.252 495.48 550.252ZM495.48 561.013H492.698C492.53 561.013 492.37 561.046 492.222 561.104C492.703 561.294 493.045 561.763 493.045 562.312V565.094C493.045 565.643 492.703 566.112 492.222 566.302C492.37 566.36 492.53 566.393 492.698 566.393H495.48C495.825 566.393 496.155 566.256 496.399 566.013C496.643 565.769 496.779 565.439 496.779 565.094V562.312C496.779 561.967 496.643 561.637 496.399 561.393C496.155 561.15 495.825 561.013 495.48 561.013ZM495.48 571.773H492.698C492.53 571.773 492.37 571.806 492.222 571.865C492.703 572.055 493.045 572.523 493.045 573.072V575.855C493.045 576.404 492.703 576.872 492.222 577.062C492.37 577.121 492.53 577.154 492.698 577.154H495.48C495.825 577.154 496.155 577.017 496.399 576.773C496.643 576.53 496.779 576.199 496.779 575.855V573.073C496.779 572.728 496.643 572.398 496.399 572.154C496.155 571.91 495.825 571.773 495.48 571.773ZM506.241 561.013H503.459C503.29 561.013 503.13 561.046 502.982 561.104C503.225 561.2 503.433 561.366 503.58 561.581C503.726 561.797 503.805 562.051 503.805 562.312V565.094C503.805 565.643 503.464 566.112 502.982 566.302C503.13 566.36 503.29 566.393 503.459 566.393H506.241C506.585 566.393 506.916 566.256 507.159 566.013C507.403 565.769 507.54 565.439 507.54 565.094V562.312C507.54 561.967 507.403 561.637 507.159 561.393C506.916 561.15 506.585 561.013 506.241 561.013ZM506.241 571.773H503.459C503.29 571.773 503.13 571.806 502.982 571.865C503.225 571.96 503.433 572.126 503.58 572.342C503.726 572.557 503.805 572.812 503.805 573.072V575.855C503.805 576.404 503.464 576.872 502.982 577.062C503.13 577.121 503.29 577.154 503.459 577.154H506.241C506.585 577.154 506.916 577.017 507.159 576.773C507.403 576.53 507.54 576.199 507.54 575.855V573.073C507.54 572.902 507.506 572.733 507.441 572.575C507.376 572.418 507.28 572.274 507.159 572.154C507.039 572.033 506.896 571.938 506.738 571.872C506.58 571.807 506.411 571.773 506.241 571.773ZM517.001 561.013H514.219C514.051 561.013 513.891 561.046 513.743 561.104C514.224 561.294 514.566 561.763 514.566 562.312V565.094C514.566 565.643 514.224 566.112 513.743 566.302C513.891 566.36 514.051 566.393 514.219 566.393H517.001C517.346 566.393 517.676 566.256 517.92 566.013C518.164 565.769 518.3 565.439 518.301 565.094V562.312C518.3 561.967 518.164 561.637 517.92 561.393C517.676 561.15 517.346 561.013 517.001 561.013ZM529.061 566.393V562.312C529.061 562.141 529.027 561.972 528.962 561.815C528.897 561.657 528.801 561.514 528.68 561.393C528.56 561.273 528.417 561.177 528.259 561.112C528.101 561.046 527.932 561.013 527.762 561.013H524.98C524.811 561.013 524.651 561.046 524.503 561.104C524.985 561.294 525.326 561.763 525.326 562.312V565.094C525.326 565.643 524.985 566.112 524.503 566.302C524.651 566.36 524.811 566.393 524.98 566.393H529.061V566.393ZM517.001 571.773H514.219C514.051 571.773 513.891 571.806 513.743 571.865C514.224 572.055 514.566 572.523 514.566 573.072V575.855C514.566 576.404 514.224 576.872 513.743 577.062C513.891 577.121 514.051 577.154 514.219 577.154H517.001C517.346 577.154 517.676 577.017 517.92 576.773C518.164 576.53 518.3 576.199 518.301 575.855V573.073C518.301 572.902 518.267 572.733 518.202 572.575C518.136 572.418 518.041 572.275 517.92 572.154C517.799 572.033 517.656 571.938 517.499 571.872C517.341 571.807 517.172 571.773 517.001 571.773Z" fill="#C29256"/>
<path d="M552.225 543.315V582.534H555.963V544.872L552.225 543.315Z" fill="#DCDEE2"/>
<path d="M555.965 544.87V531.419C555.965 528.448 553.556 526.039 550.585 526.039H491.396C488.425 526.039 486.016 528.448 486.016 531.419V544.87H555.965Z" fill="#C6CAD0"/>
<path d="M502.968 532.639H499.466C499.143 532.639 498.833 532.51 498.604 532.282C498.376 532.054 498.248 531.744 498.248 531.421C498.248 531.098 498.376 530.788 498.604 530.56C498.833 530.331 499.143 530.203 499.466 530.203H502.968C503.291 530.203 503.6 530.331 503.829 530.56C504.057 530.788 504.185 531.098 504.185 531.421C504.185 531.744 504.057 532.054 503.829 532.282C503.6 532.51 503.291 532.639 502.968 532.639ZM511.571 532.639H508.069C507.746 532.639 507.436 532.51 507.208 532.282C506.98 532.054 506.851 531.744 506.851 531.421C506.851 531.098 506.98 530.788 507.208 530.56C507.436 530.331 507.746 530.203 508.069 530.203H511.571C512.244 530.203 512.789 530.748 512.789 531.421C512.789 532.094 512.244 532.639 511.571 532.639ZM533.906 532.639H530.404C530.081 532.639 529.771 532.51 529.543 532.282C529.314 532.054 529.186 531.744 529.186 531.421C529.186 531.098 529.314 530.788 529.543 530.56C529.771 530.331 530.081 530.203 530.404 530.203H533.906C534.579 530.203 535.124 530.748 535.124 531.421C535.124 532.094 534.579 532.639 533.906 532.639ZM542.51 532.639H539.007C538.684 532.639 538.375 532.51 538.146 532.282C537.918 532.054 537.79 531.744 537.79 531.421C537.79 531.098 537.918 530.788 538.146 530.56C538.375 530.331 538.684 530.203 539.007 530.203H542.51C542.833 530.203 543.142 530.331 543.371 530.56C543.599 530.788 543.727 531.098 543.727 531.421C543.727 531.744 543.599 532.054 543.371 532.282C543.142 532.51 542.833 532.639 542.51 532.639Z" fill="#BCC0C6"/>
<path d="M508.886 530.748C508.886 532.606 507.38 534.111 505.523 534.111C503.666 534.111 502.161 532.606 502.161 530.748V524.023C502.16 522.166 503.666 520.66 505.523 520.66C507.38 520.66 508.886 522.166 508.886 524.023V530.748H508.886ZM539.824 530.748C539.824 532.606 538.319 534.111 536.462 534.111C534.604 534.111 533.099 532.606 533.099 530.748V524.023C533.099 522.166 534.604 520.66 536.461 520.66C538.319 520.66 539.824 522.166 539.824 524.023V530.748H539.824Z" fill="#4B4B4B"/>
<path d="M536.459 520.66C535.768 520.66 535.127 520.869 534.593 521.226C535.496 521.829 536.09 522.856 536.09 524.023V530.748C536.09 531.915 535.496 532.943 534.593 533.546C535.145 533.915 535.795 534.112 536.459 534.111C538.316 534.111 539.821 532.606 539.821 530.749V524.023C539.822 522.166 538.316 520.66 536.459 520.66ZM505.52 520.66C504.83 520.66 504.189 520.869 503.655 521.226C504.557 521.829 505.152 522.856 505.152 524.023V530.748C505.152 531.915 504.557 532.943 503.655 533.546C504.207 533.915 504.856 534.112 505.52 534.111C507.378 534.111 508.883 532.606 508.883 530.749V524.023C508.883 522.166 507.378 520.66 505.52 520.66Z" fill="#363A3B"/>
<path d="M550.583 526.039H546.847C549.819 526.039 552.227 528.448 552.227 531.419V544.87H555.963V531.42C555.963 528.448 553.555 526.039 550.583 526.039Z" fill="#BCC0C6"/>
<path d="M486.016 538.274H555.965V540.709H486.016V538.274Z" fill="#BCC0C6"/>
<path d="M541.167 601.364C552.31 601.364 561.343 592.331 561.343 581.188C561.343 570.045 552.31 561.012 541.167 561.012C530.024 561.012 520.991 570.045 520.991 581.188C520.991 592.331 530.024 601.364 541.167 601.364Z" fill="#4B4B4B"/>
<path d="M541.168 595.984C549.34 595.984 555.964 589.36 555.964 581.188C555.964 573.017 549.34 566.393 541.168 566.393C532.997 566.393 526.372 573.017 526.372 581.188C526.372 589.36 532.997 595.984 541.168 595.984Z" fill="#EBF5FC"/>
<path d="M541.165 579.714C541.005 579.714 540.846 579.683 540.699 579.621C540.551 579.56 540.417 579.47 540.303 579.357C540.19 579.244 540.101 579.11 540.039 578.962C539.978 578.814 539.947 578.656 539.947 578.496V571.771C539.947 571.448 540.075 571.138 540.303 570.91C540.532 570.681 540.842 570.553 541.165 570.553C541.488 570.553 541.797 570.681 542.026 570.91C542.254 571.138 542.382 571.448 542.382 571.771V578.496C542.382 578.819 542.254 579.129 542.026 579.357C541.797 579.586 541.488 579.714 541.165 579.714ZM547.89 582.404H543.855C543.532 582.404 543.222 582.276 542.993 582.047C542.765 581.819 542.637 581.509 542.637 581.186C542.637 580.863 542.765 580.554 542.993 580.325C543.222 580.097 543.532 579.969 543.855 579.969H547.89C548.213 579.969 548.523 580.097 548.751 580.325C548.979 580.554 549.108 580.863 549.108 581.186C549.108 581.509 548.979 581.819 548.751 582.047C548.523 582.276 548.213 582.404 547.89 582.404Z" fill="#C29249"/>
<path d="M541.17 561.012C540.54 561.012 539.917 561.042 539.302 561.099C549.57 562.041 557.611 570.675 557.611 581.188C557.611 591.701 549.569 600.335 539.302 601.277C539.917 601.334 540.54 601.364 541.17 601.364C552.312 601.364 561.346 592.331 561.346 581.188C561.346 570.045 552.313 561.012 541.17 561.012Z" fill="#363A3B"/>
<path d="M541.168 566.393C540.536 566.393 539.914 566.433 539.302 566.509C546.593 567.427 552.232 573.649 552.232 581.188C552.232 588.728 546.593 594.95 539.302 595.867C539.914 595.944 540.536 595.984 541.168 595.984C549.34 595.984 555.964 589.36 555.964 581.188C555.964 573.017 549.34 566.393 541.168 566.393Z" fill="#DCDEE2"/>
<path d="M541.168 583.879C542.654 583.879 543.858 582.674 543.858 581.189C543.858 579.703 542.654 578.498 541.168 578.498C539.682 578.498 538.478 579.703 538.478 581.189C538.478 582.674 539.682 583.879 541.168 583.879Z" fill="#363A3B"/>
</g>
<g filter="url(#filter5_di_1_194)">
<path d="M499.933 166.833C539.641 166.833 571.83 134.644 571.83 94.936C571.83 55.2283 539.641 23.0389 499.933 23.0389C460.225 23.0389 428.036 55.2283 428.036 94.936C428.036 134.644 460.225 166.833 499.933 166.833Z" fill="white"/>
</g>
<path d="M534.429 119.806H455.77C455.215 119.806 454.76 119.352 454.76 118.796V67.3599C454.76 66.8041 455.215 66.3495 455.77 66.3495H534.429C534.985 66.3495 535.439 66.8041 535.439 67.3599V118.796C535.44 119.352 534.985 119.806 534.429 119.806Z" fill="#E9E4DD"/>
<path d="M529.036 113.951H461.165C460.709 113.951 460.336 113.578 460.336 113.122V73.0361C460.336 72.5799 460.709 72.2069 461.165 72.2069H529.036C529.491 72.2069 529.865 72.5799 529.865 73.0361V113.122C529.865 113.578 529.492 113.951 529.036 113.951Z" fill="white"/>
<path d="M467.629 109.083V76.7812H475.986C477.983 76.7812 479.718 77.2359 481.189 78.1442C482.661 79.0534 483.396 80.5062 483.396 82.5033V86.9856C483.396 89.2536 482.015 90.8524 479.252 91.7837C482.165 92.5043 483.622 94.0583 483.622 96.4463V102.709C483.622 104.841 482.927 106.436 481.538 107.495C480.149 108.554 478.493 109.084 476.571 109.084H467.629V109.083ZM476.706 88.1298V82.6192C476.706 81.4904 476.045 80.9256 474.724 80.9256V89.8462C476.045 89.8462 476.706 89.2748 476.706 88.1298ZM476.706 103.226V95.0499C476.706 93.9236 476.045 93.3605 474.724 93.3605V104.938C476.045 104.938 476.706 104.368 476.706 103.226Z" fill="#363A3B"/>
<path d="M485.105 76.7814H492.202V103.902C492.202 104.548 492.599 104.871 493.396 104.871C494.176 104.871 494.567 104.548 494.567 103.902V76.7814H501.663V103.519C501.663 105.381 500.889 106.823 499.343 107.844C497.795 108.866 495.814 109.376 493.396 109.376C491.159 109.376 489.218 108.918 487.574 108.001C485.93 107.086 485.107 105.606 485.107 103.564V76.7814H485.105Z" fill="#363A3B"/>
<path d="M522.566 76.7814L517.926 89.8014L515.605 96.3118V109.084H508.51V96.5591C508.374 95.4181 507.766 93.1884 506.685 89.8691C505.754 87.0616 504.387 82.6984 502.585 76.7814H509.358L512.553 88.2344L516.18 76.7814H522.566Z" fill="#363A3B"/>
<path d="M544.649 119.018L539.661 124.006C539.458 124.21 539.125 124.21 538.922 124.006L524.531 109.615C524.327 109.411 524.327 109.078 524.531 108.875L529.518 103.887C529.721 103.684 530.054 103.684 530.257 103.887L544.649 118.279C544.853 118.482 544.853 118.815 544.649 119.018Z" fill="#363A3B"/>
<path d="M520.882 100.838C520.796 100.486 521.128 100.154 521.48 100.24L529.493 102.209L537.507 104.178C537.859 104.265 537.967 104.705 537.702 104.971L531.657 111.015L525.613 117.06C525.347 117.326 524.907 117.218 524.82 116.866L522.851 108.852L520.882 100.838Z" fill="#363A3B"/>
<g filter="url(#filter6_di_1_194)">
<path d="M635.367 402.636C675.075 402.636 707.265 370.447 707.265 330.739C707.265 291.031 675.075 258.842 635.367 258.842C595.66 258.842 563.47 291.031 563.47 330.739C563.47 370.447 595.66 402.636 635.367 402.636Z" fill="white"/>
</g>
<path d="M668.05 354.791H589.391C588.835 354.791 588.38 354.336 588.38 353.781V302.345C588.38 301.789 588.835 301.334 589.391 301.334H668.05C668.606 301.334 669.06 301.789 669.06 302.345V353.781C669.06 354.336 668.606 354.791 668.05 354.791Z" fill="#E9E4DD"/>
<path d="M662.656 348.936H594.785C594.329 348.936 593.956 348.563 593.956 348.107V308.021C593.956 307.565 594.329 307.192 594.785 307.192H662.656C663.112 307.192 663.485 307.565 663.485 308.021V348.107C663.485 348.563 663.112 348.936 662.656 348.936Z" fill="white"/>
<path d="M598.949 330.954H604.731V337.605C604.731 338.265 605.131 338.596 605.934 338.596C606.708 338.596 607.096 338.266 607.096 337.605V334.168C607.096 333.117 606.395 331.884 604.993 330.468C602.285 327.84 600.6 326.075 599.94 325.172C599.28 324.269 598.949 323.278 598.949 322.2V318.945C598.949 315.185 601.406 313.305 606.318 313.305C610.718 313.305 612.917 315.016 612.917 318.44V323.454H607.136V318.117C607.136 317.537 606.813 317.248 606.167 317.248C605.411 317.248 605.033 317.807 605.033 318.926L605.155 320.806C605.155 321.884 605.871 323.138 607.303 324.566C609.965 327.113 611.656 328.892 612.379 329.903C613.102 330.913 613.463 332.059 613.463 333.34V337.038C613.463 340.893 611 342.82 606.075 342.82C601.324 342.82 598.949 341.069 598.949 337.564V330.954Z" fill="#363A3B"/>
<path d="M632.024 342.557H625.715L624.64 334.775H621.814L620.726 342.557H614.417L619.179 313.569H627.253L632.024 342.557ZM624.126 330.752L623.21 322.1L622.342 330.752H624.126Z" fill="#363A3B"/>
<path d="M645.042 342.557H633.096V313.569H639.463V338.837H645.042V342.557Z" fill="#363A3B"/>
<path d="M658.482 342.557H646.029V313.569H658.401V317.288H652.397V325.131H657.814V328.649H652.397V338.837H658.481L658.482 342.557Z" fill="#363A3B"/>
<path d="M682.388 355.763L677.399 360.75C677.196 360.953 676.863 360.953 676.66 360.75L662.269 346.359C662.066 346.155 662.066 345.823 662.269 345.619L667.256 340.631C667.46 340.428 667.793 340.428 667.996 340.631L682.388 355.022C682.591 355.226 682.591 355.559 682.388 355.763Z" fill="#363A3B"/>
<path d="M658.621 337.58C658.534 337.229 658.866 336.896 659.218 336.983L667.232 338.951L675.245 340.921C675.597 341.007 675.706 341.447 675.441 341.713L669.395 347.758L663.351 353.803C663.085 354.068 662.645 353.96 662.558 353.608L660.59 345.594L658.621 337.58Z" fill="#363A3B"/>
<g filter="url(#filter7_d_1_194)">
<circle cx="356.618" cy="336.816" r="169.099" fill="#E9E9E9"/>
<circle cx="356.618" cy="336.816" r="168.638" stroke="black" stroke-opacity="0.15" stroke-width="0.92152"/>
</g>
<g filter="url(#filter8_dii_1_194)">
<path d="M400.571 298.884L398.851 265.842C397.843 253.237 387.544 243.61 374.901 243.449L361.793 243.283C361.691 243.283 361.588 243.281 361.484 243.281C348.916 243.281 338.293 253.015 337.235 265.572L335.388 298.865C335.22 300.842 336.689 302.578 338.665 302.745C338.768 302.754 338.87 302.758 338.971 302.758C340.818 302.758 342.387 301.342 342.546 299.467L344.393 266.175C345.138 257.335 352.551 250.465 361.45 250.465C361.534 250.465 361.618 250.465 361.701 250.467L374.809 250.632C383.72 250.745 390.979 257.531 391.691 266.413L393.41 299.45C393.559 301.325 395.115 302.76 396.968 302.76C397.069 302.76 397.171 302.756 397.274 302.747C399.251 302.59 400.727 300.86 400.571 298.884Z" fill="white"/>
</g>
<g filter="url(#filter9_dii_1_194)">
<path d="M313.589 290.009L296.645 406.083C294.791 418.777 304.69 430.15 317.589 430.15H413.811C426.875 430.15 439.983 423.207 437.855 410.39L415.462 289.862C414.859 286.237 411.707 283.576 408.012 283.576H321.061C317.311 283.58 314.129 286.317 313.589 290.009Z" fill="url(#paint0_linear_1_194)"/>
</g>
<path d="M294.074 289.792L277.13 406.521C275.277 419.286 285.176 430.724 298.074 430.724L415.876 430.132C415.876 430.132 408.58 428.199 405.553 413.056C400.386 387.221 395.949 289.647 395.949 289.647C395.347 286.001 392.194 283.328 388.5 283.328H301.549C297.796 283.326 294.614 286.079 294.074 289.792Z" fill="url(#paint1_linear_1_194)"/>
<g filter="url(#filter10_dii_1_194)">
<path d="M381.053 299.456L379.334 266.415C378.325 253.809 368.027 244.182 355.384 244.021L342.276 243.856C342.174 243.856 342.071 243.854 341.969 243.854C329.401 243.854 318.778 253.587 317.719 266.145L315.872 299.437C315.705 301.414 317.174 303.15 319.15 303.318C319.253 303.326 319.355 303.33 319.456 303.33C321.303 303.33 322.872 301.914 323.031 300.04L324.878 266.747C325.623 257.907 333.036 251.035 341.935 251.035C342.019 251.035 342.102 251.035 342.186 251.037L355.294 251.203C364.207 251.315 371.464 258.102 372.175 266.984L373.895 300.021C374.043 301.895 375.6 303.33 377.453 303.33C377.554 303.33 377.656 303.326 377.759 303.318C379.733 303.163 381.21 301.433 381.053 299.456Z" fill="white"/>
</g>
<path opacity="0.2" d="M405.802 293.926C405.802 293.926 416.466 390.97 416.087 401.003C415.709 411.036 414.573 426.557 414.573 426.557C414.573 426.557 420.062 407.628 422.712 408.195C425.363 408.762 436.594 412.548 436.594 412.548C436.594 412.548 422.557 402.218 420.158 393.619C419.02 389.552 405.802 293.926 405.802 293.926Z" fill="#426777"/>
<defs>
<filter id="filter0_d_1_194" x="77.2798" y="17.7168" width="194.972" height="194.972" filterUnits="userSpaceOnUse" color-interpolation-filters="sRGB">
<feFlood flood-opacity="0" result="BackgroundImageFix"/>
<feColorMatrix in="SourceAlpha" type="matrix" values="0 0 0 0 0 0 0 0 0 0 0 0 0 0 0 0 0 0 127 0" result="hardAlpha"/>
<feOffset dy="3.93678"/>
<feGaussianBlur stdDeviation="12.7945"/>
<feComposite in2="hardAlpha" operator="out"/>
<feColorMatrix type="matrix" values="0 0 0 0 0 0 0 0 0 0.247059 0 0 0 0 0.6 0 0 0 0.1 0"/>
<feBlend mode="normal" in2="BackgroundImageFix" result="effect1_dropShadow_1_194"/>
<feBlend mode="normal" in="SourceGraphic" in2="effect1_dropShadow_1_194" result="shape"/>
</filter>
<filter id="filter1_di_1_194" x="69.9798" y="24.6803" width="209.572" height="233.48" filterUnits="userSpaceOnUse" color-interpolation-filters="sRGB">
<feFlood flood-opacity="0" result="BackgroundImageFix"/>
<feColorMatrix in="SourceAlpha" type="matrix" values="0 0 0 0 0 0 0 0 0 0 0 0 0 0 0 0 0 0 127 0" result="hardAlpha"/>
<feOffset dy="42.108"/>
<feGaussianBlur stdDeviation="16.4445"/>
<feColorMatrix type="matrix" values="0 0 0 0 0 0 0 0 0 0 0 0 0 0 0 0 0 0 0.05 0"/>
<feBlend mode="normal" in2="BackgroundImageFix" result="effect1_dropShadow_1_194"/>
<feBlend mode="normal" in="SourceGraphic" in2="effect1_dropShadow_1_194" result="shape"/>
<feColorMatrix in="SourceAlpha" type="matrix" values="0 0 0 0 0 0 0 0 0 0 0 0 0 0 0 0 0 0 127 0" result="hardAlpha"/>
<feOffset dx="13.8228" dy="-14.6888"/>
<feGaussianBlur stdDeviation="14.6888"/>
<feComposite in2="hardAlpha" operator="arithmetic" k2="-1" k3="1"/>
<feColorMatrix type="matrix" values="0 0 0 0 0.247059 0 0 0 0 0.458824 0 0 0 0 0.74902 0 0 0 0.21 0"/>
<feBlend mode="normal" in2="shape" result="effect2_innerShadow_1_194"/>
</filter>
<filter id="filter2_di_1_194" x="-33.3603" y="276.633" width="209.572" height="233.48" filterUnits="userSpaceOnUse" color-interpolation-filters="sRGB">
<feFlood flood-opacity="0" result="BackgroundImageFix"/>
<feColorMatrix in="SourceAlpha" type="matrix" values="0 0 0 0 0 0 0 0 0 0 0 0 0 0 0 0 0 0 127 0" result="hardAlpha"/>
<feOffset dy="42.108"/>
<feGaussianBlur stdDeviation="16.4445"/>
<feColorMatrix type="matrix" values="0 0 0 0 0 0 0 0 0 0 0 0 0 0 0 0 0 0 0.05 0"/>
<feBlend mode="normal" in2="BackgroundImageFix" result="effect1_dropShadow_1_194"/>
<feBlend mode="normal" in="SourceGraphic" in2="effect1_dropShadow_1_194" result="shape"/>
<feColorMatrix in="SourceAlpha" type="matrix" values="0 0 0 0 0 0 0 0 0 0 0 0 0 0 0 0 0 0 127 0" result="hardAlpha"/>
<feOffset dx="13.8228" dy="-14.6888"/>
<feGaussianBlur stdDeviation="14.6888"/>
<feComposite in2="hardAlpha" operator="arithmetic" k2="-1" k3="1"/>
<feColorMatrix type="matrix" values="0 0 0 0 0.247059 0 0 0 0 0.458824 0 0 0 0 0.74902 0 0 0 0.21 0"/>
<feBlend mode="normal" in2="shape" result="effect2_innerShadow_1_194"/>
</filter>
<filter id="filter3_di_1_194" x="98.5216" y="485.284" width="209.572" height="233.48" filterUnits="userSpaceOnUse" color-interpolation-filters="sRGB">
<feFlood flood-opacity="0" result="BackgroundImageFix"/>
<feColorMatrix in="SourceAlpha" type="matrix" values="0 0 0 0 0 0 0 0 0 0 0 0 0 0 0 0 0 0 127 0" result="hardAlpha"/>
<feOffset dy="42.108"/>
<feGaussianBlur stdDeviation="16.4445"/>
<feColorMatrix type="matrix" values="0 0 0 0 0 0 0 0 0 0 0 0 0 0 0 0 0 0 0.05 0"/>
<feBlend mode="normal" in2="BackgroundImageFix" result="effect1_dropShadow_1_194"/>
<feBlend mode="normal" in="SourceGraphic" in2="effect1_dropShadow_1_194" result="shape"/>
<feColorMatrix in="SourceAlpha" type="matrix" values="0 0 0 0 0 0 0 0 0 0 0 0 0 0 0 0 0 0 127 0" result="hardAlpha"/>
<feOffset dx="13.8228" dy="-14.6888"/>
<feGaussianBlur stdDeviation="14.6888"/>
<feComposite in2="hardAlpha" operator="arithmetic" k2="-1" k3="1"/>
<feColorMatrix type="matrix" values="0 0 0 0 0.247059 0 0 0 0 0.458824 0 0 0 0 0.74902 0 0 0 0.21 0"/>
<feBlend mode="normal" in2="shape" result="effect2_innerShadow_1_194"/>
</filter>
<filter id="filter4_di_1_194" x="414.448" y="469.536" width="209.572" height="233.48" filterUnits="userSpaceOnUse" color-interpolation-filters="sRGB">
<feFlood flood-opacity="0" result="BackgroundImageFix"/>
<feColorMatrix in="SourceAlpha" type="matrix" values="0 0 0 0 0 0 0 0 0 0 0 0 0 0 0 0 0 0 127 0" result="hardAlpha"/>
<feOffset dy="42.108"/>
<feGaussianBlur stdDeviation="16.4445"/>
<feColorMatrix type="matrix" values="0 0 0 0 0 0 0 0 0 0 0 0 0 0 0 0 0 0 0.05 0"/>
<feBlend mode="normal" in2="BackgroundImageFix" result="effect1_dropShadow_1_194"/>
<feBlend mode="normal" in="SourceGraphic" in2="effect1_dropShadow_1_194" result="shape"/>
<feColorMatrix in="SourceAlpha" type="matrix" values="0 0 0 0 0 0 0 0 0 0 0 0 0 0 0 0 0 0 127 0" result="hardAlpha"/>
<feOffset dx="13.8228" dy="-14.6888"/>
<feGaussianBlur stdDeviation="14.6888"/>
<feComposite in2="hardAlpha" operator="arithmetic" k2="-1" k3="1"/>
<feColorMatrix type="matrix" values="0 0 0 0 0.247059 0 0 0 0 0.458824 0 0 0 0 0.74902 0 0 0 0.21 0"/>
<feBlend mode="normal" in2="shape" result="effect2_innerShadow_1_194"/>
</filter>
<filter id="filter5_di_1_194" x="395.147" y="8.3501" width="209.572" height="233.48" filterUnits="userSpaceOnUse" color-interpolation-filters="sRGB">
<feFlood flood-opacity="0" result="BackgroundImageFix"/>
<feColorMatrix in="SourceAlpha" type="matrix" values="0 0 0 0 0 0 0 0 0 0 0 0 0 0 0 0 0 0 127 0" result="hardAlpha"/>
<feOffset dy="42.108"/>
<feGaussianBlur stdDeviation="16.4445"/>
<feColorMatrix type="matrix" values="0 0 0 0 0 0 0 0 0 0 0 0 0 0 0 0 0 0 0.05 0"/>
<feBlend mode="normal" in2="BackgroundImageFix" result="effect1_dropShadow_1_194"/>
<feBlend mode="normal" in="SourceGraphic" in2="effect1_dropShadow_1_194" result="shape"/>
<feColorMatrix in="SourceAlpha" type="matrix" values="0 0 0 0 0 0 0 0 0 0 0 0 0 0 0 0 0 0 127 0" result="hardAlpha"/>
<feOffset dx="13.8228" dy="-14.6888"/>
<feGaussianBlur stdDeviation="14.6888"/>
<feComposite in2="hardAlpha" operator="arithmetic" k2="-1" k3="1"/>
<feColorMatrix type="matrix" values="0 0 0 0 0.247059 0 0 0 0 0.458824 0 0 0 0 0.74902 0 0 0 0.21 0"/>
<feBlend mode="normal" in2="shape" result="effect2_innerShadow_1_194"/>
</filter>
<filter id="filter6_di_1_194" x="530.581" y="244.153" width="209.572" height="233.48" filterUnits="userSpaceOnUse" color-interpolation-filters="sRGB">
<feFlood flood-opacity="0" result="BackgroundImageFix"/>
<feColorMatrix in="SourceAlpha" type="matrix" values="0 0 0 0 0 0 0 0 0 0 0 0 0 0 0 0 0 0 127 0" result="hardAlpha"/>
<feOffset dy="42.108"/>
<feGaussianBlur stdDeviation="16.4445"/>
<feColorMatrix type="matrix" values="0 0 0 0 0 0 0 0 0 0 0 0 0 0 0 0 0 0 0.05 0"/>
<feBlend mode="normal" in2="BackgroundImageFix" result="effect1_dropShadow_1_194"/>
<feBlend mode="normal" in="SourceGraphic" in2="effect1_dropShadow_1_194" result="shape"/>
<feColorMatrix in="SourceAlpha" type="matrix" values="0 0 0 0 0 0 0 0 0 0 0 0 0 0 0 0 0 0 127 0" result="hardAlpha"/>
<feOffset dx="13.8228" dy="-14.6888"/>
<feGaussianBlur stdDeviation="14.6888"/>
<feComposite in2="hardAlpha" operator="arithmetic" k2="-1" k3="1"/>
<feColorMatrix type="matrix" values="0 0 0 0 0.247059 0 0 0 0 0.458824 0 0 0 0 0.74902 0 0 0 0.21 0"/>
<feBlend mode="normal" in2="shape" result="effect2_innerShadow_1_194"/>
</filter>
<filter id="filter7_d_1_194" x="150.322" y="167.717" width="412.591" height="412.591" filterUnits="userSpaceOnUse" color-interpolation-filters="sRGB">
<feFlood flood-opacity="0" result="BackgroundImageFix"/>
<feColorMatrix in="SourceAlpha" type="matrix" values="0 0 0 0 0 0 0 0 0 0 0 0 0 0 0 0 0 0 127 0" result="hardAlpha"/>
<feOffset dy="37.1967"/>
<feGaussianBlur stdDeviation="18.5984"/>
<feColorMatrix type="matrix" values="0 0 0 0 0.105882 0 0 0 0 0.301961 0 0 0 0 0.364706 0 0 0 0.05 0"/>
<feBlend mode="normal" in2="BackgroundImageFix" result="effect1_dropShadow_1_194"/>
<feBlend mode="normal" in="SourceGraphic" in2="effect1_dropShadow_1_194" result="shape"/>
</filter>
<filter id="filter8_dii_1_194" x="323.333" y="236.591" width="89.2914" height="83.5624" filterUnits="userSpaceOnUse" color-interpolation-filters="sRGB">
<feFlood flood-opacity="0" result="BackgroundImageFix"/>
<feColorMatrix in="SourceAlpha" type="matrix" values="0 0 0 0 0 0 0 0 0 0 0 0 0 0 0 0 0 0 127 0" result="hardAlpha"/>
<feOffset dy="5.35198"/>
<feGaussianBlur stdDeviation="6.02098"/>
<feColorMatrix type="matrix" values="0 0 0 0 0 0 0 0 0 0 0 0 0 0 0 0 0 0 0.15 0"/>
<feBlend mode="normal" in2="BackgroundImageFix" result="effect1_dropShadow_1_194"/>
<feBlend mode="normal" in="SourceGraphic" in2="effect1_dropShadow_1_194" result="shape"/>
<feColorMatrix in="SourceAlpha" type="matrix" values="0 0 0 0 0 0 0 0 0 0 0 0 0 0 0 0 0 0 127 0" result="hardAlpha"/>
<feOffset dy="-6.68998"/>
<feGaussianBlur stdDeviation="3.34499"/>
<feComposite in2="hardAlpha" operator="arithmetic" k2="-1" k3="1"/>
<feColorMatrix type="matrix" values="0 0 0 0 0 0 0 0 0 0 0 0 0 0 0 0 0 0 0.25 0"/>
<feBlend mode="normal" in2="shape" result="effect2_innerShadow_1_194"/>
<feColorMatrix in="SourceAlpha" type="matrix" values="0 0 0 0 0 0 0 0 0 0 0 0 0 0 0 0 0 0 127 0" result="hardAlpha"/>
<feOffset dy="-4.01399"/>
<feGaussianBlur stdDeviation="4.01399"/>
<feComposite in2="hardAlpha" operator="arithmetic" k2="-1" k3="1"/>
<feColorMatrix type="matrix" values="0 0 0 0 1 0 0 0 0 1 0 0 0 0 1 0 0 0 0.85 0"/>
<feBlend mode="normal" in2="effect2_innerShadow_1_194" result="effect3_innerShadow_1_194"/>
</filter>
<filter id="filter9_dii_1_194" x="269.661" y="274.21" width="195.182" height="202.77" filterUnits="userSpaceOnUse" color-interpolation-filters="sRGB">
<feFlood flood-opacity="0" result="BackgroundImageFix"/>
<feColorMatrix in="SourceAlpha" type="matrix" values="0 0 0 0 0 0 0 0 0 0 0 0 0 0 0 0 0 0 127 0" result="hardAlpha"/>
<feOffset dy="20.0699"/>
<feGaussianBlur stdDeviation="13.38"/>
<feColorMatrix type="matrix" values="0 0 0 0 0.105882 0 0 0 0 0.301961 0 0 0 0 0.364706 0 0 0 0.55 0"/>
<feBlend mode="normal" in2="BackgroundImageFix" result="effect1_dropShadow_1_194"/>
<feBlend mode="normal" in="SourceGraphic" in2="effect1_dropShadow_1_194" result="shape"/>
<feColorMatrix in="SourceAlpha" type="matrix" values="0 0 0 0 0 0 0 0 0 0 0 0 0 0 0 0 0 0 127 0" result="hardAlpha"/>
<feOffset dy="-9.36597"/>
<feGaussianBlur stdDeviation="15.387"/>
<feComposite in2="hardAlpha" operator="arithmetic" k2="-1" k3="1"/>
<feColorMatrix type="matrix" values="0 0 0 0 0.105882 0 0 0 0 0.301961 0 0 0 0 0.364706 0 0 0 0.25 0"/>
<feBlend mode="normal" in2="shape" result="effect2_innerShadow_1_194"/>
<feColorMatrix in="SourceAlpha" type="matrix" values="0 0 0 0 0 0 0 0 0 0 0 0 0 0 0 0 0 0 127 0" result="hardAlpha"/>
<feOffset dy="-4.01399"/>
<feGaussianBlur stdDeviation="2.67599"/>
<feComposite in2="hardAlpha" operator="arithmetic" k2="-1" k3="1"/>
<feColorMatrix type="matrix" values="0 0 0 0 0.105882 0 0 0 0 0.301961 0 0 0 0 0.364706 0 0 0 0.67 0"/>
<feBlend mode="normal" in2="effect2_innerShadow_1_194" result="effect3_innerShadow_1_194"/>
</filter>
<filter id="filter10_dii_1_194" x="303.817" y="237.164" width="89.2893" height="83.5602" filterUnits="userSpaceOnUse" color-interpolation-filters="sRGB">
<feFlood flood-opacity="0" result="BackgroundImageFix"/>
<feColorMatrix in="SourceAlpha" type="matrix" values="0 0 0 0 0 0 0 0 0 0 0 0 0 0 0 0 0 0 127 0" result="hardAlpha"/>
<feOffset dy="5.35198"/>
<feGaussianBlur stdDeviation="6.02098"/>
<feColorMatrix type="matrix" values="0 0 0 0 0 0 0 0 0 0 0 0 0 0 0 0 0 0 0.15 0"/>
<feBlend mode="normal" in2="BackgroundImageFix" result="effect1_dropShadow_1_194"/>
<feBlend mode="normal" in="SourceGraphic" in2="effect1_dropShadow_1_194" result="shape"/>
<feColorMatrix in="SourceAlpha" type="matrix" values="0 0 0 0 0 0 0 0 0 0 0 0 0 0 0 0 0 0 127 0" result="hardAlpha"/>
<feOffset dy="-6.68998"/>
<feGaussianBlur stdDeviation="3.34499"/>
<feComposite in2="hardAlpha" operator="arithmetic" k2="-1" k3="1"/>
<feColorMatrix type="matrix" values="0 0 0 0 0 0 0 0 0 0 0 0 0 0 0 0 0 0 0.25 0"/>
<feBlend mode="normal" in2="shape" result="effect2_innerShadow_1_194"/>
<feColorMatrix in="SourceAlpha" type="matrix" values="0 0 0 0 0 0 0 0 0 0 0 0 0 0 0 0 0 0 127 0" result="hardAlpha"/>
<feOffset dy="-4.01399"/>
<feGaussianBlur stdDeviation="4.01399"/>
<feComposite in2="hardAlpha" operator="arithmetic" k2="-1" k3="1"/>
<feColorMatrix type="matrix" values="0 0 0 0 1 0 0 0 0 1 0 0 0 0 1 0 0 0 0.85 0"/>
<feBlend mode="normal" in2="effect2_innerShadow_1_194" result="effect3_innerShadow_1_194"/>
</filter>
<linearGradient id="paint0_linear_1_194" x1="367.252" y1="283.576" x2="367.252" y2="430.15" gradientUnits="userSpaceOnUse">
<stop stop-color="#1B4D5D"/>
<stop offset="1" stop-color="#1B4C5B"/>
</linearGradient>
<linearGradient id="paint1_linear_1_194" x1="346.391" y1="283.328" x2="346.391" y2="430.724" gradientUnits="userSpaceOnUse">
<stop stop-color="#1B4D5D" stop-opacity="0.64"/>
<stop offset="1" stop-color="#1B4D5D"/>
</linearGradient>
<clipPath id="clip0_1_194">
<rect width="80.704" height="80.704" fill="white" transform="translate(483.327 520.658)"/>
</clipPath>
</defs>
</svg>
