<svg width="18" height="18" viewBox="0 0 18 18" fill="none" xmlns="http://www.w3.org/2000/svg">
<path d="M14.0625 0C11.8912 0 10.125 1.76625 10.125 3.9375C10.125 5.958 13.284 9.53662 13.644 9.93825C13.7509 10.0564 13.9028 10.125 14.0625 10.125C14.2222 10.125 14.3741 10.0564 14.481 9.93825C14.841 9.53662 18 5.958 18 3.9375C18 1.76625 16.2337 0 14.0625 0ZM14.0625 5.625C13.131 5.625 12.375 4.869 12.375 3.9375C12.375 3.006 13.131 2.25 14.0625 2.25C14.994 2.25 15.75 3.006 15.75 3.9375C15.75 4.869 14.994 5.625 14.0625 5.625ZM0.35325 6.60825C0.248932 6.6503 0.159564 6.72257 0.0966197 6.81579C0.0336757 6.909 2.91776e-05 7.0189 0 7.13138L0 17.4375C0 17.6243 0.093375 17.7986 0.2475 17.9032C0.342 17.9662 0.451125 18 0.5625 18C0.633375 18 0.70425 17.9865 0.77175 17.9595L5.625 16.0177V4.5L0.35325 6.60825Z" fill="white"/>
<path d="M15.318 10.6897C14.9985 11.0452 14.5406 11.25 14.0625 11.25C13.5844 11.25 13.1265 11.0452 12.807 10.6897C12.6922 10.5626 12.5449 10.395 12.375 10.1959V18L17.6467 15.8918C17.8605 15.8074 18 15.5992 18 15.3698V7.09987C17.0786 8.66025 15.8468 10.1002 15.318 10.6897ZM9.35437 5.54175L6.75 4.5V16.0177L11.25 17.8177V8.784C10.5311 7.81538 9.78075 6.64875 9.35437 5.54175Z" fill="white"/>
</svg>
