<svg width="225" height="211" viewBox="0 0 225 211" fill="none" xmlns="http://www.w3.org/2000/svg">
<path d="M214.628 42.7201V147.14C214.628 155.678 207.258 162.6 198.166 162.6H26.5215C17.4293 162.6 10.0586 155.678 10.0586 147.14V42.7201C10.0586 34.1816 17.4293 27.2598 26.5215 27.2598H198.166C207.258 27.2598 214.628 34.1816 214.628 42.7201Z" fill="#FEFDFE"/>
<path d="M10.0586 135.438V147.137C10.0586 155.676 17.4293 162.598 26.521 162.598H198.166C207.258 162.598 214.628 155.676 214.628 147.137V135.438H10.0586Z" fill="#EAEAEA"/>
<path d="M89.3047 162.598H135.383V189.987H89.3047V162.598Z" fill="#FEFDFE"/>
<path d="M155.342 198.076C155.342 202.542 151.486 206.163 146.73 206.163H77.9554C73.1994 206.163 69.3438 202.542 69.3438 198.076C69.3438 193.609 73.1994 189.988 77.9554 189.988H146.73C151.486 189.988 155.342 193.609 155.342 198.076Z" fill="#EAEAEA"/>
<path d="M112.343 154.948C115.828 154.948 118.654 152.294 118.654 149.021C118.654 145.747 115.828 143.094 112.343 143.094C108.857 143.094 106.031 145.747 106.031 149.021C106.031 152.294 108.857 154.948 112.343 154.948Z" fill="#FEFDFE"/>
<path d="M180.809 13.2413V135.337H43.875V13.2413C43.875 8.60753 47.875 4.85156 52.8088 4.85156H171.875C176.809 4.85156 180.809 8.60794 180.809 13.2413Z" fill="#FEFDFE"/>
<path d="M180.809 35.3794V13.2413C180.809 8.60794 176.809 4.85156 171.875 4.85156H52.8088C47.8745 4.85156 43.875 8.60794 43.875 13.2413V35.3794H180.809Z" fill="#EAEAEA"/>
<path d="M69.51 20.1129C69.51 23.1634 66.8765 25.636 63.6287 25.636C60.3804 25.636 57.7474 23.163 57.7474 20.1129C57.7474 17.0629 60.3809 14.5898 63.6287 14.5898C66.8765 14.5898 69.51 17.0629 69.51 20.1129ZM91.0857 20.1129C91.0857 23.1634 88.4523 25.636 85.2044 25.636C81.9566 25.636 79.3232 23.163 79.3232 20.1129C79.3232 17.0629 81.9566 14.5898 85.2044 14.5898C88.4523 14.5898 91.0857 17.0629 91.0857 20.1129ZM112.661 20.1129C112.661 23.1634 110.028 25.636 106.78 25.636C103.532 25.636 100.899 23.163 100.899 20.1129C100.899 17.0629 103.532 14.5898 106.78 14.5898C110.028 14.5898 112.661 17.0629 112.661 20.1129ZM169.401 97.3525V121.177C169.401 123.923 167.03 126.15 164.106 126.15H137.011C134.086 126.15 131.716 123.923 131.716 121.177V97.3525C131.716 94.6062 134.086 92.38 137.011 92.38H164.106C167.03 92.38 169.401 94.6062 169.401 97.3525ZM117.639 53.4373V92.3574C117.639 95.6691 114.786 98.3478 111.26 98.3478H62.3008C61.3795 98.3484 60.4691 98.1614 59.6323 97.7995C58.7955 97.4377 58.0522 96.9096 57.4538 96.2518C56.5029 95.1976 55.9219 93.8331 55.9219 92.3574V53.4373C55.9219 50.1256 58.7747 47.4469 62.3008 47.4469H111.26C114.786 47.4469 117.639 50.1256 117.639 53.4373Z" fill="#FEFDFE"/>
<path d="M104.347 98.116H62.5462C61.6249 98.1166 60.7145 97.9296 59.8777 97.5677C59.0408 97.2058 58.2976 96.6778 57.6992 96.02L76.6069 70.2759C78.2977 67.9739 81.9159 67.9636 83.6212 70.2557L95.2604 85.899L104.347 98.116Z" fill="#EAEAEA"/>
<path d="M117.884 87.9344V92.1263C117.884 95.4348 115.028 98.1168 111.505 98.1168H86.293L95.2606 85.8998L102.235 76.4048C103.936 74.09 107.574 74.0792 109.29 76.3846L117.884 87.9344Z" fill="#EAEAEA"/>
<path d="M101.594 65.4156C104.085 63.0761 104.085 59.2832 101.594 56.9438C99.1031 54.6044 95.0642 54.6044 92.5731 56.9438C90.0819 59.2832 90.0819 63.0761 92.5731 65.4156C95.0642 67.755 99.1031 67.755 101.594 65.4156Z" fill="#EAEAEA"/>
<path d="M217.129 42.7227C217.129 32.8976 208.616 24.9031 198.154 24.9031H190.851C190.185 24.9033 189.546 25.152 189.075 25.5944C188.604 26.0368 188.339 26.6368 188.339 27.2624C188.339 27.8881 188.604 28.4881 189.075 28.9305C189.546 29.3729 190.185 29.6215 190.851 29.6218H198.154C205.846 29.6218 212.105 35.4997 212.105 42.7231V133.08H183.319V13.2404C183.319 7.31345 178.185 2.49219 171.873 2.49219H52.807C46.4957 2.49219 41.3609 7.31345 41.3609 13.2404V133.08H12.5746V42.7227C12.5746 35.4993 18.8329 29.6213 26.5256 29.6213H33.8274C34.4937 29.6213 35.1327 29.3728 35.6039 28.9303C36.0751 28.4879 36.3397 27.8878 36.3397 27.262C36.3397 26.6363 36.0751 26.0362 35.6039 25.5937C35.1327 25.1513 34.4937 24.9027 33.8274 24.9027H26.5256C16.0625 24.9027 7.55043 32.8972 7.55043 42.7223L7.54297 147.139C7.54297 156.964 16.055 164.958 26.5173 164.958H86.7878V187.63H77.9531C71.8182 187.63 66.8287 192.316 66.8287 198.076C66.8287 203.837 71.8187 208.523 77.9531 208.523H146.727C152.86 208.523 157.85 203.836 157.85 198.076C157.85 192.316 152.86 187.63 146.727 187.63H137.891V164.958H198.162C208.624 164.958 217.137 156.964 217.137 147.139L217.129 42.7227ZM46.386 37.737H178.294V132.976H46.386V37.737ZM46.386 13.2396C46.386 9.91428 49.2661 7.2096 52.807 7.2096H171.873C175.414 7.2096 178.294 9.91428 178.294 13.2396V33.0188H46.386V13.2396ZM212.105 137.798V147.138C212.105 154.361 205.846 160.239 198.154 160.239H26.5256C18.8329 160.239 12.5746 154.361 12.5746 147.138V137.798H212.105ZM152.826 198.076C152.826 201.235 150.09 203.804 146.727 203.804H77.9531C74.589 203.804 71.8529 201.235 71.8529 198.076C71.8529 194.918 74.589 192.348 77.9531 192.348H146.728C150.09 192.348 152.826 194.918 152.826 198.076ZM132.867 187.63H91.8124V164.959H132.867V187.63Z" fill="#EAEAEA"/>
<path d="M131.006 52.8658H168.691C169.357 52.8656 169.996 52.617 170.467 52.1745C170.939 51.7321 171.203 51.1322 171.204 50.5065C171.203 49.8808 170.939 49.2808 170.467 48.8384C169.996 48.396 169.357 48.1474 168.691 48.1472H131.006C130.34 48.1474 129.701 48.396 129.23 48.8384C128.759 49.2808 128.494 49.8808 128.494 50.5065C128.494 51.1322 128.759 51.7321 129.23 52.1745C129.701 52.617 130.34 52.8656 131.006 52.8658ZM168.691 62.3991H143.49C142.832 62.4107 142.205 62.6643 141.743 63.1055C141.282 63.5467 141.024 64.1403 141.024 64.7585C141.024 65.3767 141.282 65.9702 141.743 66.4114C142.205 66.8526 142.832 67.1062 143.49 67.1178H168.691C170.078 67.1178 171.204 66.0611 171.204 64.7585C171.204 63.4558 170.078 62.3991 168.691 62.3991ZM131.006 82.2228H168.691C169.357 82.2226 169.996 81.974 170.467 81.5316C170.939 81.0892 171.203 80.4892 171.204 79.8635C171.203 79.2378 170.939 78.6379 170.467 78.1955C169.996 77.753 169.357 77.5044 168.691 77.5042H131.006C130.34 77.5044 129.701 77.753 129.23 78.1955C128.759 78.6379 128.494 79.2378 128.494 79.8635C128.494 80.4892 128.759 81.0892 129.23 81.5316C129.701 81.974 130.34 82.2226 131.006 82.2228ZM164.104 90.022H137.008C132.704 90.022 129.2 93.3102 129.2 97.353V121.178C129.2 125.22 132.704 128.51 137.008 128.51H164.104C168.408 128.51 171.91 125.22 171.91 121.178V97.353C171.91 93.3106 168.408 90.022 164.104 90.022ZM166.885 121.178C166.885 122.619 165.637 123.792 164.104 123.792H137.008C136.27 123.791 135.563 123.515 135.041 123.025C134.519 122.535 134.226 121.871 134.225 121.178V97.353C134.225 95.9123 135.474 94.7407 137.008 94.7407H164.104C164.841 94.7414 165.548 95.0169 166.07 95.5067C166.591 95.9964 166.885 96.6604 166.885 97.353V121.178ZM111.257 45.0881H62.2984C57.3953 45.0881 53.4062 48.8341 53.4062 53.4386V92.3583C53.4062 94.3302 54.1619 96.2531 55.5407 97.7861C56.375 98.7034 57.4113 99.4396 58.5781 99.944C59.7449 100.448 61.0143 100.709 62.2988 100.708L111.251 100.71C116.15 100.71 120.148 96.8853 120.148 92.3583V53.4386C120.148 48.8337 116.159 45.0881 111.257 45.0881ZM62.2984 49.8063H111.257C113.39 49.8063 115.123 51.4358 115.123 53.4386V80.6729L111.098 75.2652C110.47 74.4217 109.635 73.7331 108.662 73.2579C107.69 72.7827 106.61 72.535 105.514 72.5358H105.488C104.392 72.5385 103.314 72.7904 102.344 73.2699C101.375 73.7495 100.543 74.4424 99.921 75.2895L94.9946 81.9908L85.4324 69.1367C84.8074 68.2965 83.9756 67.6103 83.0078 67.1365C82.04 66.6627 80.9647 66.4152 79.8733 66.4151C79.8667 66.4151 79.8601 66.4151 79.8535 66.4168C78.7586 66.4198 77.6808 66.6718 76.7122 67.1511C75.7436 67.6304 74.9129 68.3229 74.2913 69.1693L58.43 90.7655V53.4386C58.4305 51.4358 60.1656 49.8063 62.2984 49.8063ZM111.99 95.9197C111.269 96.0503 111.203 95.965 105.408 95.9893L98.066 86.1197L104.059 77.9674C104.527 77.327 105.229 77.2561 105.506 77.2549H105.513C105.801 77.2549 106.503 77.3253 106.98 77.9674L115.118 88.9031V92.3591C115.119 94.0669 113.804 95.5867 111.99 95.9197ZM60.8901 95.724L78.426 71.8476C78.8986 71.2055 79.592 71.135 79.8684 71.1334C80.1137 71.0967 80.8383 71.1993 81.3144 71.8397L92.8794 87.3862C92.8869 87.3973 92.8965 87.4084 92.9044 87.4199L99.279 95.9885H62.2988C61.7893 95.9889 61.3364 95.8871 60.8901 95.724Z" fill="#1B4D5D"/>
<path d="M97.1014 69.528C102.003 69.528 105.992 65.782 105.992 61.1787C105.992 56.5742 102.003 52.8281 97.1014 52.8281C92.2001 52.8281 88.2106 56.5742 88.2106 61.1787C88.2106 65.782 92.1996 69.528 97.1014 69.528ZM97.1014 57.5468C99.2342 57.5468 100.968 59.1763 100.968 61.1791C100.968 63.182 99.2337 64.8098 97.1014 64.8098C94.9691 64.8098 93.2353 63.1816 93.2353 61.1791C93.2349 59.1763 94.9687 57.5468 97.1014 57.5468ZM116.932 107.724H56.7471C56.0889 107.736 55.4618 107.99 55.0007 108.431C54.5396 108.872 54.2812 109.466 54.2812 110.084C54.2812 110.702 54.5396 111.295 55.0007 111.737C55.4618 112.178 56.0889 112.431 56.7471 112.443H116.932C118.319 112.443 119.444 111.386 119.444 110.084C119.444 108.781 118.319 107.724 116.932 107.724ZM108.975 121.753H64.7036C64.0373 121.754 63.3984 122.002 62.9273 122.445C62.4562 122.887 62.1915 123.487 62.1912 124.113C62.1915 124.738 62.4562 125.338 62.9273 125.781C63.3984 126.223 64.0373 126.472 64.7036 126.472H108.975C109.633 126.461 110.26 126.207 110.721 125.766C111.182 125.324 111.441 124.731 111.441 124.113C111.441 123.495 111.182 122.901 110.721 122.46C110.26 122.019 109.633 121.765 108.975 121.753Z" fill="#1B4D5D"/>
<path d="M110.951 155.306C115.816 155.306 119.774 151.589 119.774 147.019C119.774 142.45 115.816 138.733 110.951 138.733C106.087 138.733 102.129 142.45 102.129 147.019C102.129 151.589 106.087 155.306 110.951 155.306ZM110.951 143.452C113.046 143.452 114.75 145.052 114.75 147.02C114.75 148.987 113.046 150.588 110.951 150.588C108.857 150.588 107.153 148.988 107.153 147.02C107.153 145.052 108.857 143.452 110.951 143.452ZM62.2373 10.2324C57.609 10.2324 53.8438 13.7679 53.8438 18.1148C53.8438 22.4618 57.6085 25.9973 62.2373 25.9973C66.8657 25.9973 70.6322 22.4618 70.6322 18.1148C70.6322 13.7679 66.8657 10.2324 62.2373 10.2324ZM62.2373 21.2786C60.3793 21.2786 58.8684 19.8593 58.8684 18.1148C58.8684 16.3704 60.3798 14.9511 62.2373 14.9511C64.0949 14.9511 65.608 16.3704 65.608 18.1148C65.608 19.8593 64.0954 21.2786 62.2373 21.2786ZM83.8144 10.2324C79.186 10.2324 75.4195 13.7679 75.4195 18.1148C75.4195 22.4618 79.186 25.9973 83.8144 25.9973C88.4428 25.9973 92.208 22.4618 92.208 18.1148C92.208 13.7679 88.4428 10.2324 83.8144 10.2324ZM83.8144 21.2786C81.9564 21.2786 80.4437 19.8593 80.4437 18.1148C80.4437 16.3704 81.9564 14.9511 83.8144 14.9511C85.6724 14.9511 87.1833 16.3704 87.1833 18.1148C87.1833 19.8593 85.6724 21.2786 83.8144 21.2786ZM105.39 10.2324C100.762 10.2324 96.9966 13.7679 96.9966 18.1148C96.9966 22.4618 100.761 25.9973 105.39 25.9973C110.019 25.9973 113.784 22.4618 113.784 18.1148C113.784 13.7679 110.019 10.2324 105.39 10.2324ZM105.39 21.2786C103.532 21.2786 102.021 19.8593 102.021 18.1148C102.021 16.3704 103.533 14.9511 105.39 14.9511C107.248 14.9511 108.759 16.3704 108.759 18.1148C108.759 19.8593 107.248 21.2786 105.39 21.2786Z" fill="#C4C4C4"/>
</svg>
