<svg width="212" height="212" viewBox="0 0 212 212" fill="none" xmlns="http://www.w3.org/2000/svg">
<path d="M202.338 42.7631V147.301C202.338 155.85 195.408 162.779 186.86 162.779H25.4857C16.9375 162.779 10.0078 155.85 10.0078 147.301V42.7631C10.0078 34.2148 16.9375 27.2852 25.4857 27.2852H186.86C195.409 27.2852 202.338 34.2148 202.338 42.7631Z" fill="#FEFDFE"/>
<path d="M10.0078 135.586V147.299C10.0078 155.847 16.9375 162.777 25.4853 162.777H186.86C195.408 162.777 202.338 155.847 202.338 147.299V135.586H10.0078Z" fill="#EAEAEA"/>
<path d="M84.5117 162.777H127.833V190.198H84.5117V162.777Z" fill="#FEFDFE"/>
<path d="M146.599 198.294C146.599 202.765 142.974 206.39 138.502 206.39H73.8425C69.371 206.39 65.7461 202.765 65.7461 198.294C65.7461 193.822 69.371 190.197 73.8425 190.197H138.502C142.974 190.197 146.599 193.822 146.599 198.294Z" fill="#EAEAEA"/>
<path d="M106.176 155.115C109.453 155.115 112.11 152.459 112.11 149.182C112.11 145.905 109.453 143.248 106.176 143.248C102.899 143.248 100.242 145.905 100.242 149.182C100.242 152.459 102.899 155.115 106.176 155.115Z" fill="#FEFDFE"/>
<path d="M170.542 13.2489V135.484H41.8008V13.2489C41.8008 8.60985 45.5614 4.84961 50.2001 4.84961H162.143C166.782 4.84961 170.542 8.61026 170.542 13.2489Z" fill="#FEFDFE"/>
<path d="M170.541 35.4122V13.2489C170.541 8.61027 166.781 4.84961 162.142 4.84961H50.2001C45.561 4.84961 41.8008 8.61027 41.8008 13.2489V35.4122H170.541Z" fill="#EAEAEA"/>
<path d="M65.9025 20.1309C65.9025 23.1848 63.4266 25.6603 60.3731 25.6603C57.3192 25.6603 54.8438 23.1844 54.8438 20.1309C54.8438 17.0774 57.3196 14.6016 60.3731 14.6016C63.4266 14.6016 65.9025 17.0774 65.9025 20.1309ZM86.1873 20.1309C86.1873 23.1848 83.7114 25.6603 80.6579 25.6603C77.6044 25.6603 75.1286 23.1844 75.1286 20.1309C75.1286 17.0774 77.6044 14.6016 80.6579 14.6016C83.7114 14.6016 86.1873 17.0774 86.1873 20.1309ZM106.472 20.1309C106.472 23.1848 103.996 25.6603 100.943 25.6603C97.8892 25.6603 95.4134 23.1844 95.4134 20.1309C95.4134 17.0774 97.8892 14.6016 100.943 14.6016C103.996 14.6016 106.472 17.0774 106.472 20.1309Z" fill="#FEFDFE"/>
<path d="M204.687 42.7646C204.687 32.9283 196.683 24.9247 186.847 24.9247H179.981C179.355 24.9249 178.754 25.1739 178.311 25.6168C177.868 26.0597 177.62 26.6604 177.619 27.2867C177.62 27.9131 177.868 28.5138 178.311 28.9567C178.754 29.3996 179.355 29.6485 179.981 29.6488H186.847C194.079 29.6488 199.963 35.5334 199.963 42.765V133.225H172.899V13.2487C172.899 7.31504 168.073 2.48828 162.139 2.48828H50.1965C44.2628 2.48828 39.4352 7.31504 39.4352 13.2487V133.225H12.3713V42.7646C12.3713 35.533 18.255 29.6483 25.4875 29.6483H32.3524C32.9789 29.6483 33.5797 29.3995 34.0226 28.9565C34.4656 28.5136 34.7145 27.9128 34.7145 27.2863C34.7145 26.6599 34.4656 26.0591 34.0226 25.6161C33.5797 25.1732 32.9789 24.9243 32.3524 24.9243H25.4875C15.6504 24.9243 7.64764 32.9279 7.64764 42.7642L7.64062 147.3C7.64062 157.136 15.6434 165.14 25.4797 165.14H82.1441V187.837H73.8381C68.0702 187.837 63.3792 192.528 63.3792 198.294C63.3792 204.062 68.0706 208.753 73.8381 208.753H138.497C144.264 208.753 148.955 204.062 148.955 198.294C148.955 192.528 144.264 187.837 138.497 187.837H130.189V165.14H186.854C196.691 165.14 204.694 157.136 204.694 147.3L204.687 42.7646ZM44.1596 37.7733H168.175V133.121H44.1596V37.7733ZM44.1596 13.2479C44.1596 9.91882 46.8674 7.21107 50.1965 7.21107H162.139C165.468 7.21107 168.175 9.91882 168.175 13.2479V33.0496H44.1596V13.2479ZM199.963 137.948V147.298C199.963 154.53 194.079 160.415 186.847 160.415H25.4875C18.255 160.415 12.3713 154.53 12.3713 147.298V137.948H199.963ZM144.231 198.294C144.231 201.457 141.659 204.03 138.497 204.03H73.8381C70.6752 204.03 68.1028 201.457 68.1028 198.294C68.1028 195.133 70.6752 192.56 73.8381 192.56H138.498C141.659 192.561 144.231 195.133 144.231 198.294ZM125.466 187.837H86.8681V165.14H125.466V187.837Z" fill="#EAEAEA"/>
<path d="M106.163 157.477C110.737 157.477 114.458 153.756 114.458 149.181C114.458 144.606 110.737 140.885 106.163 140.885C101.59 140.885 97.8687 144.606 97.8687 149.181C97.8687 153.756 101.59 157.477 106.163 157.477ZM106.163 145.609C108.132 145.609 109.735 147.211 109.735 149.182C109.735 151.151 108.133 152.754 106.163 152.754C104.195 152.754 102.592 151.152 102.592 149.182C102.592 147.211 104.195 145.609 106.163 145.609ZM60.364 12.2383C56.0126 12.2383 52.4727 15.7778 52.4727 20.1297C52.4727 24.4816 56.0122 28.0211 60.364 28.0211C64.7155 28.0211 68.2567 24.4816 68.2567 20.1297C68.2567 15.7778 64.7155 12.2383 60.364 12.2383ZM60.364 23.2971C58.6172 23.2971 57.1967 21.8761 57.1967 20.1297C57.1967 18.3832 58.6176 16.9623 60.364 16.9623C62.1105 16.9623 63.5331 18.3832 63.5331 20.1297C63.5331 21.8761 62.1109 23.2971 60.364 23.2971ZM80.6501 12.2383C76.2987 12.2383 72.7575 15.7778 72.7575 20.1297C72.7575 24.4816 76.2987 28.0211 80.6501 28.0211C85.0016 28.0211 88.5415 24.4816 88.5415 20.1297C88.5415 15.7778 85.0016 12.2383 80.6501 12.2383ZM80.6501 23.2971C78.9033 23.2971 77.4811 21.8761 77.4811 20.1297C77.4811 18.3832 78.9033 16.9623 80.6501 16.9623C82.397 16.9623 83.8175 18.3832 83.8175 20.1297C83.8175 21.8761 82.397 23.2971 80.6501 23.2971ZM100.935 12.2383C96.5835 12.2383 93.0436 15.7778 93.0436 20.1297C93.0436 24.4816 96.5831 28.0211 100.935 28.0211C105.287 28.0211 108.826 24.4816 108.826 20.1297C108.826 15.7778 105.286 12.2383 100.935 12.2383ZM100.935 23.2971C99.1881 23.2971 97.7676 21.8761 97.7676 20.1297C97.7676 18.3832 99.1885 16.9623 100.935 16.9623C102.681 16.9623 104.102 18.3832 104.102 20.1297C104.102 21.8761 102.681 23.2971 100.935 23.2971Z" fill="#C4C4C4"/>
<path d="M131.948 53.6348H80.1102C74.9189 53.6348 70.6953 57.8583 70.6953 63.0497V106.93C70.6953 109.153 71.4954 111.321 72.9553 113.05C73.8386 114.084 74.9358 114.914 76.1712 115.482C77.4066 116.051 78.7507 116.345 80.1107 116.343L131.941 116.347C137.128 116.347 141.361 112.034 141.361 106.93V63.0497C141.361 57.8578 137.137 53.6348 131.948 53.6348ZM80.1102 58.9544H131.947C134.206 58.9544 136.041 60.7916 136.041 63.0497V93.7552L131.779 87.6582C131.114 86.7072 130.23 85.9308 129.2 85.395C128.171 84.8593 127.028 84.58 125.867 84.5809H125.839C124.679 84.5839 123.537 84.8679 122.51 85.4086C121.484 85.9493 120.604 86.7306 119.945 87.6856L114.729 95.2411L104.604 80.7486C103.943 79.8013 103.062 79.0277 102.037 78.4935C101.013 77.9593 99.8741 77.6803 98.7185 77.6801C98.7115 77.6801 98.7045 77.6801 98.6976 77.682C97.5383 77.6854 96.3971 77.9695 95.3715 78.5099C94.346 79.0503 93.4665 79.831 92.8083 80.7853L76.0145 105.134V63.0497C76.0149 60.7916 77.8521 58.9544 80.1102 58.9544ZM132.724 110.945C131.96 111.093 131.89 110.996 125.755 111.024L117.981 99.8962L124.326 90.7048C124.822 89.9828 125.565 89.9029 125.859 89.9015H125.866C126.171 89.9015 126.914 89.9809 127.419 90.7048L136.036 103.034V106.931C136.036 108.856 134.645 110.57 132.724 110.945ZM78.6192 110.725L97.1861 83.805C97.6865 83.0811 98.4206 83.0016 98.7134 82.9998C98.9731 82.9584 99.7402 83.0741 100.244 83.7961L112.489 101.324C112.497 101.337 112.507 101.349 112.516 101.362L119.265 111.023H80.1107C79.5713 111.023 79.0918 110.909 78.6192 110.725Z" fill="#1B4D5D"/>
<path d="M125.261 78.6056C129.87 78.6056 133.62 74.8553 133.62 70.2468C133.62 65.6371 129.869 61.8867 125.261 61.8867C120.653 61.8867 116.902 65.6371 116.902 70.2468C116.902 74.8553 120.653 78.6056 125.261 78.6056ZM125.261 66.6107C127.266 66.6107 128.896 68.2421 128.896 70.2472C128.896 72.2523 127.266 73.882 125.261 73.882C123.256 73.882 121.626 72.2519 121.626 70.2472C121.626 68.2421 123.256 66.6107 125.261 66.6107Z" fill="#1B4D5D"/>
</svg>
