<svg width="413" height="413" viewBox="0 0 413 413" fill="none" xmlns="http://www.w3.org/2000/svg">
<rect x="13" y="14" width="387" height="385" rx="42" fill="#ECECE3" fill-opacity="0.62"/>
<g filter="url(#filter0_ddddddd_1_558)">
<rect x="97" y="97" width="219" height="219" rx="17.6001" fill="#F2F2F1"/>
</g>
<g filter="url(#filter1_dd_1_558)">
<g clip-path="url(#clip0_1_558)">
<path d="M178.372 248.819C178.376 249.46 178.269 250.097 178.058 250.702L174.557 259.949C173.928 261.351 172.788 262.461 171.369 263.051C169.95 263.642 168.36 263.669 166.922 263.127C165.483 262.585 164.306 261.515 163.63 260.135C162.954 258.755 162.83 257.169 163.283 255.7L166.687 246.671C166.736 246.512 166.801 246.358 166.88 246.212C167.467 244.97 168.46 243.966 169.695 243.365C170.929 242.764 172.332 242.602 173.672 242.906C175.011 243.21 176.206 243.962 177.061 245.037C177.916 246.112 178.378 247.446 178.372 248.819Z" fill="white"/>
<path d="M174.464 243.17C173.515 242.816 172.492 242.707 171.49 242.852C170.487 242.998 169.537 243.394 168.728 244.003C169.475 244.565 170.081 245.292 170.5 246.128C170.919 246.963 171.139 247.884 171.142 248.819C171.146 249.46 171.04 250.097 170.828 250.702L167.328 259.949C166.927 261.009 166.23 261.931 165.319 262.604C165.769 262.955 166.266 263.24 166.797 263.449C168.292 264.011 169.949 263.958 171.405 263.302C172.862 262.646 174 261.441 174.571 259.949L178.071 250.702C178.283 250.097 178.389 249.46 178.385 248.819C178.384 247.59 178.009 246.391 177.308 245.381C176.607 244.372 175.615 243.6 174.464 243.17Z" fill="#BCCDDA"/>
<path d="M190.515 250.822C190.516 251.54 190.385 252.252 190.129 252.923L185.856 264.197C185.292 265.696 184.157 266.909 182.699 267.57C181.241 268.231 179.58 268.286 178.082 267.722C176.583 267.159 175.37 266.023 174.709 264.565C174.048 263.107 173.993 261.447 174.557 259.948L178.058 250.702L178.83 248.674C179.328 247.349 180.277 246.241 181.509 245.544C182.741 244.847 184.179 244.606 185.571 244.862C186.963 245.118 188.221 245.855 189.125 246.945C190.029 248.034 190.521 249.407 190.515 250.822Z" fill="white"/>
<path d="M186.609 245.15C185.658 244.797 184.634 244.689 183.631 244.836C182.628 244.984 181.679 245.381 180.87 245.992C181.618 246.556 182.225 247.285 182.644 248.123C183.063 248.961 183.282 249.884 183.284 250.821C183.285 251.538 183.154 252.25 182.898 252.921L178.625 264.196C178.223 265.255 177.526 266.176 176.616 266.851C177.356 267.428 178.222 267.821 179.144 268C180.065 268.178 181.015 268.136 181.917 267.877C182.819 267.618 183.647 267.15 184.334 266.51C185.02 265.87 185.546 265.077 185.867 264.196L190.141 252.921C190.397 252.25 190.528 251.538 190.527 250.821C190.527 249.589 190.152 248.387 189.452 247.374C188.752 246.361 187.76 245.585 186.609 245.15Z" fill="#BCCDDA"/>
<path d="M211.398 263.811C211.398 264.529 211.267 265.241 211.011 265.911L209.539 269.823L208.452 272.671C207.851 274.113 206.714 275.265 205.281 275.885C203.849 276.506 202.231 276.547 200.768 276C199.305 275.453 198.112 274.361 197.438 272.952C196.764 271.544 196.662 269.929 197.154 268.446L199.761 261.542C200.284 260.239 201.245 259.159 202.478 258.488C203.711 257.818 205.139 257.598 206.517 257.866C207.895 258.135 209.136 258.876 210.027 259.961C210.918 261.046 211.402 262.407 211.398 263.811Z" fill="white"/>
<path d="M207.488 258.162C206.536 257.811 205.511 257.705 204.508 257.852C203.504 257.999 202.553 258.395 201.742 259.004C202.488 259.565 203.094 260.291 203.513 261.125C203.932 261.958 204.152 262.878 204.156 263.811C204.157 264.529 204.026 265.241 203.77 265.911L202.297 269.823L201.211 272.671C200.805 273.735 200.104 274.661 199.19 275.342C199.931 275.923 200.799 276.32 201.723 276.5C202.647 276.681 203.601 276.639 204.505 276.378C205.41 276.117 206.24 275.645 206.926 275.001C207.613 274.356 208.136 273.558 208.454 272.671L209.54 269.823L211.013 265.911C211.269 265.241 211.4 264.529 211.399 263.811C211.396 262.584 211.021 261.387 210.322 260.378C209.624 259.369 208.636 258.596 207.488 258.162Z" fill="#BCCDDA"/>
<path d="M201.816 255.072C201.817 255.79 201.686 256.502 201.43 257.173L199.764 261.543L197.156 268.447C196.593 269.946 195.457 271.159 194 271.82C192.542 272.481 190.881 272.536 189.383 271.972C187.884 271.409 186.671 270.273 186.01 268.815C185.349 267.357 185.294 265.697 185.858 264.198L190.131 252.924C190.629 251.599 191.577 250.491 192.81 249.794C194.042 249.097 195.48 248.856 196.872 249.112C198.264 249.368 199.522 250.105 200.426 251.195C201.33 252.284 201.822 253.657 201.816 255.072Z" fill="white"/>
<path d="M197.906 249.399C196.954 249.047 195.93 248.939 194.926 249.086C193.922 249.232 192.971 249.628 192.16 250.236C192.908 250.8 193.515 251.53 193.934 252.367C194.352 253.205 194.572 254.128 194.574 255.065C194.575 255.783 194.444 256.495 194.188 257.165L192.522 261.535L189.915 268.447C189.507 269.504 188.809 270.425 187.901 271.103C188.641 271.682 189.507 272.078 190.43 272.257C191.352 272.437 192.304 272.396 193.207 272.137C194.11 271.877 194.939 271.408 195.626 270.767C196.312 270.125 196.837 269.33 197.157 268.447L199.765 261.542L201.431 257.172C201.687 256.502 201.818 255.79 201.817 255.072C201.818 253.841 201.445 252.639 200.746 251.626C200.047 250.612 199.057 249.835 197.906 249.399Z" fill="#BCCDDA"/>
<path d="M254.858 201.74V237.954L243.149 240.368C242.336 241.529 241.135 242.361 239.763 242.715C238.391 243.069 236.938 242.922 235.665 242.3C236.693 242.793 237.561 243.567 238.168 244.532C238.775 245.498 239.095 246.616 239.093 247.756C239.089 248.657 238.891 249.546 238.514 250.363C238.023 251.394 237.25 252.263 236.283 252.87C235.317 253.477 234.198 253.797 233.057 253.792C232.165 253.787 231.283 253.59 230.474 253.212C231.7 253.806 232.689 254.797 233.281 256.024C233.872 257.251 234.031 258.642 233.732 259.971C233.432 261.3 232.692 262.488 231.632 263.343C230.571 264.198 229.253 264.669 227.891 264.68C226.99 264.676 226.101 264.478 225.284 264.101C226.314 264.591 227.183 265.365 227.79 266.331C228.397 267.297 228.717 268.416 228.712 269.557C228.708 270.457 228.51 271.347 228.132 272.164C227.793 272.877 227.316 273.516 226.729 274.045C226.142 274.573 225.457 274.98 224.712 275.242C223.967 275.505 223.178 275.618 222.389 275.574C221.601 275.531 220.828 275.332 220.117 274.989L209.543 269.822L211.015 265.911C211.271 265.241 211.402 264.529 211.402 263.811C211.406 262.407 210.922 261.046 210.031 259.96C209.14 258.875 207.899 258.135 206.521 257.866C205.143 257.597 203.715 257.817 202.482 258.488C201.249 259.159 200.288 260.239 199.765 261.542L201.431 257.172C201.687 256.501 201.818 255.789 201.817 255.071C201.823 253.656 201.331 252.283 200.427 251.194C199.523 250.104 198.265 249.367 196.873 249.111C195.481 248.855 194.043 249.096 192.81 249.793C191.578 250.49 190.63 251.598 190.132 252.923C190.388 252.252 190.519 251.54 190.518 250.822C190.524 249.407 190.032 248.034 189.128 246.945C188.224 245.855 186.966 245.118 185.574 244.862C184.182 244.606 182.744 244.847 181.512 245.544C180.28 246.241 179.331 247.349 178.833 248.674L178.061 250.701C178.272 250.096 178.378 249.459 178.374 248.818C178.381 247.445 177.918 246.111 177.064 245.036C176.209 243.961 175.014 243.209 173.674 242.905C172.335 242.601 170.932 242.763 169.697 243.364C168.463 243.965 167.47 244.969 166.883 246.211L158.288 242.783V206.569L195.419 200.026C198.517 202.513 201.896 204.628 205.487 206.327C205.828 206.483 206.198 206.563 206.573 206.563C206.948 206.563 207.318 206.483 207.659 206.327C213.348 203.597 218.506 199.878 222.893 195.343L254.858 201.74Z" fill="white"/>
<path d="M222.894 195.343C222.479 195.767 222.064 196.144 221.649 196.55L247.616 201.74V237.954L235.907 240.368C235.094 241.529 233.893 242.361 232.521 242.715C231.149 243.069 229.696 242.922 228.423 242.3C229.452 242.793 230.32 243.567 230.926 244.532C231.533 245.498 231.854 246.616 231.851 247.756C231.847 248.657 231.649 249.546 231.272 250.363C230.781 251.394 230.008 252.263 229.042 252.87C228.076 253.477 226.957 253.797 225.816 253.792C224.923 253.787 224.042 253.59 223.232 253.212C224.458 253.806 225.448 254.797 226.039 256.024C226.63 257.251 226.789 258.642 226.49 259.971C226.191 261.3 225.451 262.488 224.39 263.343C223.33 264.198 222.011 264.669 220.649 264.68C219.749 264.676 218.859 264.478 218.042 264.101C219.072 264.591 219.941 265.365 220.548 266.331C221.155 267.297 221.475 268.416 221.47 269.557C221.466 270.457 221.268 271.347 220.891 272.164C220.45 273.071 219.785 273.849 218.959 274.426L220.108 274.989C220.82 275.332 221.592 275.531 222.38 275.574C223.169 275.618 223.958 275.505 224.703 275.242C225.448 274.98 226.133 274.573 226.721 274.045C227.308 273.516 227.784 272.877 228.124 272.164C228.501 271.347 228.699 270.457 228.703 269.557C228.708 268.416 228.388 267.297 227.781 266.331C227.174 265.365 226.305 264.591 225.275 264.101C226.092 264.478 226.982 264.676 227.882 264.68C229.244 264.669 230.563 264.198 231.623 263.343C232.684 262.488 233.424 261.3 233.723 259.971C234.022 258.642 233.863 257.251 233.272 256.024C232.681 254.797 231.692 253.806 230.466 253.212C231.275 253.59 232.156 253.787 233.049 253.792C234.19 253.797 235.309 253.477 236.275 252.87C237.241 252.263 238.014 251.394 238.505 250.363C238.883 249.546 239.08 248.657 239.084 247.756C239.087 246.616 238.766 245.498 238.159 244.532C237.553 243.567 236.685 242.793 235.656 242.3C236.929 242.922 238.383 243.069 239.755 242.715C241.126 242.361 242.327 241.529 243.14 240.368L254.859 237.954V201.74L222.894 195.343Z" fill="#1B4D5D" fill-opacity="0.08"/>
<path d="M155.871 204.155H138.972C137.638 204.155 136.557 205.236 136.557 206.569V242.783C136.557 244.117 137.638 245.197 138.972 245.197H155.871C157.205 245.197 158.286 244.117 158.286 242.783V206.569C158.286 205.236 157.205 204.155 155.871 204.155Z" fill="#FDFEFE"/>
<path d="M155.874 204.155H148.632C149.272 204.155 149.886 204.409 150.339 204.862C150.791 205.315 151.046 205.929 151.046 206.569V242.783C151.046 243.423 150.791 244.038 150.339 244.49C149.886 244.943 149.272 245.197 148.632 245.197H155.874C156.515 245.197 157.129 244.943 157.582 244.49C158.034 244.038 158.289 243.423 158.289 242.783V206.569C158.289 205.929 158.034 205.315 157.582 204.862C157.129 204.409 156.515 204.155 155.874 204.155Z" fill="#C2D1DC"/>
<path d="M274.172 199.327H257.272C255.939 199.327 254.858 200.408 254.858 201.741V237.955C254.858 239.289 255.939 240.369 257.272 240.369H274.172C275.505 240.369 276.586 239.289 276.586 237.955V201.741C276.586 200.408 275.505 199.327 274.172 199.327Z" fill="white"/>
<path d="M274.171 199.327H266.928C267.569 199.327 268.183 199.581 268.636 200.034C269.088 200.487 269.343 201.101 269.343 201.741V237.955C269.343 238.595 269.088 239.209 268.636 239.662C268.183 240.115 267.569 240.369 266.928 240.369H274.171C274.812 240.369 275.426 240.115 275.878 239.662C276.331 239.209 276.585 238.595 276.585 237.955V201.741C276.585 201.101 276.331 200.487 275.878 200.034C275.426 199.581 274.812 199.327 274.171 199.327Z" fill="#D6E0E6"/>
<path d="M237.958 147.13V157.077C238.157 167.327 235.408 177.418 230.036 186.149C224.665 194.881 216.897 201.885 207.659 206.328C207.317 206.483 206.947 206.563 206.572 206.563C206.197 206.563 205.827 206.483 205.486 206.328C201.895 204.628 198.516 202.513 195.418 200.027C188.936 194.936 183.731 188.403 180.219 180.947C176.706 173.49 174.983 165.317 175.187 157.077V147.13C175.193 146.574 175.392 146.038 175.748 145.611C176.104 145.185 176.597 144.894 177.142 144.788C178.772 144.437 180.269 143.634 181.464 142.471C182.59 141.367 183.384 139.97 183.757 138.439C183.89 137.895 184.203 137.412 184.647 137.07C185.09 136.728 185.636 136.546 186.196 136.556H226.949C227.508 136.546 228.055 136.728 228.498 137.07C228.941 137.412 229.254 137.895 229.387 138.439C229.76 139.97 230.555 141.367 231.68 142.471C232.875 143.634 234.372 144.437 236.002 144.788C236.548 144.894 237.04 145.185 237.397 145.611C237.753 146.038 237.951 146.574 237.958 147.13Z" fill="white" fill-opacity="0.25"/>
<path d="M236.003 144.788C234.374 144.437 232.876 143.634 231.682 142.471C230.556 141.367 229.761 139.97 229.388 138.439C229.256 137.895 228.942 137.412 228.499 137.07C228.056 136.728 227.509 136.546 226.95 136.556H219.707C220.267 136.546 220.813 136.728 221.256 137.07C221.699 137.412 222.013 137.895 222.145 138.439C222.519 139.97 223.313 141.367 224.439 142.471C225.633 143.634 227.131 144.437 228.76 144.788C229.306 144.894 229.799 145.185 230.155 145.611C230.511 146.038 230.709 146.574 230.716 147.13V157.077C230.888 164.138 229.644 171.162 227.056 177.735C224.469 184.307 220.591 190.294 215.651 195.343C211.909 199.175 207.632 202.444 202.952 205.048C203.992 205.616 204.864 206.048 205.484 206.328C205.826 206.483 206.196 206.563 206.571 206.563C206.946 206.563 207.316 206.483 207.657 206.328C216.896 201.885 224.664 194.881 230.036 186.15C235.408 177.418 238.158 167.327 237.959 157.077V147.13C237.952 146.574 237.754 146.038 237.398 145.611C237.041 145.185 236.549 144.894 236.003 144.788Z" fill="#ACC4E1"/>
<path d="M138.972 245.197H146.214C145.574 245.197 144.96 244.943 144.507 244.49C144.055 244.038 143.8 243.423 143.8 242.783V206.569C143.8 205.929 144.055 205.315 144.507 204.862C144.96 204.409 145.574 204.155 146.214 204.155H138.972C138.331 204.155 137.717 204.409 137.264 204.862C136.812 205.315 136.557 205.929 136.557 206.569V242.783C136.557 243.423 136.812 244.038 137.264 244.49C137.717 244.943 138.331 245.197 138.972 245.197Z" fill="white"/>
<path d="M180.59 175.249L176.029 176.835C173.887 170.468 172.787 163.796 172.772 157.077H177.601C177.616 163.256 178.625 169.391 180.59 175.249Z" fill="white"/>
<g filter="url(#filter2_dii_1_558)">
<path d="M274.17 196.912H257.27C256.496 196.914 255.733 197.102 255.047 197.46C254.36 197.819 253.77 198.337 253.326 198.972L227.558 193.815C236.12 183.515 240.67 170.467 240.371 157.077V147.142C240.361 146.04 239.977 144.974 239.28 144.119C238.582 143.265 237.615 142.674 236.537 142.444C235.344 142.19 234.247 141.604 233.372 140.754C232.569 139.971 232.004 138.977 231.742 137.886C231.483 136.812 230.868 135.857 229.997 135.177C229.126 134.497 228.05 134.132 226.945 134.142H186.197C185.092 134.132 184.016 134.496 183.145 135.176C182.273 135.855 181.658 136.81 181.398 137.884C181.137 138.973 180.574 139.966 179.773 140.749C178.905 141.595 177.818 142.181 176.634 142.439C175.55 142.665 174.576 143.254 173.873 144.11C173.171 144.965 172.782 146.035 172.771 147.142V157.077C172.771 157.717 173.026 158.331 173.479 158.784C173.931 159.237 174.545 159.491 175.186 159.491C175.826 159.491 176.44 159.237 176.893 158.784C177.346 158.331 177.6 157.717 177.6 157.077L177.655 147.157C179.73 146.704 181.635 145.677 183.153 144.192C184.605 142.746 185.654 140.946 186.197 138.97L227.042 138.994C227.516 140.969 228.538 142.77 229.989 144.19C231.517 145.688 233.445 146.714 235.542 147.142V157.077C235.781 166.889 233.166 176.56 228.014 184.915C222.862 193.269 215.395 199.948 206.52 204.141H206.496C194.385 198.308 185.072 187.922 180.589 175.249C180.357 174.66 179.912 174.18 179.342 173.904C178.772 173.629 178.119 173.578 177.513 173.762C177.207 173.856 176.923 174.012 176.68 174.221C176.437 174.429 176.239 174.686 176.1 174.975C175.961 175.263 175.882 175.577 175.87 175.897C175.858 176.218 175.911 176.537 176.028 176.835C178.906 185.088 183.735 192.524 190.103 198.511L159.85 203.841C159.407 203.194 158.814 202.665 158.121 202.299C157.427 201.933 156.655 201.742 155.872 201.741H138.972C137.691 201.741 136.463 202.25 135.558 203.155C134.652 204.061 134.143 205.289 134.143 206.569V242.783C134.143 244.064 134.652 245.292 135.558 246.197C136.463 247.103 137.691 247.612 138.972 247.612H155.872C156.573 247.609 157.265 247.453 157.899 247.154C158.534 246.856 159.095 246.422 159.544 245.883L163.769 247.573L161.028 254.854C160.636 255.891 160.453 256.995 160.488 258.102C160.523 259.21 160.777 260.299 161.234 261.309C161.691 262.318 162.343 263.227 163.153 263.984C163.962 264.741 164.913 265.33 165.951 265.719C167.004 266.11 168.124 266.287 169.246 266.24C170.368 266.193 171.47 265.923 172.487 265.446C172.499 265.475 172.503 265.506 172.518 265.535C173.188 267.014 174.269 268.268 175.632 269.148C176.996 270.028 178.584 270.497 180.207 270.499C181.443 270.496 182.664 270.224 183.783 269.7C183.783 269.729 183.8 269.758 183.812 269.787C184.482 271.265 185.564 272.519 186.928 273.399C188.292 274.279 189.88 274.747 191.504 274.748C192.739 274.745 193.96 274.472 195.079 273.949C195.091 273.975 195.096 274.007 195.108 274.033C195.797 275.556 196.921 276.841 198.34 277.725C199.758 278.609 201.407 279.052 203.077 278.999C204.748 278.945 206.365 278.398 207.724 277.426C209.083 276.453 210.124 275.1 210.714 273.536L210.859 273.152L219.067 277.162C220.203 277.716 221.449 278.004 222.713 278.005C223.664 278.002 224.607 277.839 225.504 277.522C226.558 277.156 227.528 276.583 228.357 275.837C229.186 275.091 229.858 274.186 230.332 273.176C230.855 272.04 231.127 270.805 231.131 269.555C231.134 268.563 230.963 267.579 230.627 266.646C231.688 266.28 232.667 265.706 233.504 264.958C234.341 264.21 235.021 263.302 235.504 262.288C235.986 261.274 236.262 260.174 236.315 259.052C236.367 257.931 236.196 256.81 235.81 255.755C236.881 255.39 237.868 254.813 238.712 254.058C239.555 253.303 240.237 252.386 240.718 251.361C241.236 250.229 241.506 248.999 241.513 247.754C241.513 246.766 241.339 245.785 240.998 244.857C242.32 244.391 243.504 243.603 244.444 242.563L253.342 240.729C253.786 241.36 254.373 241.876 255.057 242.233C255.74 242.591 256.499 242.779 257.27 242.783H274.17C275.451 242.783 276.679 242.274 277.585 241.369C278.49 240.463 278.999 239.235 278.999 237.955V201.741C278.999 200.46 278.49 199.232 277.585 198.327C276.679 197.421 275.451 196.912 274.17 196.912ZM206.571 208.984C207.29 208.984 208 208.826 208.65 208.52C214.214 205.856 219.3 202.291 223.703 197.97L252.442 203.72V235.987L246.689 237.172C246.752 235.537 246.339 233.918 245.498 232.514C244.657 231.109 243.426 229.98 241.954 229.263L215.294 215.587C213.962 214.906 212.453 214.654 210.972 214.864C209.492 215.074 208.112 215.736 207.023 216.76L192.725 230.229C192.037 230.847 191.184 231.253 190.27 231.395C189.356 231.538 188.42 231.412 187.576 231.033C186.732 230.654 186.017 230.037 185.516 229.259C185.016 228.481 184.753 227.574 184.758 226.649C184.747 225.456 185.193 224.303 186.004 223.428L201.018 206.63C202.151 207.277 203.28 207.933 204.456 208.501C205.117 208.815 205.839 208.98 206.571 208.984ZM138.972 206.569H155.872V242.783H138.972V206.569ZM167.641 261.199C167.196 261.032 166.788 260.778 166.441 260.453C166.094 260.127 165.815 259.736 165.62 259.302C165.425 258.871 165.318 258.407 165.305 257.934C165.291 257.462 165.373 256.992 165.543 256.552L168.952 247.51C169.115 247.072 169.364 246.672 169.683 246.331C170.003 245.99 170.387 245.716 170.813 245.526C171.285 245.31 171.797 245.198 172.315 245.197C172.763 245.198 173.207 245.28 173.626 245.439C174.313 245.697 174.905 246.16 175.321 246.764C175.738 247.368 175.96 248.085 175.958 248.819C175.957 249.222 175.885 249.621 175.746 249.999L173.53 255.866L172.298 259.101C171.953 259.992 171.271 260.711 170.399 261.104C169.528 261.496 168.537 261.531 167.641 261.199ZM178.937 265.439C178.494 265.272 178.087 265.02 177.741 264.697C177.395 264.373 177.116 263.985 176.92 263.553C176.724 263.122 176.615 262.656 176.599 262.183C176.583 261.709 176.661 261.237 176.827 260.794L178.191 257.172L180.244 251.784C180.263 251.735 180.268 251.682 180.285 251.631L181.084 249.517C181.252 249.072 181.507 248.664 181.833 248.318C182.159 247.971 182.55 247.692 182.984 247.497C183.418 247.302 183.886 247.194 184.361 247.18C184.837 247.165 185.311 247.245 185.755 247.414C186.199 247.58 186.606 247.832 186.952 248.155C187.298 248.479 187.577 248.867 187.773 249.299C187.969 249.73 188.077 250.196 188.093 250.67C188.108 251.143 188.03 251.615 187.863 252.059L183.604 263.329C183.436 263.774 183.182 264.181 182.857 264.528C182.532 264.875 182.141 265.154 181.708 265.35C181.275 265.546 180.807 265.655 180.331 265.67C179.856 265.685 179.382 265.606 178.937 265.439ZM190.231 269.688C189.337 269.349 188.614 268.67 188.218 267.799C187.823 266.928 187.788 265.937 188.121 265.04L192.38 253.773C192.641 253.084 193.105 252.492 193.711 252.074C194.317 251.656 195.036 251.432 195.772 251.433C196.21 251.437 196.643 251.519 197.052 251.675C197.944 252.01 198.667 252.686 199.062 253.553C199.457 254.421 199.492 255.41 199.159 256.303L194.901 267.573C194.733 268.018 194.48 268.427 194.154 268.774C193.829 269.122 193.438 269.402 193.004 269.598C192.571 269.795 192.103 269.904 191.627 269.919C191.151 269.934 190.677 269.856 190.231 269.688ZM201.528 273.927C201.084 273.761 200.678 273.509 200.331 273.185C199.985 272.862 199.706 272.473 199.51 272.042C199.314 271.61 199.205 271.145 199.189 270.671C199.174 270.198 199.251 269.726 199.418 269.282L201.974 262.522C202.228 261.852 202.674 261.273 203.256 260.856C203.839 260.44 204.532 260.206 205.248 260.183C205.964 260.161 206.67 260.351 207.278 260.73C207.885 261.109 208.367 261.66 208.662 262.312C208.859 262.742 208.968 263.207 208.983 263.679C208.999 264.152 208.92 264.623 208.751 265.064L206.197 271.824C205.856 272.722 205.173 273.448 204.298 273.843C203.422 274.237 202.426 274.267 201.528 273.927ZM236.747 240.128H236.701L230.182 237.013C229.894 236.85 229.576 236.748 229.247 236.714C228.918 236.679 228.585 236.713 228.269 236.812C227.954 236.911 227.662 237.075 227.412 237.291C227.162 237.508 226.959 237.774 226.816 238.073C226.674 238.372 226.594 238.696 226.582 239.027C226.57 239.358 226.626 239.687 226.746 239.995C226.867 240.304 227.05 240.584 227.283 240.818C227.517 241.053 227.796 241.237 228.104 241.359L234.603 244.473L234.646 244.495C235.255 244.796 235.768 245.261 236.126 245.838C236.485 246.414 236.674 247.08 236.674 247.759C236.671 248.299 236.554 248.832 236.332 249.323C235.919 250.184 235.184 250.847 234.286 251.168C233.388 251.489 232.399 251.443 231.534 251.04H231.52L224.519 247.687C223.949 247.453 223.311 247.446 222.736 247.667C222.161 247.888 221.692 248.32 221.426 248.875C221.159 249.431 221.115 250.067 221.302 250.654C221.489 251.241 221.894 251.734 222.433 252.032L229.412 255.369C229.412 255.369 229.434 255.388 229.449 255.395C230.312 255.812 230.975 256.555 231.292 257.46C231.609 258.365 231.554 259.359 231.139 260.224C230.71 261.083 229.962 261.741 229.055 262.056C228.148 262.372 227.153 262.321 226.283 261.914L219.683 258.744C219.112 258.504 218.471 258.492 217.891 258.711C217.312 258.931 216.839 259.364 216.571 259.922C216.302 260.481 216.259 261.121 216.449 261.71C216.639 262.299 217.048 262.793 217.592 263.09L224.231 266.276C224.851 266.57 225.373 267.035 225.737 267.616C226.101 268.197 226.291 268.869 226.286 269.555C226.283 270.097 226.164 270.632 225.938 271.124C225.737 271.549 225.453 271.93 225.104 272.245C224.754 272.56 224.346 272.803 223.903 272.961C223.459 273.118 222.989 273.185 222.519 273.16C222.05 273.135 221.589 273.018 221.165 272.814L212.573 268.616L213.268 266.774C213.796 265.404 213.954 263.919 213.727 262.468C213.5 261.018 212.895 259.652 211.974 258.509C211.053 257.366 209.847 256.485 208.478 255.954C207.109 255.424 205.625 255.263 204.174 255.487C204.289 253.698 203.823 251.919 202.845 250.416C201.868 248.913 200.431 247.766 198.749 247.146C197.695 246.751 196.574 246.571 195.45 246.616C194.326 246.661 193.222 246.931 192.204 247.409C192.204 247.38 192.187 247.349 192.175 247.32C191.651 246.161 190.872 245.135 189.896 244.32C188.919 243.505 187.771 242.922 186.537 242.615C185.303 242.307 184.015 242.283 182.771 242.544C181.526 242.806 180.357 243.345 179.35 244.123C178.634 243.042 177.678 242.141 176.556 241.49C175.434 240.839 174.177 240.457 172.883 240.372C171.588 240.288 170.292 240.504 169.095 241.003C167.898 241.503 166.833 242.272 165.983 243.252L160.7 241.149V208.595L194.843 202.581C195.502 203.083 196.199 203.535 196.883 204.008L182.448 220.183C180.822 221.945 179.927 224.259 179.942 226.656C179.939 228.515 180.476 230.335 181.488 231.895C182.5 233.455 183.942 234.688 185.641 235.444C187.34 236.199 189.221 236.446 191.057 236.153C192.893 235.861 194.605 235.041 195.985 233.795L210.332 220.275C210.696 219.933 211.156 219.711 211.65 219.641C212.144 219.571 212.648 219.656 213.092 219.884L239.811 233.587C240.677 234.006 241.342 234.75 241.662 235.657C241.981 236.565 241.928 237.562 241.515 238.43C241.419 238.632 241.303 238.824 241.17 239.002L241.121 239.065C240.617 239.706 239.913 240.16 239.121 240.356C238.328 240.551 237.494 240.475 236.749 240.142L236.747 240.128ZM274.17 237.955H257.27V201.741H274.17V237.955Z" fill="url(#paint0_linear_1_558)"/>
</g>
<g filter="url(#filter3_dii_1_558)">
<path d="M201.744 184.841C202.384 184.841 202.998 184.586 203.451 184.133L227.593 159.991C228.033 159.535 228.276 158.926 228.271 158.293C228.265 157.66 228.011 157.054 227.564 156.606C227.116 156.159 226.511 155.905 225.878 155.899C225.245 155.894 224.635 156.137 224.179 156.577L201.744 179.013L193.793 171.063C193.338 170.623 192.728 170.379 192.095 170.385C191.462 170.39 190.857 170.644 190.409 171.092C189.961 171.54 189.708 172.145 189.702 172.778C189.697 173.411 189.94 174.021 190.38 174.476L200.037 184.133C200.489 184.586 201.103 184.841 201.744 184.841ZM176.027 169.117C175.71 169.118 175.396 169.057 175.102 168.938C174.809 168.818 174.542 168.641 174.316 168.418C174.091 168.195 173.912 167.93 173.789 167.637C173.666 167.345 173.602 167.032 173.601 166.715C173.599 166.397 173.66 166.083 173.78 165.79C173.9 165.496 174.076 165.229 174.299 165.004C174.522 164.779 174.788 164.599 175.08 164.477C175.372 164.354 175.686 164.29 176.003 164.288H176.027C176.667 164.288 177.281 164.543 177.734 164.995C178.187 165.448 178.441 166.062 178.441 166.702C178.441 167.343 178.187 167.957 177.734 168.41C177.281 168.862 176.667 169.117 176.027 169.117Z" fill="#CEA771"/>
</g>
</g>
</g>
<defs>
<filter id="filter0_ddddddd_1_558" x="70.7374" y="63.683" width="285.91" height="303.022" filterUnits="userSpaceOnUse" color-interpolation-filters="sRGB">
<feFlood flood-opacity="0" result="BackgroundImageFix"/>
<feColorMatrix in="SourceAlpha" type="matrix" values="0 0 0 0 0 0 0 0 0 0 0 0 0 0 0 0 0 0 127 0" result="hardAlpha"/>
<feOffset dx="-8.38099" dy="-11.9087"/>
<feGaussianBlur stdDeviation="6.32066"/>
<feColorMatrix type="matrix" values="0 0 0 0 1 0 0 0 0 1 0 0 0 0 1 0 0 0 0.375 0"/>
<feBlend mode="normal" in2="BackgroundImageFix" result="effect1_dropShadow_1_558"/>
<feColorMatrix in="SourceAlpha" type="matrix" values="0 0 0 0 0 0 0 0 0 0 0 0 0 0 0 0 0 0 127 0" result="hardAlpha"/>
<feOffset dx="-8.38099" dy="-13.143"/>
<feGaussianBlur stdDeviation="7.33881"/>
<feColorMatrix type="matrix" values="0 0 0 0 1 0 0 0 0 1 0 0 0 0 1 0 0 0 0.44708 0"/>
<feBlend mode="normal" in2="effect1_dropShadow_1_558" result="effect2_dropShadow_1_558"/>
<feColorMatrix in="SourceAlpha" type="matrix" values="0 0 0 0 0 0 0 0 0 0 0 0 0 0 0 0 0 0 127 0" result="hardAlpha"/>
<feOffset dx="-8.38099" dy="-15.4353"/>
<feGaussianBlur stdDeviation="8.94081"/>
<feColorMatrix type="matrix" values="0 0 0 0 1 0 0 0 0 1 0 0 0 0 1 0 0 0 0.539141 0"/>
<feBlend mode="normal" in2="effect2_dropShadow_1_558" result="effect3_dropShadow_1_558"/>
<feColorMatrix in="SourceAlpha" type="matrix" values="0 0 0 0 0 0 0 0 0 0 0 0 0 0 0 0 0 0 127 0" result="hardAlpha"/>
<feOffset dx="12.5715" dy="14.6667"/>
<feGaussianBlur stdDeviation="9.42861"/>
<feColorMatrix type="matrix" values="0 0 0 0 0.901961 0 0 0 0 0.888784 0 0 0 0 0.819608 0 0 0 0.48 0"/>
<feBlend mode="normal" in2="effect3_dropShadow_1_558" result="effect4_dropShadow_1_558"/>
<feColorMatrix in="SourceAlpha" type="matrix" values="0 0 0 0 0 0 0 0 0 0 0 0 0 0 0 0 0 0 127 0" result="hardAlpha"/>
<feOffset dx="12.5715" dy="11.7334"/>
<feGaussianBlur stdDeviation="7.96194"/>
<feColorMatrix type="matrix" values="0 0 0 0 0.900314 0 0 0 0 0.901961 0 0 0 0 0.819608 0 0 0 0.4 0"/>
<feBlend mode="normal" in2="effect4_dropShadow_1_558" result="effect5_dropShadow_1_558"/>
<feColorMatrix in="SourceAlpha" type="matrix" values="0 0 0 0 0 0 0 0 0 0 0 0 0 0 0 0 0 0 127 0" result="hardAlpha"/>
<feOffset dx="12.5715" dy="10.0572"/>
<feGaussianBlur stdDeviation="7.12384"/>
<feColorMatrix type="matrix" values="0 0 0 0 0.901961 0 0 0 0 0.893726 0 0 0 0 0.819608 0 0 0 0.34 0"/>
<feBlend mode="normal" in2="effect5_dropShadow_1_558" result="effect6_dropShadow_1_558"/>
<feColorMatrix in="SourceAlpha" type="matrix" values="0 0 0 0 0 0 0 0 0 0 0 0 0 0 0 0 0 0 127 0" result="hardAlpha"/>
<feOffset dx="12.5715" dy="22.6287"/>
<feGaussianBlur stdDeviation="14.0382"/>
<feColorMatrix type="matrix" values="0 0 0 0 0.901961 0 0 0 0 0.883843 0 0 0 0 0.819608 0 0 0 0.67 0"/>
<feBlend mode="normal" in2="effect6_dropShadow_1_558" result="effect7_dropShadow_1_558"/>
<feBlend mode="normal" in="SourceGraphic" in2="effect7_dropShadow_1_558" result="shape"/>
</filter>
<filter id="filter1_dd_1_558" x="87.8097" y="78.524" width="249.093" height="268.091" filterUnits="userSpaceOnUse" color-interpolation-filters="sRGB">
<feFlood flood-opacity="0" result="BackgroundImageFix"/>
<feColorMatrix in="SourceAlpha" type="matrix" values="0 0 0 0 0 0 0 0 0 0 0 0 0 0 0 0 0 0 127 0" result="hardAlpha"/>
<feOffset dx="6.80949" dy="16.5223"/>
<feGaussianBlur stdDeviation="18.4754"/>
<feColorMatrix type="matrix" values="0 0 0 0 0 0 0 0 0 0.267609 0 0 0 0 0.581759 0 0 0 0.1 0"/>
<feBlend mode="normal" in2="BackgroundImageFix" result="effect1_dropShadow_1_558"/>
<feColorMatrix in="SourceAlpha" type="matrix" values="0 0 0 0 0 0 0 0 0 0 0 0 0 0 0 0 0 0 127 0" result="hardAlpha"/>
<feOffset dx="-3.71427" dy="-12.9999"/>
<feGaussianBlur stdDeviation="14.238"/>
<feComposite in2="hardAlpha" operator="out"/>
<feColorMatrix type="matrix" values="0 0 0 0 1 0 0 0 0 1 0 0 0 0 1 0 0 0 1 0"/>
<feBlend mode="normal" in2="effect1_dropShadow_1_558" result="effect2_dropShadow_1_558"/>
<feBlend mode="normal" in="SourceGraphic" in2="effect2_dropShadow_1_558" result="shape"/>
</filter>
<filter id="filter2_dii_1_558" x="124.843" y="130.886" width="163.456" height="164.393" filterUnits="userSpaceOnUse" color-interpolation-filters="sRGB">
<feFlood flood-opacity="0" result="BackgroundImageFix"/>
<feColorMatrix in="SourceAlpha" type="matrix" values="0 0 0 0 0 0 0 0 0 0 0 0 0 0 0 0 0 0 127 0" result="hardAlpha"/>
<feOffset dy="6.97535"/>
<feGaussianBlur stdDeviation="4.65023"/>
<feColorMatrix type="matrix" values="0 0 0 0 0.154444 0 0 0 0 0.3753 0 0 0 0 0.579167 0 0 0 0.55 0"/>
<feBlend mode="normal" in2="BackgroundImageFix" result="effect1_dropShadow_1_558"/>
<feBlend mode="normal" in="SourceGraphic" in2="effect1_dropShadow_1_558" result="shape"/>
<feColorMatrix in="SourceAlpha" type="matrix" values="0 0 0 0 0 0 0 0 0 0 0 0 0 0 0 0 0 0 127 0" result="hardAlpha"/>
<feOffset dy="-3.25516"/>
<feGaussianBlur stdDeviation="5.34777"/>
<feComposite in2="hardAlpha" operator="arithmetic" k2="-1" k3="1"/>
<feColorMatrix type="matrix" values="0 0 0 0 0 0 0 0 0 0 0 0 0 0 0 0 0 0 0.25 0"/>
<feBlend mode="normal" in2="shape" result="effect2_innerShadow_1_558"/>
<feColorMatrix in="SourceAlpha" type="matrix" values="0 0 0 0 0 0 0 0 0 0 0 0 0 0 0 0 0 0 127 0" result="hardAlpha"/>
<feOffset dy="-1.39507"/>
<feGaussianBlur stdDeviation="0.930047"/>
<feComposite in2="hardAlpha" operator="arithmetic" k2="-1" k3="1"/>
<feColorMatrix type="matrix" values="0 0 0 0 0.954167 0 0 0 0 0.98625 0 0 0 0 1 0 0 0 0.67 0"/>
<feBlend mode="normal" in2="effect2_innerShadow_1_558" result="effect3_innerShadow_1_558"/>
</filter>
<filter id="filter3_dii_1_558" x="169.415" y="153.574" width="63.0406" height="37.3118" filterUnits="userSpaceOnUse" color-interpolation-filters="sRGB">
<feFlood flood-opacity="0" result="BackgroundImageFix"/>
<feColorMatrix in="SourceAlpha" type="matrix" values="0 0 0 0 0 0 0 0 0 0 0 0 0 0 0 0 0 0 127 0" result="hardAlpha"/>
<feOffset dy="1.86009"/>
<feGaussianBlur stdDeviation="2.09261"/>
<feColorMatrix type="matrix" values="0 0 0 0 0 0 0 0 0 0 0 0 0 0 0 0 0 0 0.15 0"/>
<feBlend mode="normal" in2="BackgroundImageFix" result="effect1_dropShadow_1_558"/>
<feBlend mode="normal" in="SourceGraphic" in2="effect1_dropShadow_1_558" result="shape"/>
<feColorMatrix in="SourceAlpha" type="matrix" values="0 0 0 0 0 0 0 0 0 0 0 0 0 0 0 0 0 0 127 0" result="hardAlpha"/>
<feOffset dy="-2.32512"/>
<feGaussianBlur stdDeviation="1.16256"/>
<feComposite in2="hardAlpha" operator="arithmetic" k2="-1" k3="1"/>
<feColorMatrix type="matrix" values="0 0 0 0 0 0 0 0 0 0 0 0 0 0 0 0 0 0 0.25 0"/>
<feBlend mode="normal" in2="shape" result="effect2_innerShadow_1_558"/>
<feColorMatrix in="SourceAlpha" type="matrix" values="0 0 0 0 0 0 0 0 0 0 0 0 0 0 0 0 0 0 127 0" result="hardAlpha"/>
<feOffset dy="-1.39507"/>
<feGaussianBlur stdDeviation="1.39507"/>
<feComposite in2="hardAlpha" operator="arithmetic" k2="-1" k3="1"/>
<feColorMatrix type="matrix" values="0 0 0 0 0.867285 0 0 0 0 0.797185 0 0 0 0 0.692035 0 0 0 0.85 0"/>
<feBlend mode="normal" in2="effect2_innerShadow_1_558" result="effect3_innerShadow_1_558"/>
</filter>
<linearGradient id="paint0_linear_1_558" x1="206.571" y1="134.141" x2="206.571" y2="279.003" gradientUnits="userSpaceOnUse">
<stop stop-color="#2BAAD3"/>
<stop offset="1" stop-color="#1F5E72"/>
</linearGradient>
<clipPath id="clip0_1_558">
<rect x="120" y="120" width="173.142" height="173.142" rx="26.6127" fill="white"/>
</clipPath>
</defs>
</svg>
