<svg width="44" height="32" viewBox="0 0 44 32" fill="none" xmlns="http://www.w3.org/2000/svg">
<path d="M12.2222 0.0497437H7.33333C3.28957 0.0497437 0 3.10995 0 6.87177V11.4198C0 15.1816 3.28957 18.2418 7.33333 18.2418H12.2222C13.0071 18.2418 13.7492 18.0964 14.4587 17.8828C13.4731 23.2387 8.48075 27.3379 2.44444 27.3379C1.09332 27.3379 0 28.355 0 29.6119C0 30.8688 1.09332 31.8859 2.44444 31.8859C11.8785 31.8859 19.5556 24.7441 19.5556 15.9678V6.87177C19.5556 3.10995 16.266 0.0497437 12.2222 0.0497437ZM36.6667 0.0497437H31.7778C27.734 0.0497437 24.4444 3.10995 24.4444 6.87177V11.4198C24.4444 15.1816 27.734 18.2418 31.7778 18.2418H36.6667C37.4515 18.2418 38.1936 18.0964 38.9032 17.8828C37.9176 23.2387 32.9252 27.3379 26.8889 27.3379C25.5378 27.3379 24.4444 28.355 24.4444 29.6119C24.4444 30.8688 25.5378 31.8859 26.8889 31.8859C36.323 31.8859 44 24.7441 44 15.9678V6.87177C44 3.10995 40.7104 0.0497437 36.6667 0.0497437Z" fill="#CEA771"/>
<path d="M14.9505 17.9733L15.0987 17.168L14.3146 17.4041C13.6369 17.6081 12.9448 17.7418 12.2222 17.7418H7.33333C3.53107 17.7418 0.5 14.8721 0.5 11.4198V6.87177C0.5 3.41952 3.53107 0.549744 7.33333 0.549744H12.2222C16.0245 0.549744 19.0556 3.41952 19.0556 6.87177V15.9678C19.0556 24.4346 11.637 31.3859 2.44444 31.3859C1.33481 31.3859 0.5 30.5592 0.5 29.6119C0.5 28.6645 1.33481 27.8379 2.44444 27.8379C8.7031 27.8379 13.9179 23.5846 14.9505 17.9733ZM39.3949 17.9733L39.5431 17.168L38.759 17.4041C38.0813 17.6081 37.3892 17.7418 36.6667 17.7418H31.7778C27.9755 17.7418 24.9444 14.8721 24.9444 11.4198V6.87177C24.9444 3.41952 27.9755 0.549744 31.7778 0.549744H36.6667C40.4689 0.549744 43.5 3.41952 43.5 6.87177V15.9678C43.5 24.4346 36.0815 31.3859 26.8889 31.3859C25.7793 31.3859 24.9444 30.5592 24.9444 29.6119C24.9444 28.6645 25.7793 27.8379 26.8889 27.8379C33.1475 27.8379 38.3623 23.5846 39.3949 17.9733Z" stroke="black" stroke-opacity="0.1"/>
</svg>
